<?xml version="1.0" encoding="utf-8"?>
<!-- Generator: Adobe Illustrator 23.0.3, SVG Export Plug-In . SVG Version: 6.00 Build 0)  -->
<svg version="1.1" id="Layer_1" xmlns="http://www.w3.org/2000/svg" xmlns:xlink="http://www.w3.org/1999/xlink" x="0px" y="0px"
	 viewBox="0 0 1092.6 423" style="enable-background:new 0 0 1092.6 423;" xml:space="preserve">
<style type="text/css">
	.st0{fill:#EDBC66;}
	.st1{fill:#896F00;}
	.st2{fill:#F2C682;}
	.st3{fill:#314A59;}
	.st4{fill:#C9974B;}
	.st5{fill:#FFFFFF;}
	.st6{fill:#FFFFFF;fill-opacity:0.49;}
</style>
<path class="st0" d="M545.6,100.9l0.3-0.4c-112,0-202.7,89.4-202.7,199.6c0,21.5,401.2,21.9,401.2,0.4
	C744.4,191.5,655.7,102.8,545.6,100.9z"/>
<circle class="st1" cx="543.8" cy="27" r="27.5"/>
<path class="st2" d="M651.2,132.8c0,58.5-48.1,105.8-107.5,105.8c-59.3,0-107.4-47.3-107.4-105.8S484.4,27,543.9,27
	C603.1,27,651.2,74.3,651.2,132.8z"/>
<path class="st3" d="M1092.6,254.8H-1V423h1093.6V254.8z"/>
<path class="st4" d="M425.8,255.1c0,6.5-10.5,6.5-17.5,11.2c-8.5,5.5-14.6,15-28.6,15c-25.4,0-45.9-11.8-45.9-26.1
	c0-14.4,20.5-26.1,45.9-26.1C405.1,229.1,425.8,240.6,425.8,255.1z"/>
<path class="st4" d="M664.3,255.1c0,6.5,10.5,6.5,17.5,11.2c8.5,5.5,14.6,15,28.6,15c25.4,0,45.9-11.8,45.9-26.1
	c0-14.4-20.5-26.1-45.9-26.1C685,229.1,664.3,240.6,664.3,255.1z"/>
<ellipse class="st5" cx="543.6" cy="205" rx="19.5" ry="15"/>
<path class="st6" d="M562.5,238.5c2.5-1.5-0.5-30,0-36.5c0-4.9-19.5,9.5-21,12s2,11,6,11s6-7.5,9.5-5S560,240,562.5,238.5z"/>
<circle cx="498.3" cy="153" r="9"/>
<circle cx="589.3" cy="153" r="9"/>
</svg>
