<?xml version="1.0" encoding="utf-8"?>
<!-- Generator: Adobe Illustrator 23.0.3, SVG Export Plug-In . SVG Version: 6.00 Build 0)  -->
<svg version="1.1" id="Layer_1" xmlns="http://www.w3.org/2000/svg" xmlns:xlink="http://www.w3.org/1999/xlink" x="0px" y="0px"
	 viewBox="0 0 1444.1 654.8" style="enable-background:new 0 0 1444.1 654.8;" xml:space="preserve">
<style type="text/css">
	.st0{fill:#A3A3A3;}
	.st1{fill:#9E9E9E;}
	.st2{fill:#C1C1C1;}
	.st3{fill:#7E7E7E;}
	.st4{fill:#676767;}
	.st5{fill:#CCCCCC;}
	.st6{fill:#AEAEAE;}
	.st7{fill:#FFFFFF;}
	.st8{fill:#9C9C9C;}
	.st9{fill:#C0C0C0;}
	.st10{fill:#272727;}
	.st11{fill:#B4B4B4;}
	.st12{fill:#202020;}
	.st13{fill:#222222;}
	.st14{fill:#2C2C2C;}
	.st15{fill:#4A4A4A;}
	.st16{fill-rule:evenodd;clip-rule:evenodd;fill:#696969;}
	.st17{fill:#808080;}
	.st18{opacity:0.75;fill:#FFFFFF;enable-background:new    ;}
	.st19{opacity:0.1;enable-background:new    ;}
	.st20{fill:url(#SVGID_1_);}
	.st21{fill:url(#SVGID_2_);}
	.st22{fill:url(#SVGID_3_);}
	.st23{fill:url(#SVGID_4_);}
	.st24{fill:#727272;}
	.st25{fill:#666666;}
	.st26{fill:#818181;}
	.st27{opacity:0.3;enable-background:new    ;}
	.st28{opacity:0.2;enable-background:new    ;}
	.st29{fill:#A0A0A0;}
	.st30{fill:#5C5C5C;}
	.st31{fill:#E6E6E6;}
	.st32{fill:#BDBDBD;}
	.st33{fill:#A8A8A8;}
	.st34{fill:#3B3B3B;}
	.st35{fill:#8E8E8E;}
	.st36{fill:#AAAAAA;}
	.st37{fill:#FCFCFC;}
	.st38{fill:url(#SVGID_5_);}
	.st39{fill:url(#SVGID_6_);}
	.st40{fill:#747474;}
	.st41{fill:#3E3E3E;}
	.st42{fill:#555555;}
	.st43{fill:#F2F2F2;}
	.st44{fill:#B3B3B3;}
	.st45{fill:none;stroke:#FFFFFF;stroke-width:4.106;stroke-linejoin:round;stroke-miterlimit:10;}
	.st46{fill:#535353;}
	.st47{fill:#717171;}
	.st48{fill:#FFFFFF;stroke:#000000;stroke-width:0.4106;stroke-miterlimit:10;}
	.st49{fill:#E7E7E7;}
	.st50{fill:#A1A1A1;}
	.st51{fill:#606060;}
	.st52{fill:#C5C5C5;}
	.st53{fill:#D0D0D0;}
	.st54{fill:url(#SVGID_7_);}
	.st55{fill:url(#SVGID_8_);}
	.st56{fill:#C69C6D;}
	.st57{fill:#C9974B;}
	.st58{fill:#EDBC66;}
	.st59{fill:#A47738;}
	.st60{fill:#1D839A;}
	.st61{fill:#F2C682;}
	.st62{fill:#D59539;}
	.st63{fill:#F2C681;}
	.st64{fill:#E8A53C;}
	.st65{fill:#C7964A;}
	.st66{fill:#ECBA65;}
	.st67{fill:#A07A36;}
	.st68{fill:#03324C;}
	.st69{fill:#D8B25C;}
	.st70{fill:#23201C;}
	.st71{fill:#3A281A;}
	.st72{fill:#212222;}
	.st73{fill:#4C4946;}
	.st74{fill:#6C6866;}
	.st75{fill:url(#SVGID_9_);}
	.st76{fill:url(#SVGID_10_);}
	.st77{fill:url(#SVGID_11_);}
	.st78{fill:url(#SVGID_12_);}
	.st79{fill:#D84D23;}
	.st80{fill:#4E7914;}
	.st81{fill:#F15A24;}
	.st82{fill:#C49674;}
	.st83{fill:#EAB783;}
	.st84{fill:#ED1C24;}
	.st85{fill:#AEBEE2;}
	.st86{fill:#94AAD7;}
	.st87{fill:#3A3654;}
	.st88{fill:#7A8EC7;}
	.st89{fill:#92A9ED;}
	.st90{fill:url(#SVGID_13_);}
	.st91{fill:url(#SVGID_14_);}
	.st92{fill:#6073AC;}
	.st93{fill:#A6120D;}
	.st94{fill:#DD1B16;}
	.st95{fill:#1563AA;}
	.st96{fill:#E34239;}
	.st97{fill:#E6E7E8;}
	.st98{fill:#C89E48;}
	.st99{fill:#177AA0;}
	.st100{fill:#E9C464;}
	.st101{fill:#231F20;}
	.st102{fill:#EED080;}
	.st103{fill:url(#SVGID_15_);}
	.st104{fill:url(#SVGID_16_);}
</style>
<g>
	<path class="st56" d="M-82.9,719.8l198.2-209.4h1215.1l196.7,209.4H-82.9z"/>
	<path class="st57" d="M821.3,430c-2.5-3.5-5.1-7.1-8.1-10.1c-17.7-19.7-43.3-32.2-72.1-32.2c-28.8,0-54.4,12.3-72.3,32.2
		c-2.9,3.2-5.6,6.6-7.9,10.1c-10.8,15.5-16.9,34.4-16.9,54.6c0,17.4,4.7,33.7,12.6,47.9c7.6,13.1,18,24.4,30.7,32.9
		c12.3,8.3,26.8,13.7,42.3,15.5c3.9,0.3,7.8,0.7,11.5,0.7c4,0,7.8-0.3,11.6-0.7c15.5-1.9,30-7.2,42.3-15.7
		c12.5-8.4,23.1-19.7,30.5-32.7c8.1-14.2,12.6-30.5,12.6-47.9C838.2,464.6,832.1,445.7,821.3,430z"/>
	<path class="st58" d="M709.8,575.9c-1.7-1.9-2.9-3.4-2.9-5.9V452.3v-36.9l13.8-19.9h40.5l14,20.2v36.8v117.8c0,2.5-1.2,4-2.9,5.9
		c-3.4,3.5-5.6,8.1-6.2,13.1h50.7c-0.2-0.7-0.3-1.3-0.3-2c-0.5-2.9,1.2-4.9,3.9-7.4c26-22.4,42.5-55.6,42.5-92.5
		c0-66.9-53.8-121.4-120.5-122.6l0.2-0.3c-67.8,0-122.7,54.8-122.7,122.6c0,36.9,16.5,70.1,42.5,92.5c2.5,2.5,4.4,4.4,3.9,7.4
		c-0.2,0.8-0.3,1.5-0.3,2.4h50.7C715.5,584.3,713.1,579.6,709.8,575.9z"/>
	<path class="st59" d="M741.1,551.1c-5.1,0-9.1,2.4-9.1,5.1c0,0.2,0,0.3,0,0.5c0.5,2.5,4.4,4.6,9.1,4.6c4.7,0,8.6-1.9,9.1-4.6
		c0-0.2,0-0.3,0-0.5C750.2,553.3,746,551.1,741.1,551.1z"/>
	<path class="st60" d="M743.8,572.8c-19,0-37.2-1.9-53.4-5.2c11.6,7.1,24.9,12,39.1,13.7c3.9,0.3,7.8,0.7,11.5,0.7
		c4,0,7.8-0.3,11.6-0.7c13.1-1.7,25.6-5.7,36.7-12.3C775.3,571.5,760,572.8,743.8,572.8z"/>
	<path class="st61" d="M806.2,384.2c0,35.9-29.2,64.9-65.1,64.9c-35.9,0-65.1-29.2-65.1-64.9c0-35.9,29.2-64.9,65.1-64.9
		C777,319.3,806.2,348.5,806.2,384.2z"/>
	<path class="st62" d="M803.3,403.4c-4.4,18.2-4.6,83.8-13,89.3c3.2-7.9,0.8-62.5-0.3-68.9C788.6,413.9,803.3,403.4,803.3,403.4z"/>
	<path class="st62" d="M686.3,433.8c0,14.2-0.3,57.7-5.6,60.7c3-6.9-4.6-70.5-8.1-86.1C670.3,398.5,686.3,433.8,686.3,433.8z"/>
	<path class="st63" d="M805.5,384.2c0,35.9-29,64.9-64.9,64.9c-35.9,0-64.9-29-64.9-64.9c0-35.9,29-64.9,64.9-64.9
		C776.5,319.3,805.5,348.3,805.5,384.2z"/>
	<path class="st64" d="M813.2,380c-0.8-11.8-7.8-40.6-26.1-54.5c-16.9-12.5-29.7-17.2-45.2-15.8c-3.9,0.3-12.8,2.4-16.5,5.2
		c-34.2,0-53.4,42.5-54.9,49.9c-4.7,21.7,2.7,57.1,7.2,70.5c8.4,24.6,5.7,70.3,7.6,77.7c5.2-12.3,10.5-60,5.1-88
		c-2-10.6-3.5-27.1-4.2-41c-0.3-12.3,19.2-29.7,32-37.9c12,10.8,44.7,6.7,56.8,11.8c8.8,3.5,21.9,21.9,22.6,34.2
		c3.2,51.4-8.8,107.4-4.2,117.3C797.1,482.6,813.2,437.3,813.2,380z"/>
	<path class="st64" d="M725.9,314.6c2.5-2.2,6.6-5.7,11.1-6.9c-3.5,2.4-3.4,4.9-4.4,6.7C731.7,316.3,725.9,314.6,725.9,314.6z"/>
	<path class="st64" d="M726.4,314.7c-2.4-0.5-11.6-2-14,0.2c2.7-0.3,5.2,1.2,6.2,1.9C720.2,317.8,726.4,314.7,726.4,314.7z"/>
	<path d="M707.6,394.8c0-3,2.5-5.4,5.6-5.4s5.6,2.5,5.6,5.4H707.6z"/>
	<path d="M761.7,394.8c0-3,2.5-5.4,5.6-5.4s5.6,2.5,5.6,5.4H761.7z"/>
	<path class="st7" d="M759.1,410.1c-2,10.9-9.7,13.8-19,13.8c-9,0-16.7-3.6-19-14L759.1,410.1z"/>
	<path class="st65" d="M1190,418.9c-2.5-3.9-5.6-7.6-8.6-11c-19-21.2-46.9-34.6-77.7-34.6c-30.8,0-58.7,13.3-77.7,34.6
		c-3.2,3.4-6.1,7.1-8.6,11c-11.5,16.7-18.2,36.9-18.2,58.8c0,18.9,4.9,36.4,13.7,51.6c8.1,14.2,19.4,26.3,33,35.2
		c13.3,8.9,28.8,14.8,45.5,16.7c4,0.3,8.2,0.7,12.3,0.7c4.2,0,8.4-0.3,12.5-0.8c16.7-1.9,32.2-7.8,45.7-16.7
		c13.5-9.1,24.8-21.1,32.9-35.2c8.6-15.2,13.7-32.9,13.7-51.6C1208.2,456,1201.4,435.8,1190,418.9z"/>
	<path class="st66" d="M1074,569.5c-1.5-1.9-2.7-3.4-2.7-5.7V450.1v-35.7l13.3-19.2h39.1l13.5,19.6v35.4v113.8
		c0,2.4-1.2,3.9-2.7,5.7c-3.4,3.5-5.6,8.1-6.2,13h48.9c-0.2-0.8-0.3-1.7-0.3-2.4c-0.5-2.9,1.2-4.7,3.7-7.1
		c25.1-21.7,41-53.8,41-89.3c0-64.6-51.8-117-116.1-118.2l0.2-0.3c-65.4,0-118.3,52.9-118.3,118.2c0,35.7,15.8,67.8,41,89.3
		c2.5,2.4,4.2,4.2,3.7,7.1c-0.3,0.8-0.3,1.9-0.5,2.5h49C1079.6,577.5,1077.4,573,1074,569.5z"/>
	<path class="st67" d="M1103.5,549.1c-5.4,0-9.9,2.5-9.9,5.6c0,0.3,0,0.3,0,0.5c0.5,2.7,4.7,4.9,9.8,4.9c5.1,0,9.3-2.2,9.8-4.9
		c0-0.2,0-0.3,0-0.5C1113.3,551.6,1108.9,549.1,1103.5,549.1z"/>
	<path class="st68" d="M1106.4,572.5c-20.6,0-40.1-2-57.5-5.6c12.5,7.8,27,12.8,42.1,14.7c4,0.5,8.3,0.7,12.3,0.7
		c4.2,0,8.4-0.3,12.5-0.7c14.3-1.7,27.6-6.2,39.4-13C1140.4,571,1123.7,572.5,1106.4,572.5z"/>
	<path class="st69" d="M1168.9,410.2c-0.8,2.9-3.4,5.4-6.7,5.4s-6.4-2.5-6.4-6.1c0-3.4,8.1-15,11.5-15c0,0-0.7,5.4,0.8,9.3
		C1168.9,405.9,1169.4,408.3,1168.9,410.2z"/>
	<path class="st69" d="M1037.9,409.5c0.8,2.9,3.4,5.4,6.8,5.4s6.4-2.5,6.4-6.1c0-3.4-8.1-15-11.5-15c0,0,0.7,5.4-0.8,9.3
		C1037.8,405.3,1037.4,407.6,1037.9,409.5z"/>
	<path class="st70" d="M1165,408.6c0,1.3-1.2,2.5-2.5,2.5c-1.3,0-2.5-1.2-2.5-2.5c0-1.3,1.2-2.5,2.5-2.5
		C1163.8,406.1,1165,407.3,1165,408.6z"/>
	<path class="st61" d="M1173.1,369.7c0,38.3-31.2,69.5-69.8,69.5s-69.8-31-69.8-69.5c0-38.3,31.2-69.3,69.8-69.3
		C1141.9,300.2,1173.1,331.4,1173.1,369.7z"/>
	<path class="st7" d="M1084.1,392.5c2.4,8.4,9.9,14.7,19.2,14.7s16.9-6.2,19.2-14.7H1084.1z"/>
	<path class="st13" d="M1062,382.3c0-3.2,2.5-5.7,5.9-5.7c3.2,0,5.7,2.5,5.7,5.7H1062z"/>
	<path class="st13" d="M1133,382.3c0-3.2,2.5-5.7,5.9-5.7c3.2,0,5.9,2.5,5.9,5.7H1133z"/>
	<path class="st71" d="M1038.4,396c0,0,7.4-4.7,6.4-15.7c-1-11-2-17.2,7.1-18c0,0-4.5-14.2,12.5-27.5c0,0,12-12,24.4-6.2
		c12.5,5.7,19.2,5.9,38.6-0.2c0,0,21.6-1.9,18.5,22.4c0,0,5.9,8.8,15.2,8.8c0,0-3.7,21.6,6.6,36.8c0,0,9.4-15,5.7-24.3
		c0,0,6.9-17.9-4.2-27.8c0,0,0.8-10.8-10-17.5c0,0,2.2-4.2,2.7-7.1c0,0-4.6,2-6.6,1.5c0,0,1-16.9-20.2-14.7c0,0-6.4-2-5.6-8.9
		c0,0-5.1,1.2-6.6,3.9c0,0.2-0.2,0.2-0.2,0.3c0,0-10.8-6.2-5.6-13c0,0-7.4,1.2-10.9,7.8c0,0-6.9-6.7-14.5-6.6c0,0,6.7,12.1-5.9,11.6
		c-12.6-0.5-20.9,4.9-23.8,11.6c0,0-9.6-0.3-13.3,9.3c0,0-4.2,0.8-6.9-1.3c0,0-0.3,7.1,5.9,7.1c0,0-17.9,11.1-13.5,28.5
		c0,0-5.6,5.1-1.2,7.8C1033.4,364.3,1031.7,383.7,1038.4,396z"/>
	<path class="st57" d="M443.9,433.2c-2.5-3.7-5.4-7.2-8.4-10.8c-18.7-20.7-45.7-33.7-75.8-33.7c-30.2,0-57.1,13-75.8,33.7
		c-3,3.4-5.7,6.9-8.4,10.8c-11.3,16.4-17.7,36.1-17.7,57.5c0,18.2,4.9,35.4,13.3,50.2c7.8,13.8,18.9,25.6,32.2,34.6
		c13,8.6,28.1,14.5,44.3,16.4c4,0.3,7.9,0.7,12.1,0.7c4.2,0,8.3-0.3,12.3-0.7c16.4-1.9,31.5-7.8,44.3-16.4
		c13.1-8.8,24.1-20.6,32-34.4c8.6-14.8,13.3-32,13.3-50.2C461.6,469.3,455.1,449.6,443.9,433.2z"/>
	<path class="st59" d="M359.5,560.2c-5.2,0-9.6,2.5-9.6,5.4c0,0.2,0,0.3,0,0.5c0.5,2.7,4.6,4.9,9.4,4.9c4.9,0,9.1-2,9.4-4.9
		c0-0.2,0-0.3,0-0.5C369.3,562.7,364.9,560.2,359.5,560.2z"/>
	<path class="st60" d="M362.5,582.9c-20.1,0-39.1-1.9-56-5.4c12.3,7.6,26.3,12.5,41.1,14.3c4,0.3,7.9,0.7,12.1,0.7
		c4.2,0,8.3-0.3,12.3-0.7c13.8-1.7,27-6.1,38.4-12.8C395.6,581.6,379.4,582.9,362.5,582.9z"/>
	<path class="st58" d="M360.7,364.5l0.2-0.3c-71.1,0-128.8,57.5-128.8,128.6c0,38.9,17.4,73.7,44.5,97.3c2.7,2.5,4.7,4.7,4,7.8
		c-0.5,2,50.4-6.7,46-11.5c-1.7-2-3-3.7-3-6.2V456.5v-38.9l14.5-20.9h42.6l14.7,21.1v38.6v123.7c0,2.5-1.3,4.2-3,6.2
		c-4.4,4.9,46.5,13.7,46,11.5c-0.5-3,1.2-5.2,4-7.8c27.3-23.6,44.5-58.3,44.5-97.3C487.1,422.8,430.8,365.8,360.7,364.5z"/>
	<path class="st61" d="M426.8,380.8c0,37.8-30.7,68.4-68.4,68.4c-37.8,0-68.4-30.7-68.4-68.4c0-37.8,30.7-68.3,68.4-68.3
		C396.1,312.5,426.8,343.1,426.8,380.8z"/>
	<path class="st72" d="M323.1,388.4c0-3.2,2.7-5.9,5.9-5.9c3.2,0,5.9,2.7,5.9,5.9H323.1z"/>
	<path class="st72" d="M381.6,388.4c0-3.2,2.7-5.9,5.9-5.9c3.2,0,5.9,2.7,5.9,5.9H381.6z"/>
	<path class="st7" d="M375.5,421.4c-1.9,8.8-9.1,11.3-17.5,11.3c-8.4,0-15.5-2.9-17.5-11.3c0,0,8.1,1.9,17.5,1.9
		S375.5,421.4,375.5,421.4z"/>
	<path class="st73" d="M426.6,386.7c0,0-1.5,0.5-2.9,1.5c-1.3,1-2.5,3.9-2.5,3.9s-3.4,23.6-26.6,37.1c-5.1,0-6.4-9.8-16.9-16.4
		c-4.2-2.7-9.4-5.4-19.6-5.4c-10.3,0.2-15.3,2.7-19.6,5.4c-10.5,6.7-11.8,16.4-16.9,16.4c-23.3-13.5-26.6-37.1-26.6-37.1
		s-1.3-3-2.5-3.9c-1.3-1-2.7-1.5-2.7-1.5s-0.8,20.9,21.9,48.4c2.5,3,5.4,5.9,8.4,8.6c2,1.7,4,3.4,6.1,4.9c4.4,3.2,8.8,8.8,12.8,11
		c6.4,3.5,13,4.9,19,4.9c6.1,0,12.6-1.3,19-4.9c4-2.2,8.4-7.8,12.8-11c2-1.5,4.2-3.2,6.1-4.9c3-2.5,5.7-5.4,8.4-8.6
		C427.3,407.6,426.6,386.7,426.6,386.7z M377.9,433.2c-1.3,2.7-3.9,9.4-13,8.6c-5.4-0.5-2.9-5.9-2.9-5.9h-4.2h-4.2
		c0,0,2.7,5.4-2.9,5.9c-9.1,0.8-11.6-5.9-13-8.6c-1.5-3.2-1.7-12.3,4-15.7c3.5-2.2,6.2-3.2,15.8-3.2c9.6,0,12.5,1,15.8,3.2
		C379.6,420.9,379.4,430,377.9,433.2z"/>
	<path class="st74" d="M396.2,310.5c0,0,0.8,1.7,0.2,3c-2.5-3.2-9.9-7.4-13.8-7.9c1.5,1,1.7,3,1.7,3s-5.7-4.2-12.5-5.1
		c-0.3,4.2-11.5-0.7-25.1,1.9c-13.7,2.5-21.1,5.2-27.1,8.3c-9.6,4.9-12.8,16.9-4.9,20.4c5.1,2.2,25.6,5.7,38.9,5.7
		c13.3,0,36.1-4,42.5-6.6c1.7-0.7,6.4-3.9,6.4-3.9C405,326.2,406.5,315.1,396.2,310.5z"/>
	<path class="st74" d="M426.4,371.9c-1-23.3-8.3-40.1-25.8-52.1c-14.3-9.8-38.1-7.2-42.3-7.1h-0.2H358c-4.2,0-28-2.7-42.3,7.1
		c-17.5,12-24.8,28.8-25.8,52.1c-0.2,6.2-0.3,11.6,0.2,17l5.4,4.2c-1.2-5.4-0.5-11.8,0.3-18.9c1.9-15.3,8.3-26.8,14.3-32.4
		c4.6-4.4,8.9-7.1,21.4-8.9c4.7-0.7,12.1,3.2,25.8,3.5c0.2,0,0.5,0,0.7,0h0.2h0.2c0.2,0,0.5,0,0.7,0c13.7-0.3,21.1-4.2,25.8-3.5
		c12.6,1.9,16.9,4.6,21.4,8.9c6.1,5.7,12.5,17.2,14.3,32.4c0.8,7.1,1.5,13.5,0.3,18.9l5.6-4.2C426.9,383.5,426.8,378.1,426.4,371.9z
		"/>
	<path class="st17" d="M836.5,461.7h-191c-3.5,0-6.6,3-6.6,6.6v115v12.3c0,3.5,3,6.6,6.6,6.6h191c3.5,0,6.6-3,6.6-6.6v-12.3v-115
		C843.2,464.6,840.2,461.7,836.5,461.7z"/>
	<path class="st18" d="M741.1,549.4c9.7,0,17.5-7.9,17.5-17.5c0-9.7-7.8-17.5-17.5-17.5c-9.7,0-17.5,7.8-17.5,17.5
		C723.6,541.5,731.4,549.4,741.1,549.4z"/>
	<path class="st17" d="M455.2,461.7H264.1c-3.5,0-6.6,3-6.6,6.6v115v12.3c0,3.5,3,6.6,6.6,6.6h191c3.5,0,6.6-3,6.6-6.6v-12.3v-115
		C461.8,464.6,458.8,461.7,455.2,461.7z"/>
	<path class="st18" d="M359.5,549.4c9.7,0,17.5-7.9,17.5-17.5c0-9.7-7.8-17.5-17.5-17.5s-17.5,7.8-17.5,17.5
		C342,541.5,349.8,549.4,359.5,549.4z"/>
	<path class="st17" d="M1204.3,461.7h-191c-3.5,0-6.6,3-6.6,6.6v115v12.3c0,3.5,3,6.6,6.6,6.6h191c3.5,0,6.6-3,6.6-6.6v-12.3v-115
		C1210.9,464.6,1208,461.7,1204.3,461.7z"/>
	<path class="st18" d="M1108.7,549.4c9.7,0,17.5-7.9,17.5-17.5c0-9.7-7.8-17.5-17.5-17.5c-9.7,0-17.5,7.8-17.5,17.5
		C1091.2,541.5,1099,549.4,1108.7,549.4z"/>
	<path class="st7" d="M906.3,651.2h100.8l-54.9-89h-89.7L906.3,651.2z"/>
	<path class="st19" d="M945.7,669.1h105.2l-61.5-88.8h-90.5L945.7,669.1z"/>
	<path class="st7" d="M946.9,668.1h105l-61.3-89.2h-90.7L946.9,668.1z"/>
	
		<linearGradient id="SVGID_1_" gradientUnits="userSpaceOnUse" x1="572.182" y1="-2010.8373" x2="625.196" y2="-2010.8373" gradientTransform="matrix(1 0 0 -1 -47.5 -1463.4623)">
		<stop  offset="0" style="stop-color:#E6E6E6"/>
		<stop  offset="8.091480e-02" style="stop-color:#CFCFCF"/>
		<stop  offset="0.1882" style="stop-color:#B7B7B7"/>
		<stop  offset="0.3025" style="stop-color:#A6A6A6"/>
		<stop  offset="0.4275" style="stop-color:#9C9C9C"/>
		<stop  offset="0.5831" style="stop-color:#999999"/>
		<stop  offset="0.5968" style="stop-color:#A1A1A1"/>
		<stop  offset="0.648" style="stop-color:#BABABA"/>
		<stop  offset="0.7051" style="stop-color:#CECECE"/>
		<stop  offset="0.7709" style="stop-color:#DCDCDC"/>
		<stop  offset="0.8527" style="stop-color:#E4E4E4"/>
		<stop  offset="1" style="stop-color:#E6E6E6"/>
	</linearGradient>
	<path class="st20" d="M551.1,520.9c-14.7,0-26.5,11.8-26.5,26.5c0,14.7,11.8,26.5,26.5,26.5s26.5-11.8,26.5-26.5
		C577.6,532.7,565.8,520.9,551.1,520.9z M551.1,567.9c-12,0-20.6-8.6-20.6-20.6s8.6-20.6,20.6-20.6c12,0,20.6,8.6,20.6,20.6
		S563.3,567.9,551.1,567.9z"/>
	
		<linearGradient id="SVGID_2_" gradientUnits="userSpaceOnUse" x1="564.934" y1="-1980.5773" x2="610.669" y2="-1980.5773" gradientTransform="matrix(1 0 0 -1 -47.5 -1463.4623)">
		<stop  offset="7.525220e-02" style="stop-color:#E6E6E6"/>
		<stop  offset="0.1567" style="stop-color:#F2F2F2"/>
		<stop  offset="0.2872" style="stop-color:#FCFCFC"/>
		<stop  offset="0.4918" style="stop-color:#FCFCFC"/>
		<stop  offset="0.7633" style="stop-color:#F2F2F2"/>
		<stop  offset="1" style="stop-color:#E6E6E6"/>
	</linearGradient>
	<path class="st21" d="M517.4,512.3v12.3h45.7v-12.3c0,0-9.6-2.7-22.9-2.7C527.9,509.8,517.4,512.3,517.4,512.3z"/>
	
		<linearGradient id="SVGID_3_" gradientUnits="userSpaceOnUse" x1="564.934" y1="-1980.5773" x2="610.669" y2="-1980.5773" gradientTransform="matrix(1 0 0 -1 -47.5 -1463.4623)">
		<stop  offset="2.002730e-02" style="stop-color:#CACACA"/>
		<stop  offset="0.7003" style="stop-color:#565656;stop-opacity:0.43"/>
		<stop  offset="1" style="stop-color:#979797"/>
	</linearGradient>
	<path class="st22" d="M517.4,512.3v12.3h45.7v-12.3c0,0-9.6-2.7-22.9-2.7C527.9,509.8,517.4,512.3,517.4,512.3z"/>
	
		<linearGradient id="SVGID_4_" gradientUnits="userSpaceOnUse" x1="564.934" y1="-2012.3542" x2="610.669" y2="-2012.3542" gradientTransform="matrix(1 0 0 -1 -47.5 -1463.4623)">
		<stop  offset="0" style="stop-color:#E6E6E6"/>
		<stop  offset="0.1166" style="stop-color:#F2F2F2"/>
		<stop  offset="0.2872" style="stop-color:#FCFCFC"/>
		<stop  offset="0.5" style="stop-color:#FFFFFF"/>
		<stop  offset="0.7128" style="stop-color:#FCFCFC"/>
		<stop  offset="0.8834" style="stop-color:#F2F2F2"/>
		<stop  offset="1" style="stop-color:#E6E6E6"/>
	</linearGradient>
	<path class="st23" d="M517.4,512.3c0,0,8.6,2.5,22.9,2.5c13.5,0,22.9-2.5,22.9-2.5v69.3c0,0-7.1,3.9-22.9,3.9
		c-16.2,0-22.9-3.9-22.9-3.9V512.3z"/>
	<path class="st7" d="M530.2,506.9c-0.7,0-1.2,0-1.9,0c-1.9-12.1,2.5-24.1,0.8-36.1c0.2,0,0.2,0,0.3,0
		C531.9,482.8,527.9,494.8,530.2,506.9z"/>
	<path class="st7" d="M541.2,506.9c-0.7,0-1.2,0-1.9,0c-1.9-12.1,2.5-24.1,0.8-36.1c0.2,0,0.2,0,0.3,0
		C542.7,482.8,538.8,494.8,541.2,506.9z"/>
	<path class="st7" d="M552,506.9c-0.7,0-1.2,0-1.9,0c-1.9-12.1,2.5-24.1,0.8-36.1c0.2,0,0.2,0,0.3,0
		C553.7,482.8,549.6,494.8,552,506.9z"/>
	<path class="st79" d="M1244.7,582.6c0,0,17.2-3.9,45.5-3.9c30.8,0,46,3.9,46,3.9l-1.7,22.3c0,0-25.3,5.1-44.3,5.1
		c-22.9,0-43.8-5.1-43.8-5.1L1244.7,582.6z"/>
	<path class="st80" d="M1260.7,589.7c-7.8-45.2,15.5-83.6,3.4-174.1c23.3,33.4,18.7,167.1,8.4,178.4"/>
	<path class="st80" d="M1312.2,589.4c8.4-48.6-16.7-90.2-3.4-187.6c-24.9,35.9-20.2,179.9-9.1,191.8"/>
	<path class="st80" d="M1307.8,588.3c-2.5-20.6,49-88.5,28.5-140.1c24.6,34.9-20.6,129.8-16.2,145.5L1307.8,588.3z"/>
	<path class="st81" d="M1332.4,604.9h-83.9l19.4,68.1c0,0,11.3,3.2,22.2,3.2c11.5,0,22.9-3.2,22.9-3.2L1332.4,604.9z"/>
	<path class="st81" d="M1244.7,582.6c0,0,17.2,5.1,45.5,5.1c30.8,0,46-5.1,46-5.1l-1.7,22.3c0,0-25.3,5.1-44.3,5.1
		c-22.9,0-43.8-5.1-43.8-5.1L1244.7,582.6z"/>
	<path class="st27" d="M1248.6,605.4l1,3.5c0,0,20.4,3.5,40.6,3.5c21.4,0,41.1-3.5,41.1-3.5l1-3.5c0,0-22.8,3.9-42.1,3.9
		C1273,609.2,1248.6,605.4,1248.6,605.4z"/>
	<path class="st28" d="M64,632.2c-0.2,1,0.3,1.9,0.8,2.7c0.7,1.2,1.9,2,3.4,2.5l38.8,13.3c0,6.6,1.9,11.3,5.4,17.5
		c0.5,1,1.2,1.9,1.7,2.7c7.1,10.8,18.4,19,32,23.9c13.7,4.7,27.8,5.1,39.9,1c12.1-4,20.9-12.1,24.4-22.6c1.2-3.4,1.9-7.1,1.9-5.7
		c0,0,0,0,0-0.2c0,0,0,0,0-0.2c0,0,0,0,0-0.2c0,0,0,0,0-0.2c0,0,0,0,0-0.2c0,0,0,0,0-0.2c0,0,0,0,0-0.2c0,0,0,0,0-0.2c0,0,0,0,0-0.2
		c0,0,0,0,0-0.2c0,0,0,0,0-0.2c0,0,0,0,0-0.2c0,0,0,0,0-0.2c0,0,0,0,0-0.2c0,0,0,0,0-0.2c0,0,0,0,0-0.2c0,0,0,0,0-0.2c0,0,0,0,0-0.2
		c0,0,0,0,0-0.2c0,0,0,0,0-0.2c0,0,0,0,0-0.2c0,0,0,0,0-0.2c0,0,0,0,0-0.2c0,0,0,0,0-0.2c0,0,0,0,0-0.2c0,0,0,0,0-0.2c0,0,0,0,0-0.2
		c0,0,0,0,0-0.2c0,0,0,0,0-0.2c0,0,0,0,0-0.2c0,0,0,0,0-0.2c0,0,0,0,0-0.2c0,0,0,0,0-0.2c0,0,0,0,0-0.2c0,0,0,0,0-0.2c0,0,0,0,0-0.2
		c0,0,0,0,0-0.2c0,0,0,0,0-0.2c0,0,0,0,0-0.2c0,0,0,0,0-0.2c0,0,0,0,0-0.2c0,0,0,0,0-0.2c0,0,0,0,0-0.2c0,0,0,0,0-0.2c0,0,0,0,0-0.2
		c0,0,0,0,0-0.2c0,0,0,0,0-0.2c0,0,0,0,0-0.2c0,0,0,0,0-0.2c0,0,0,0,0-0.2c0,0,0,0,0-0.2c0,0,0,0,0-0.2c0,0,0,0,0-0.2c0,0,0,0,0-0.2
		c0,0,0,0,0-0.2c0,0,0,0,0-0.2c0,0,0,0,0-0.2c0,0,0,0,0-0.2c0,0,0,0,0-0.2c0,0,0,0,0-0.2c0,0,0,0,0-0.2c0,0,0,0,0-0.2c0,0,0,0,0-0.2
		c0,0,0,0,0-0.2c0,0,0,0,0-0.2c0,0,0,0,0-0.2c0,0,0,0,0-0.2c0,0,0,0,0-0.2c0,0,0,0,0-0.2c0,0,0,0,0-0.2c0,0,0,0,0-0.2c0,0,0,0,0-0.2
		c0,0,0,0,0-0.2c0,0,0,0,0-0.2c0,0,0,0,0-0.2c0,0,0,0,0-0.2c0,0,0,0,0-0.2c0,0,0,0,0-0.2c0,0,0,0,0-0.2c0,0,0,0,0-0.2c0,0,0,0,0-0.2
		c0,0,0,0,0-0.2c0,0,0,0,0-0.2c0,0,0,0,0-0.2c0,0,0,0,0-0.2c0,0,0,0,0-0.2c0,0,0,0,0-0.2c0,0,0,0,0-0.2c0,0,0,0,0-0.2c0,0,0,0,0-0.2
		c0,0,0,0,0-0.2c0,0,0,0,0-0.2c0,0,0,0,0-0.2c0,0,0,0,0-0.2c0,0,0,0,0-0.2c0,0,0,0,0-0.2c0,0,0,0,0-0.2c0,0,0,0,0-0.2
		c-0.2-0.3-0.2-0.3-0.2-0.3c0.2-7.6-2.4-15.3-7.1-22.6c-7.1-10.8-18.4-19.2-32-23.9c-15.2-5.2-26.3-3.7-38.3,1.3
		c-6.7,2.7-12.3,6.9-16.5,12.3l-41-14.8c-1.5-0.5-3-0.5-4.4-0.2c-1.3,0.3-2.4,1.3-2.5,2.5l-3.9,11.3c-0.2,0.3-0.2,0.7-0.2,1
		L64,632.2z"/>
	<path class="st82" d="M66.2,620c0-0.3,0-0.7,0.2-1l3.9-11.3c0.3-1.2,1.2-2,2.5-2.5c1.3-0.5,2.9-0.3,4.4,0.2l39.3,14
		c4-5.4,9.8-9.4,16.5-12.3c12.1-4.9,27.6-5.2,42.6,0c13.7,4.7,24.9,13.1,32,23.9c4.9,7.2,7.2,15.2,7.1,22.6c0,0,0,0.2,0.2,0.3
		l-0.7,13.1c0,0.7-0.3,2.4-0.8,3.5c-3.5,10.5-12.6,17.4-24.8,21.4c-12.3,4-26.3,3.7-39.9-1c-13.7-4.9-24.9-13.1-32-23.9
		c-0.5-1-1.2-1.9-1.7-2.7c-3.5-6.2-5.4-11-5.4-17.5l-39.3-14c-1.5-0.5-2.7-1.5-3.4-2.5c-0.5-1-1-1.9-0.8-2.7L66.2,620z"/>
	<path class="st83" d="M133,607.2c-6.7,2.7-12.3,6.9-16.5,12.3l-39.3-14c-1.5-0.5-3-0.5-4.4-0.2c-1.3,0.3-2.4,1.3-2.5,2.5l-3.9,11.3
		c-0.3,1.2-0.2,2.5,0.5,3.5c0.7,1.2,1.9,2,3.4,2.5l39.3,14c0,6.6,1.9,13.1,5.6,19.7L133,607.2z"/>
	<path class="st84" d="M116.8,661.7c7.1,10.8,18.4,19,32,23.9c13.7,4.7,27.8,5.1,39.9,1c12.3-4,20.9-12.1,24.4-22.6
		c3.5-10.5,1.7-22.1-5.4-32.9c-7.1-10.8-18.4-19.2-32-23.9c-15.2-5.2-30.8-5.1-43-0.2l-17.9,51.6
		C115.4,659.5,116.3,660.8,116.8,661.7z"/>
	<path class="st7" d="M184.4,666.4c7.3,0,13.1-5.9,13.1-13.1c0-7.3-5.9-13.1-13.1-13.1c-7.3,0-13.1,5.9-13.1,13.1
		C171.2,660.5,177.1,666.4,184.4,666.4z"/>
	<path class="st31" d="M174.1,651.2c0-2.7,1-5.2,2.5-7.2c-2.5,2.2-4.4,5.6-4.4,9.3c0,6.7,5.6,12.1,12.1,12.1c4,0,7.6-1.9,9.8-4.9
		c-2,1.9-4.9,2.9-7.8,2.9C179.5,663.4,174.1,657.8,174.1,651.2z"/>
	<path class="st85" d="M419.8,524.8c-1.2,0-2.5-0.3-3.9-0.8c-2.4-1-3.9-2-4.7-3.4c-1.5-0.8-2.4-1.9-2.9-2.7c-0.3,0.2-0.5,0.5-1,0.7
		c-0.8,0.5-1.9,0.7-3,0.7s-2.4-0.3-3.7-0.8c-3.2-1-4.6-2.7-5.2-3.9c-2-1.3-2.7-3-2.9-4.2v-0.2v-0.7c0-0.5,0-1,0-1.3l-0.8,1.7
		c-0.3,0.8-1,1.7-1.9,2c-0.5,0.3-1.2,0.5-2,0.5c-0.7,0-1.3-0.2-2.2-0.5c-1-0.5-2.4-1.2-3-2.5c-0.8-1.3-0.3-2.7,0-3.4l0.2-0.3
		c0.3-0.8,5.2-14.2,5.9-16c0-0.3,0.2-0.7,0.3-1c0.5-1,1.3-3.4,3.9-4.9c1.3-0.8,3.2-1.3,5.2-1.3c0.8,0,1.9,0,2.9,0.2
		c0.8-0.3,2.7-1,4.2-1c0.5,0,1.2,0,1.5,0.2c0.8,0.3,1.5,0.7,2,1.2c0.3,0,0.8,0,1.2,0.2c2,0.5,3.5,1.7,4.4,3.7l7.1,2.5
		c2.7,1.2,4.9,2.5,6.6,4.2c0.8,1,1.5,1.9,2,3l2.2,0.8c0.8-0.3,1.7-0.5,2.5-0.5c0.5,0,1,0,1.5,0.2h0.2h0.2c1.2,0.7,1.7,1.5,1.7,2.2
		c0,0.2,0,0.3,0,0.5c0.3,0.5,0.7,1,0.8,1.7c0,0.7-0.2,1.2-0.5,1.7c-0.3,0.7-1,1.2-1.9,1.3l-0.2,0.2c-0.5,0.5-1.2,0.8-2,0.8
		c-0.8,0-1.5-0.3-1.9-0.5c-0.5-0.2-1-0.5-1.3-0.8c-0.3,2.2-1.3,4.6-2.7,6.4l-3.9,10.8c-0.2,0.8-1,2.2-2.4,2.9
		C421.7,524.6,420.7,524.8,419.8,524.8z"/>
	<path class="st7" d="M405.3,483.5c0.3,0,0.7,0,1,0.2c1.2,0.3,1.7,1,1.9,1.3c0.3,0,0.7-0.2,0.8-0.2c0.2,0,0.5,0,0.7,0.2
		c1.2,0.3,2.7,1,3.4,3.4l7.9,2.7c2.4,1,4.2,2.2,5.7,3.7c0.8,1,1.5,2,2,3.2l3.7,1.3c0.5-0.2,1.5-0.7,2.5-0.7c0.3,0,0.5,0,0.8,0.2
		c0.5,0.3,0.7,0.5,0.7,0.8c0.2,0.3,0,0.5-0.2,0.8c0.5,0.3,1.3,1,0.8,1.3c-0.2,0.5-0.8,0.7-1.2,0.7c-0.2,0-0.3,0-0.3,0
		c0.2,0.2,0,0.3-0.2,0.7c-0.2,0.2-0.3,0.2-0.7,0.2s-0.7-0.2-0.8-0.2c-1.3-0.5-1.9-1.9-1.9-2.4l-2.4-0.8c0.7,3.5-0.3,7.1-2.7,9.6
		c0,0.2,0,0.2,0,0.3l-3.9,10.6c0,0.2-0.3,1.2-1.3,1.7c-0.5,0.2-1.2,0.3-2,0.3c-0.8,0-2-0.2-3.2-0.7c-2-0.8-3.5-1.9-4-3
		c-2-1-2.7-2.2-2.9-3.2c-0.2-1,0.2-1.7,0.2-1.9l1.2-3.5c-0.5-0.3-1.2-0.5-1.3-0.7l-1.9,4.9c0,0.2-0.3,1.2-1.5,1.9
		c-0.5,0.3-1.2,0.5-2,0.5c-0.8,0-1.9-0.2-3-0.7c-2.2-0.7-3.5-1.9-4.2-3c0-0.2-0.2-0.3-0.2-0.3c-1.9-1-2.4-2.2-2.5-3.2
		c0-0.3,0-0.3,0-0.7c-0.2-1,0.3-1.7,0.3-1.9l2.7-7.2c-0.5-0.2-1-0.3-1.5-0.3c-0.2,0-0.3,0-0.5,0c-0.8,0.2-1.5,0.8-2,1.9l-3.4,7.1
		c0,0.2-0.3,0.7-0.8,1c-0.3,0.2-0.7,0.3-1.2,0.3c-0.5,0-0.8-0.2-1.5-0.3c-1-0.3-1.7-1-1.9-1.5c-0.3-0.7-0.2-1.3,0.2-1.9v0.2
		c0.3-1,6.1-16.4,6.1-16.5c0-0.2,0-0.3,0.2-0.3c0.3-1,1.2-2.9,3.2-4.2c1.2-0.7,2.5-1,4.2-1c1,0,2,0.2,3,0.3
		C401.8,484.3,403.8,483.5,405.3,483.5z M405.3,479.4c-1.7,0-3.4,0.5-4.5,1c-0.8-0.2-1.7-0.2-2.5-0.2c-2.4,0-4.6,0.5-6.2,1.5
		c-2.9,1.7-4,4.4-4.6,5.6c-0.2,0.3-0.3,0.8-0.5,1.3c-0.8,2.4-5.4,14.8-5.9,15.8l-0.3,0.7v0.2c-0.7,2-0.2,3.5,0.3,4.7
		c0.7,1.3,2,2.5,3.9,3.2h0.2c1,0.3,2,0.5,2.9,0.5c1.2,0,2.2-0.3,3-0.8c0.2,0,0.3-0.2,0.5-0.3c0.5,1,1.3,1.9,2.4,2.7
		c0.8,1.5,2.7,3.4,6.1,4.6c1.5,0.5,2.9,0.8,4.2,0.8c1.2,0,2.4-0.2,3.4-0.7c0.5,0.5,1.2,1.2,2,1.5c1.2,1.5,2.9,2.7,5.4,3.7
		c1.7,0.7,3.2,0.8,4.6,0.8c1.3,0,2.5-0.2,3.5-0.7c1.9-1,3-2.7,3.4-4l3.7-10.3c1-1.3,1.7-2.9,2.2-4.4c0.5,0.2,1.2,0.3,1.9,0.3
		c1.3,0,2.5-0.5,3.4-1.3c1-0.3,1.7-1,2.4-2c0.7-0.8,1-1.9,0.8-3c-0.2-1-0.5-1.7-1-2.4c0,0,0,0,0-0.2c-0.2-1-0.8-2.5-2.7-3.4
		l-0.2-0.2l-0.3-0.2c-0.7-0.2-1.3-0.3-2-0.3c-0.8,0-1.7,0.2-2.5,0.3l-1-0.3c-0.5-1-1.2-1.9-1.9-2.5l-0.2-0.2l-0.2-0.2
		c-1.9-1.9-4.2-3.4-7.1-4.6h-0.2h-0.2l-6.2-2.2c-1.2-2-2.9-3.4-5.2-4c-0.3-0.2-0.7-0.2-0.8-0.2c-0.5-0.5-1.3-0.8-2-1
		C406.9,479.6,406.2,479.4,405.3,479.4z"/>
	<path class="st86" d="M435.5,502.4l-0.3,1l-0.7,0.2l-0.8-0.5l-0.7-0.5l-0.5-0.8l0.2-0.2v-0.2l0.7,0.2l1.3,0.7L435.5,502.4z"/>
	<path class="st86" d="M435.2,500.5l-2.4-0.5l-0.5,0.3l0.2,0.5l1.7,0.8l1.9,0.7h0.5l0.3-0.3l0.2-0.5l-0.5-0.3l-0.5-0.3L435.2,500.5z
		"/>
	<path class="st86" d="M435.9,499.3H434l-0.2,0.5l1,0.3l0.8,0.3h0.3l0.2-0.5L435.9,499.3z"/>
	<path class="st86" d="M395.1,510.8c0,0-1-0.3-0.3-2c0.8-1.5,1.7-2.2,2-2c0.3,0.2,0.3,1.5,0.3,1.5
		C396.2,508.1,395.1,510.1,395.1,510.8z"/>
	<path class="st86" d="M395.9,511.6c0,0-0.8-0.3-0.3-1.5c0.7-1.2,1.3-1.9,1.5-1.7c0.2,0,0.3,0.5,0.2,2.4
		C396.6,512,395.9,511.6,395.9,511.6z"/>
	<path class="st87" d="M395.1,511.1c-0.2-0.2-1.2-0.7-0.3-2.5c0.8-1.5,1.9-2.5,2.4-2.4c0.3,0.2,0.3,1.3,0.3,1.9v0.2h-0.2
		c-0.3,0-0.5,0.2-0.8,0.3c-0.7,0.7-1.2,1.9-1.2,2.2L395.1,511.1z M394.9,508.8c-0.3,1.2-0.2,1.7,0,1.9c0.2-0.7,0.7-1.7,1.2-2.2
		c0.3-0.3,0.7-0.5,1-0.5c0-0.7,0-1.3-0.2-1.3C396.6,506.4,395.7,507.1,394.9,508.8z"/>
	<path class="st87" d="M395.9,511.8c0,0-0.3-0.2-0.5-0.5c-0.2-0.3-0.2-0.8,0-1.2c0.7-1.3,1.5-1.9,1.9-1.9c0.2,0,0.5,0.3,0.2,2.7
		C396.8,512.3,395.9,511.8,395.9,511.8z M395.6,510.1c-0.2,0.3-0.2,0.8-0.2,1.2c0.2,0.3,0.3,0.3,0.3,0.3v0.2v-0.2
		c0,0,0.7,0.3,1.2-0.8c0.3-1.9,0.2-2.4,0-2.4C396.9,508.4,396.2,508.9,395.6,510.1z"/>
	<path class="st86" d="M395.9,512c0,0,0.8-0.2,1.2-0.7c-0.3,0.8-0.3,1.3-0.3,1.3S396.2,512.3,395.9,512z"/>
	<path class="st86" d="M398.1,514.2c0,0-1.3-0.7-0.5-2.4c1.2-1.5,2-1.9,2.4-1.5C398.8,511.6,397.6,513.2,398.1,514.2z"/>
	<path class="st86" d="M399.8,515.5c0,0-1.2,0-1.5-1.2c0-0.3,0-0.7,0.2-1.2c0.5-2,2.7-3.9,3.2-3c0.3,0.8,0.3,1.2,0.3,1.7
		C401.1,512,399.1,513.3,399.8,515.5z"/>
	<path class="st86" d="M400.3,515.9c0,0-1.2-0.5-0.3-2c1-1.5,1.9-1.9,1.9-1.7c0,0.2,0.5,0.5,0.2,2.5
		C401.6,516.2,400.3,515.9,400.3,515.9z"/>
	<path class="st87" d="M398.3,514.7l-0.3-0.2c0,0-0.5-0.3-0.8-1c-0.2-0.3-0.2-1,0.2-1.7c1-1.5,2-1.9,2.7-1.9h0.2l0.2,0.2l-0.2,0.2
		c-1.5,1.5-2.2,3-1.9,4V514.7z M397.4,512c-0.3,0.5-0.3,1-0.2,1.3c0.2,0.3,0.3,0.5,0.3,0.7c-0.2-1.3,1.2-2.9,1.9-3.7
		C399.3,510.1,398.4,510.5,397.4,512z"/>
	<path class="st87" d="M398.9,515.7c-0.5-0.2-1.3-0.7-1.2-2.5c0.3-1.5,1.7-3,2.7-3.5c0.3-0.2,0.5-0.2,0.7-0.2c0.2,0,0.3,0.2,0.3,0.3
		c0.3,0.8,0.3,1.2,0.3,1.5c0,0.2,0,0.2,0,0.3v0.2h-0.2c-0.7,0.3-2.7,1.9-2,3.7v0.2h-0.2C399.8,515.9,399.4,515.9,398.9,515.7z
		 M398.3,513.3c-0.3,1.3,0.3,1.9,0.8,2.2c0.2,0,0.3,0.2,0.3,0.2c-0.3-1.9,1.3-3.5,2.2-3.9v-0.2c0-0.3,0-0.7-0.3-1.3
		c0-0.2-0.2-0.2-0.2-0.2c-0.2,0-0.3,0-0.5,0.2C399.8,510.5,398.8,511.8,398.3,513.3z"/>
	<path class="st87" d="M400.3,516.2c0,0-0.3-0.3-0.7-0.8c-0.2-0.3-0.2-1,0.3-1.5c1-1.7,1.9-1.9,2.2-1.9c0.3,0.2,0.7,0.8,0.3,2.7
		c-0.2,0.7-0.3,1.2-0.8,1.3C400.8,516.2,400.3,516.2,400.3,516.2z M400.1,513.8c-0.3,0.5-0.3,1-0.3,1.3c0.2,0.3,0.3,0.5,0.5,0.7
		c0,0,0.3,0.2,0.8-0.2c0.3-0.2,0.5-0.5,0.7-1.2c0.3-1.9,0-2.5-0.2-2.5C401.8,512.1,401.1,512.3,400.1,513.8z"/>
	<path class="st88" d="M410.4,516.5c0,0-1-0.3-0.3-2c0.8-1.5,1.7-2.2,2-2c0.3,0.2,0.3,1.5,0.3,1.5
		C411.4,513.7,410.2,515.9,410.4,516.5z"/>
	<path class="st87" d="M410.4,516.9c-0.2-0.2-1.2-0.7-0.3-2.5c0.8-1.5,1.9-2.5,2.4-2.4c0.3,0.2,0.3,1.3,0.3,1.9v0.2h-0.2
		c-0.3,0-0.5,0.2-0.8,0.3c-0.7,0.7-1.2,1.9-1.2,2.2L410.4,516.9z M410.1,514.5c-0.3,1.2-0.2,1.7,0,1.9c0.2-0.7,0.7-1.7,1.2-2.2
		c0.3-0.3,0.7-0.5,1-0.5c0-0.7,0-1.3-0.2-1.3C411.9,512.1,410.9,512.8,410.1,514.5z"/>
	<path class="st88" d="M411.1,517.5c0,0-1-0.3-0.3-1.7c0.7-1.3,1.5-1.9,1.7-1.9c0.2,0.2,0.3,0.7,0.2,2.7
		C411.9,517.9,411.1,517.5,411.1,517.5z"/>
	<path class="st87" d="M411.1,517.7c0,0-0.3-0.2-0.5-0.5c-0.2-0.3-0.2-0.8,0.2-1.3c0.7-1.3,1.5-2,1.9-1.9c0.2,0,0.7,0.3,0.2,2.7
		C412.1,517.9,411.1,517.7,411.1,517.7z M410.7,515.9c-0.2,0.3-0.2,0.8-0.2,1.2c0.2,0.3,0.3,0.3,0.3,0.3v0.2v-0.2
		c0,0,0.8,0.3,1.2-0.8c0.3-2,0-2.5,0-2.5S411.4,514.7,410.7,515.9z"/>
	<path class="st88" d="M410.9,517.7c0,0,1.2,0,1.5-0.8c-0.3,1.2-0.2,1.7-0.2,1.7S411.4,518,410.9,517.7z"/>
	<path class="st86" d="M413.4,519.6c0,0-1.3-0.7-0.5-2.4c1-1.5,1.9-1.9,2.4-1.7C413.9,517,412.9,518.5,413.4,519.6z"/>
	<path class="st87" d="M413.8,520.1l-0.3-0.2c0,0-0.7-0.3-0.8-1c-0.2-0.3-0.2-1,0.2-1.7c1-1.7,1.9-2,2.5-1.9c0,0,0,0,0.2,0l0.2,0.2
		l-0.2,0.3C414.1,517.5,413.4,519.1,413.8,520.1z M412.9,517.7c-0.3,0.5-0.3,1-0.2,1.3c0.2,0.3,0.3,0.5,0.5,0.7
		c-0.3-1.2,0.8-2.9,1.7-3.9C414.4,515.7,413.8,516.2,412.9,517.7z"/>
	<path class="st86" d="M415.1,520.9c0,0-1.9,0-1.3-2.2c0.5-2,2.7-3.9,3.2-3c0.3,0.8,0.3,1.2,0.3,1.7
		C416.5,517.5,414.4,518.9,415.1,520.9z"/>
	<path class="st87" d="M414.4,520.9c-0.3-0.2-1.2-0.7-1-2.4c0.3-1.5,1.7-2.7,2.5-3.2c0.3-0.2,0.5-0.2,0.7-0.2c0.2,0,0.3,0.2,0.3,0.3
		c0.3,0.7,0.3,1.2,0.3,1.3c0,0.2,0,0.2,0,0.3v0.2h-0.2c-0.7,0.3-2.5,1.7-1.9,3.5v0.2h-0.2C415.1,520.9,414.8,520.9,414.4,520.9z
		 M413.8,518.5c-0.3,1.3,0.3,1.9,0.8,2c0.2,0,0.3,0,0.3,0.2c-0.3-1.9,1.3-3.2,2-3.5V517c0-0.3,0-0.7-0.3-1.3c0-0.2,0-0.2-0.2-0.2
		c-0.2,0-0.3,0-0.5,0.2C415.3,516,414.1,517.2,413.8,518.5z"/>
	<path class="st86" d="M415.8,521.2c0,0-1.2-0.5-0.3-2c0.8-1.5,1.7-1.9,1.9-1.9c0.2,0,0.5,0.5,0.3,2.5
		C417.1,521.8,415.8,521.2,415.8,521.2z"/>
	<path class="st87" d="M415.8,521.6c0,0-0.3-0.3-0.7-0.7c-0.2-0.3-0.2-1,0.2-1.5c1-1.7,1.9-2,2-1.9c0.3,0.2,0.7,0.8,0.3,2.7
		c-0.2,0.7-0.3,1.2-0.8,1.3C416.3,521.8,415.8,521.6,415.8,521.6z M415.5,519.4c-0.3,0.5-0.3,1-0.2,1.3c0.2,0.3,0.3,0.5,0.5,0.5
		c0,0,0.3,0.2,0.8-0.2c0.3-0.2,0.5-0.5,0.7-1.2c0.3-1.9,0-2.5-0.2-2.5C417.1,517.4,416.3,517.7,415.5,519.4z"/>
	<path class="st87" d="M397.4,500.3c-0.2,0-0.2-0.2-0.2-0.3c0-0.2,0.2-0.3,0.3-0.3c0,0,0.7,0,1.5-0.3c1.2-0.5,2-1.9,2.7-3.4
		c0-0.2,0.2-0.2,0.3-0.2s0.2,0.2,0.2,0.3c-0.8,2.2-2,3.2-2.9,3.5C398.3,500.3,397.6,500.3,397.4,500.3z"/>
	<path class="st87" d="M401.8,496.3c-0.7-0.3-1.2-1.2-1.2-1.2c0-0.2,0-0.3,0.2-0.3c0.2,0,0.3,0,0.3,0.2c0,0,0.3,0.7,0.8,0.8
		c0.3,0.2,0.8,0,1.2-0.3c0.2-0.2,0.3-0.2,0.3,0c0.2,0.2,0.2,0.3,0,0.3C403,496.3,402.5,496.5,401.8,496.3
		C402,496.3,401.8,496.3,401.8,496.3z"/>
	<path class="st87" d="M399.8,489c0,0,0.2,0.2,0.3,0c0.2-0.2-0.2-0.3-0.2-0.3s-2.4-1.9-4.6-0.7c-0.3,0.3,0,0.7,0,0.7s0.2,0.3,0.5,0
		C396.6,488.4,398.3,487.9,399.8,489z"/>
	<path class="st87" d="M397.4,491.1c0,0,1.9-0.2,1.7,1.3c-0.2,1.7-3.4,1.7-3.2,0c-0.7-1.7,1.3-2.7,3.2-2
		C399.1,490.7,397.4,491.1,397.4,491.1z"/>
	<path class="st89" d="M398.8,492.9c-0.2,0.5-0.8,0.8-1.5,0.7c-0.7-0.2-1.2-0.5-1-1.3c0.3-0.8,1.2-1.2,1.9-0.8
		C398.6,491.6,399.1,492.2,398.8,492.9z"/>
	<path class="st37" d="M398.8,492.9c-0.2,0.5-0.8,0.8-1.5,0.5c-0.5-0.3-1-0.7-0.8-1.2c0.2-0.5,1-1,1.5-0.8
		C398.6,491.7,398.9,492.2,398.8,492.9z"/>
	<path class="st87" d="M398.6,493.1c0,0,0.3-1-0.3-1.2c-0.5-0.3-0.8,0.2-0.8,0.2l0.3,0.3l-0.5,0.2c0,0,0.2,1,1,0.8
		C398.4,493.3,398.6,493.1,398.6,493.1z"/>
	<path class="st37" d="M398.3,492.9c0.2,0,0.3-0.2,0.3-0.3c0-0.2-0.2-0.3-0.3-0.3c-0.2,0-0.3,0.2-0.3,0.3
		C397.9,492.8,398.1,492.9,398.3,492.9z"/>
	
		<linearGradient id="SVGID_5_" gradientUnits="userSpaceOnUse" x1="459.758" y1="-1959.5892" x2="476.525" y2="-1959.5892" gradientTransform="matrix(1 0 0 -1 -47.5 -1463.4623)">
		<stop  offset="0" style="stop-color:#B1BEDD"/>
		<stop  offset="1" style="stop-color:#3F60AC"/>
	</linearGradient>
	<path class="st38" d="M412.3,489.6v1.7l6.4,2c6.1,1.9,9.6,5.6,10.5,9.9c0.3-3.9-2.5-8.9-8.1-11l-8.4-3.2L412.3,489.6z"/>
	<path class="st7" d="M406,499.7l-1.2,1.9c0,0-0.5,1,0.3,1.2c0.8,0.3,1.2,0.3,1.2,0.3s0.7,0.3,1.2-0.5l0.7-1.2l1.2,0.3
		c0,0,1.9,1,3.9-0.3c-0.7,0.8-0.7,1.5,0.2,1.9c0.8,0.3,1,0.3,1,0.3s0.8,0.3,1.3-0.8l1.9-2.9l1.2,0.3c0,0,0.3,0.2,0,0.3l-1.5,2.5
		c0,0-0.7,1,0.3,1.3c1,0.3,1.2,0.3,1.2,0.3s0.3,0.3,0.7,0l-0.7,1.2c0,0-0.7,0.8,0.3,1.2l1.2,0.3c0,0,0.7,0.3,1.2-0.7l0.5-1l0.8,0.3
		c3.5,1.3,5.2-0.8,5.7-2.2c0,0,1.2-2.5-2.2-3.7l-2.5-1c0,0-0.8-0.3-1.3,0.3l-0.3,0.7c0,0,0.7-1.5-2-2.7l-0.8-0.3l0.5-1
		c0,0,0.7-0.8-0.3-1.2c-1-0.3-1-0.3-1-0.3s-0.7-0.3-1.2,0.3c-0.3,0.8-1.7,2.7-1.7,2.7s0.5-1.9-2.7-2.9c-1.3,0.5-1.2,1.9-1.2,1.9
		l0.5,0.3c0,0,0.8,0.3,0.3,1c-0.3,0.7-0.7,1.2-2.5,0.5l0.2-0.3C409.4,499.2,406.5,499.2,406,499.7z"/>
	<path class="st87" d="M405.5,502.4l1,0.3c0,0,0.3,0.2,0.5-0.3c0.3-0.3,0.7-1.2,0.7-1.2s0.2-0.3,0.5-0.2c1.2,0.3,3.7,1.7,5.6-0.8
		c0.3-0.7,1.9-2.7-1.9-3.9c-0.8,0.3-0.7,1-0.7,1s1.9,0.5,1.2,1.9c-0.8,1.2-1.3,1.5-2.4,1.2c-1-0.3-1.7-0.3-1.2-1
		c-1.3,0-1.9,0.2-1.9,0.2l-1.2,2C405.3,501.7,405,502.4,405.5,502.4z"/>
	<path class="st87" d="M416.8,496.6c0,0,0.2-0.5,0.5-0.3c0.3,0.2,1.2,0.3,1.2,0.3s0.3,0.2-0.2,0.7c-0.5,0.5-0.5,0.8-0.5,0.8
		s-0.3,0.3,0.2,0.5c0.3,0.2,1.2,0.3,1.2,0.3c1.3,0.5,2,1.2,1.2,2.7l-1.7,2.7c0,0-0.2,0.3-0.5,0.3c-0.3-0.2-1-0.3-1-0.3
		s-0.3-0.2-0.2-0.3c0.2-0.2,1.7-2.7,1.7-2.7s0.7-0.8-0.3-1.2c-1-0.3-1-0.3-1-0.3s-0.5-0.3-0.8,0.3l-1.9,3c0,0-0.2,0.3-0.7,0.3
		c-0.5-0.2-0.8-0.3-0.8-0.3s-0.3-0.2-0.2-0.5L416.8,496.6z"/>
	<path class="st87" d="M422.9,500.5c0,0-0.3-0.3-0.7,0.3l-3.5,5.9c0,0-0.3,0.3,0,0.5c0.3,0.2,1,0.3,1,0.3s0.3,0.2,0.5-0.3
		c0.2-0.3,0.7-1.2,0.7-1.2s0.2-0.3,0.7-0.3c0.5,0,1,0.3,1,0.3c2.2,0.8,4,0,4.9-1.9c0.7-1.9-0.8-2.9-1.7-3.2
		C424.6,501.2,422.9,500.5,422.9,500.5z"/>
	<path class="st7" d="M423.7,502.9l-1.2,1.9l0.5,0.2c1.5,0.7,2.7-1.3,1.5-1.7L423.7,502.9z"/>
	
		<linearGradient id="SVGID_6_" gradientUnits="userSpaceOnUse" x1="446.0872" y1="-1970.0164" x2="446.0872" y2="-1948.1448" gradientTransform="matrix(1 0 0 -1 -47.5 -1463.4623)">
		<stop  offset="0" style="stop-color:#B1BEDD"/>
		<stop  offset="1" style="stop-color:#728AC2"/>
	</linearGradient>
	<path class="st39" d="M385.6,506.6l6.2-15.8c1.2-2.5,3-5.9,9.9-4.2c-0.3,0.5,0.3,0.7,0.3,0.7c1.9-0.3,6.9-2.5,9.4,0
		c-0.8-1.9-3.2-2-3.2-2l-5.4,0.7l-0.3-0.3c-2.5-1-8.6-1.9-10.8,2.7C390,491.9,385.1,505.6,385.6,506.6z"/>
	<path class="st87" d="M437.5,502.2c0.3-0.8-0.5-1.3-1-1.7c0.2-0.3,0.3-0.5,0.2-0.8c0-0.3-0.2-0.5-0.7-0.8c-1.2-0.3-2.7,0.3-3.4,0.5
		l-3.7-1.3c-0.5-1.2-1.2-2.2-2-3.2c-1.5-1.5-3.5-2.7-5.7-3.7l-7.9-2.7c-0.7-2.4-2-3-3.4-3.4c-0.3-0.2-0.8-0.2-1.5,0
		c-0.2-0.3-0.7-1-1.9-1.3c-1.7-0.5-4.4,0.7-5.1,1c-2.9-0.5-5.4-0.3-7.2,0.7c-2,1.2-2.7,3.2-3.2,4.2c-0.2,0.2-0.2,0.3-0.2,0.3
		c0,0.2-5.7,15.5-6.1,16.5v0.2c-0.3,0.5-0.5,1.2-0.2,1.9c0.3,0.5,1,1.2,1.9,1.5c1.2,0.3,1.9,0.3,2.7,0c0.5-0.3,0.8-0.8,0.8-1
		l3.4-7.1c0.5-1.2,1.2-1.9,2-1.9c0.7-0.2,1.3,0,2,0.3l-2.7,7.2c0,0.2-0.3,1-0.3,2c0.2,1.2,0.5,2.5,2.5,3.5c0,0.2,0.2,0.3,0.2,0.3
		c0.5,1.2,1.9,2.4,4.2,3c2,0.8,3.9,0.8,5.1,0.2c1.2-0.7,1.5-1.9,1.5-1.9l1.9-4.9c0.3,0.2,0.8,0.3,1.3,0.7l-1.2,3.5
		c0,0.2-0.3,0.8-0.2,1.9c0.2,1,0.8,2.2,2.9,3.2c0.5,1.2,1.9,2.2,4,3c2.2,0.8,3.9,0.8,5.1,0.3s1.3-1.5,1.3-1.7l3.9-10.6
		c0-0.2,0-0.2,0-0.3c2.2-2.7,3.4-6.2,2.7-9.6l2.4,0.8c0.2,0.5,0.5,1.9,1.9,2.4c0.3,0.2,1.2,0.3,1.5,0c0.2-0.3,0.3-0.5,0.2-0.7
		C436.4,502.9,437.2,502.9,437.5,502.2z M435.9,499.8c0,0.2,0,0.3-0.2,0.3c-0.3-0.2-1.2-0.3-1.9-0.5c0.5-0.2,1.2-0.3,1.7,0
		C435.7,499.7,435.9,499.8,435.9,499.8z M406,484.5c0.7,0.3,1.2,0.5,1.2,0.7c-1,0.2-2,0.3-2.9,0.3c-0.7-0.3-1.3-0.3-1.9-0.5
		C403.7,484.5,405.2,484,406,484.5z M395.4,508.1l2.7-7.2c0.8,0.5,1.7,1.2,2.2,1.5c-0.8,2.2-3,8.3-3.2,8.8c-0.2,0.3-0.3,0.7-0.3,1.2
		C394.4,510.8,395.4,508.3,395.4,508.1z M410.6,514.7l1.2-3.5c0.7,0.3,1.5,0.3,2.5,0.7l-1.9,5.1c0,0.2-0.3,0.7-0.2,1.3
		C409.7,516.9,410.4,514.8,410.6,514.7z M426.1,509.8c-0.2,0.2-0.2,0.3,0,0.5l-3.9,10.5c0,0-0.2,0.8-1.2,1.2c-1,0.5-2.5,0.3-4.4-0.3
		c-1.9-0.7-3.2-1.7-3.7-2.7c-0.3-1-0.2-1.7-0.2-1.7l2.4-6.2c0.2-0.2,0-0.3-0.3-0.5c-0.3-0.2-0.3,0-0.5,0.3l-0.2,0.3
		c-2.7-0.5-4-1.3-4.6-1.7l0.2-0.5c0.2-0.2,0-0.3-0.3-0.5c-0.2-0.2-0.3,0-0.5,0.3l-2.4,6.2c0,0-0.2,1-1.2,1.5c-1,0.5-2.5,0.5-4.4-0.2
		c-1.9-0.7-3.2-1.7-3.7-2.7c-0.3-1-0.2-1.7,0-2c0.2-0.5,3.5-9.6,3.5-9.6l-0.7-0.3c0,0,0,0,0,0.2c-1.2-1.2-3.5-2.7-5.4-2.2
		c-1.2,0.3-1.9,1.2-2.7,2.4l-3.4,7.1c0,0,0,0,0,0.2c0,0-0.2,0.3-0.5,0.5c-0.3,0.3-1.2,0.2-1.9-0.2c-0.8-0.3-1.3-0.7-1.5-1.2
		c-0.2-0.3,0-1,0.2-1.3c0,0,0-0.2,0.2-0.2c0.3-1,5.7-15.8,5.9-16.5c0-0.2,0.2-0.3,0.2-0.3c0.7-1.9,2.4-5.9,9.6-4.4
		c0.5,0.2,1.2,0.3,1.9,0.5c-0.2,0.2-0.2,0.2-0.2,0.3s0.3,0.3,0.3,0.3c0.3,0,0.5-0.2,0.8-0.2c0.2,0,0.3,0,0.3-0.2
		c1.7-0.3,4-0.7,4.7-0.5c1.2,0.3,2.5,0.8,2.9,3.2c0.3,2.2-1,8.3-3.5,9.8c-1.2,0.3-1.9,0.3-2.7,0.3c-1.2-0.2-2.2-0.3-2.7,1.3
		c-0.2,0.2,0,0.3,0.3,0.5c0.2,0.2,0.3,0,0.5-0.3c0.3-1.2,0.8-1.2,1.9-1c0.8,0.2,1.9,0.3,3.2-0.3c1.9-1,2.9-3.5,3.4-5.1
		c0.5-1.9,0.8-3.9,0.7-5.1l7.4,2.7c4.2,1.7,7.2,4.4,8.1,8.1C429.6,503.4,428.6,507.1,426.1,509.8z M434.3,503
		c-0.7-0.3-1.2-0.8-1.3-1.3c0.2,0.2,0.3,0.2,0.5,0.3c0.5,0.3,1.2,0.5,1.3,0.7c0.2,0.2,0.2,0.3,0.2,0.5C435,503,434.8,503,434.3,503z
		 M435.5,502c-0.2,0-0.8-0.3-1.5-0.7c-0.8-0.3-1.2-0.7-1.3-0.8c1.2-0.2,2.7,0.3,3.4,0.7c0.3,0.3,1,0.5,0.8,0.8
		C436.7,502.2,436.2,502.2,435.5,502z"/>
	<path class="st92" d="M431.6,500c0,0-0.2,0.2-0.2,0.3v0.2l-2.2-0.8c0-0.2-0.2-0.3-0.2-0.3L431.6,500z"/>
	<path class="st7" d="M301.9,494.1l-20.6,14.3l12,29l22.2,5.2l16.5-16.2l-4.7-31L301.9,494.1z"/>
	<path class="st93" d="M325.3,498l-22.8-1.3l12,43.7l14.8-14.5L325.3,498z"/>
	<path class="st94" d="M284.2,509.6l10.4,26l19.7,4.7l-12-43.7L284.2,509.6z"/>
	<path class="st43" d="M314.5,518.4l-5.1,4.2l-6.1,1.7l-0.8,7.9l-5.2,1.5l5.4-35.4L314.5,518.4z M313.8,517l-8.1-8.8l-1.3,11.3
		l4.2-1.2L313.8,517z"/>
	<path class="st44" d="M302.9,498.3l2.9,10.1l7.6,8.8l-4.9,1.3l1.2,4.2l6.6-1.9l5.1,6.4l5.1-1.2L302.9,498.3z"/>
	<path class="st7" d="M439.6,552.9l3.4-0.7c0,0-4.2,9.6-4.5,10.5c-0.2,0.3-0.3,0.5-0.3,0.8c-0.2,0.8-0.2,2.5-0.2,2.5l-3,0.7
		c0,0,0.2-1.9-0.2-2.7c-0.2-0.8-0.8-1.5-1.2-2.2c-0.3-0.7-1.2-2.2-1.2-2.2l3-0.7l0.8,1.7L439.6,552.9z"/>
	<path class="st7" d="M433.7,556.1c0.7,0.3,1.5,2.2,1.5,2.2s-3.2,0.8-4.9,1.2c-0.3,0.2-1.5,0.3-1.5,0.3v8.3l-2.7,0.7
		c0,0-0.3-8.9-0.2-10.5c0-0.5,0.8-0.5,2-1c0.7-0.2,1.5-0.3,2-0.3C431.3,556.3,432.8,555.8,433.7,556.1z"/>
	<path class="st7" d="M423.9,560.2c0.7,1.2,0.7,4.2,0.7,4.2s-3.5,0.7-5.4,1.2c-0.5,0.2-1.3,0.3-1.3,0.5c-0.2,0.3,0.3,1,0.7,1.2
		c0.3,0.3,1.2,0.2,1.2,0.2c1.7-0.2,4.9-1.2,4.9-1.2v2.7c0,0-4.6,1.2-6.9,1.2c-0.3,0-1-0.2-1.2-0.3c-0.2,0-0.2-0.2-0.3-0.3
		c-0.2,0-0.3-0.3-0.3-0.3c-0.8-1.2-0.8-4.2-0.5-5.7c0-0.2,0-0.3,0.2-0.5c0-0.3,0.2-0.5,0.2-0.7c0-0.2,0.2-0.2,0.2-0.3
		c0-0.2,0.2-0.3,0.2-0.3c0.2-0.3,0.3-0.5,0.5-0.8c0.8-1,2.4-1.9,4.6-2.2c0.8-0.2,2-0.2,2.7,0.5C423.4,559.5,423.7,560,423.9,560.2z
		 M421.7,562.9c0,0,0-0.5-0.5-1c-0.3-0.3-0.8-0.3-1.7-0.3c-2.4,0.3-1.9,2.2-1.9,2.2L421.7,562.9z"/>
	<path class="st7" d="M410.7,561l2.7-0.7c0,0,0.2,7.4,0.2,11.1c-1.2,0.3-2,0.5-3,0.7c-2.2,0.5-4,1.2-5.1-0.2c-1.2-1.3-1-4-1-5.7
		c0-1.2,0-3.7,0-3.7l2.7-0.7c0,0,0.2,4,0.2,5.9c0,0.7,0,1.3,0.3,1.9c0.3,0.3,0.7,0.3,1.7,0.2c0.3,0,1.3-0.3,1.3-0.3V561z"/>
	<path class="st7" d="M402.1,564.2c0.8,2.2,0.2,4.9-0.2,7.2c0.8-0.2,1.5-0.3,1.7-0.3s0,2.7-0.2,2.7c-0.7,0.2-2.7,0.7-3.7,0.8
		c-2.9,0.7-5.7,1.5-7.4,0.3c-0.7-0.3-1.3-1.3-1.7-2c-0.3-1.2-0.5-2.5-0.5-3.7s0.2-2,0.3-3c0.7-2.5,2.5-4.6,6.2-5.1
		c0.7-0.2,1.9,0,2.5,0.3l0.3,0.2C400.6,562,401.6,563.2,402.1,564.2z M399.3,569.1c0-1.2,0.3-2.2,0-3.2c-0.3-1-1.2-1.7-1.9-1.7
		c-1.7-0.2-3,1-3.5,1.7c-0.5,1-0.5,1.9-0.5,3.4c0,1,0.2,2,0.7,2.7c1,1.2,2.9,0.3,5.1,0C399.3,571,399.3,570.1,399.3,569.1z"/>
	<path class="st7" d="M388.8,566.1c0,0.8,0,1.9,0,2.7c-1,0.3-1.9,0.3-3,0.7c0-1,0-1.9,0-2.7C387,566.4,387.6,566.3,388.8,566.1z"/>
	<path class="st7" d="M386,570.1c1-0.3,1.9-0.3,2.9-0.7c0.2,2.2,0.2,5.7,0,8.1c0,1.5,0,2.7-0.8,3.5c-0.2,0.2-0.2,0-0.2,0.2
		c-0.2,0.3-1,0.5-1.3,0.8c-0.7,0.3-1.7,0.3-2.5,0.5c0-1,0.2-2,0.2-2.9c2.4-0.3,1.9-2.4,1.9-4.6C385.8,574,386,570.8,386,570.1z"/>
	<path class="st7" d="M380.4,577c-0.5,2.4-2.2,4.2-4.9,4.7c-1.2,0.3-2.5,0.3-3.4,0.2c-1.9-0.3-3.5-1.3-4.7-2.7
		c-1.5-1.9-2.5-4.9-0.7-7.4l-0.2,0.5v0.3c-0.3,5.6,5.6,8.8,10.5,7.2C378.4,579.4,379.7,578.2,380.4,577z"/>
	<path class="st7" d="M379.2,570.6c-0.2,0.5-1,1.5-1.5,1.9c-1.9,0.8-3.4,0.3-4.2-0.7c-0.2-0.2-0.3-0.5-0.3-0.5c-0.3-0.8-0.7-2,0-2.9
		c-0.2,0.7,0,1.3,0.3,1.9c0.2,0.3,0.3,0.7,0.8,1c0.5,0.5,0.8,0.5,1.3,0.8c0.3,0.2,0.5,0.2,0.7,0.2
		C376.7,572,377.7,572.2,379.2,570.6z"/>
	<path class="st7" d="M376.9,575.7c1.2-0.3,2.4-1.2,3-2c-0.3,1.9-1.9,3.4-4.7,3.5c-2.2,0.2-4.9-1.5-5.6-3.5c-0.5-1.5-0.2-2.7,0.3-4
		c-0.2,0.7-0.2,1.2-0.2,1.5C370.6,574.5,374.2,576.4,376.9,575.7z"/>
	<path class="st45" d="M388.8,569.5c0.2,2.2,0.2,5.7,0,8.1c0,1.5,0,2.7-0.8,3.5c-0.2,0.2-0.2,0-0.2,0.2c-0.2,0.3-1,0.5-1.3,0.8
		c-0.7,0.3-1.7,0.3-2.5,0.5c0-1,0.2-2,0.2-2.9c2.4-0.3,1.9-2.4,1.9-4.6c0-1.2,0-4.7,0-5.1C387,570,387.8,569.8,388.8,569.5z"/>
	<path class="st45" d="M421.7,562.9l-4.2,1c0,0-0.3-1.9,1.9-2.2c0.8-0.2,1.2-0.2,1.7,0.3C421.7,562.4,421.7,562.9,421.7,562.9z"/>
	<path class="st45" d="M366.7,572.3l0.2-0.5c-1.9,2.7-1,5.7,0.7,7.4c1.2,1.2,2.7,2.4,4.7,2.7c0.8,0.2,2,0.3,3.4-0.2
		c2.7-0.7,4.2-2.4,4.9-4.6V577c-0.7,1.2-2,2-3.2,2.5C372.5,581.3,366.4,577.9,366.7,572.3z"/>
	<path class="st45" d="M435.2,558.3c0,0-3.2,0.8-4.9,1.2c-0.3,0.2-1.5,0.3-1.5,0.3v8.3l-2.7,0.7c0,0-0.3-8.9-0.2-10.5
		c0-0.5,0.8-0.5,2-1c0.7-0.2,1.5-0.3,2-0.3c1.3-0.3,2.9-0.8,3.5-0.5C434.3,556.3,435.2,558.3,435.2,558.3z"/>
	<path class="st45" d="M407,561.9c0,0,0.2,4,0.2,5.9c0,0.7,0,1.3,0.3,1.9c0.3,0.3,0.7,0.3,1.7,0.2c0.3,0,1.3-0.3,1.3-0.3l0.2-8.4
		l2.7-0.7c0,0,0.2,7.4,0.2,11.1c-1.2,0.3-2,0.5-3,0.7c-2.2,0.5-4,1.2-5.1-0.2c-1.2-1.3-1-4-1-5.7c0-1.2,0-3.7,0-3.7L407,561.9z"/>
	<path class="st45" d="M399.1,572c-2.2,0.3-4,1.2-5.1,0c-0.5-0.7-0.5-1.9-0.7-2.7c0-1.3,0-2.4,0.5-3.4c0.3-0.8,1.7-1.9,3.5-1.7
		c0.5,0,1.5,0.7,1.9,1.7c0.3,0.8,0.2,2,0,3.2C399.3,570.1,399.3,571,399.1,572z"/>
	<path class="st45" d="M388.8,566.1c0,0.8,0,1.9,0,2.7c-1,0.3-1.9,0.3-3,0.7c0-1,0-1.9,0-2.7C387,566.4,387.6,566.3,388.8,566.1z"/>
	<path class="st45" d="M424.4,564.6c0,0-3.5,0.7-5.4,1.2c-0.5,0.2-1.3,0.3-1.3,0.5c-0.2,0.3,0.3,1,0.7,1.2c0.3,0.3,1.2,0.2,1.2,0.2
		c1.7-0.2,4.9-1.2,4.9-1.2v2.7c0,0-4.6,1.2-6.9,1.2c-0.3,0-1-0.2-1.2-0.3c-0.2,0-0.2-0.2-0.3-0.3c-0.2,0-0.3-0.3-0.3-0.3
		c-0.8-1.2-0.8-4.2-0.5-5.7c0-0.2,0-0.3,0.2-0.5c0-0.3,0.2-0.5,0.2-0.7c0-0.2,0.2-0.2,0.2-0.3c0-0.2,0.2-0.3,0.2-0.3
		c0.2-0.3,0.3-0.5,0.5-0.8c0.8-1,2.4-1.9,4.6-2.2c0.8-0.2,2-0.2,2.7,0.5c0.2,0.2,0.3,0.5,0.5,0.8
		C424.4,561.5,424.4,564.6,424.4,564.6z"/>
	<path class="st45" d="M379.9,573.5c-0.5,1-1.9,1.9-3,2c-2.7,0.5-6.6-1.2-6.9-4.7c0-0.3,0-0.8,0.2-1.5c-0.7,1.3-1,2.5-0.3,4
		c0.7,2.2,3.4,3.9,5.6,3.5C378,577,379.7,575.5,379.9,573.5z"/>
	<path class="st45" d="M379.2,570.6c-1.3,1.5-2.5,1.3-3,1.3c-0.2,0-0.3,0-0.7-0.2c-0.5-0.2-0.8-0.3-1.3-0.8c-0.3-0.3-0.7-0.7-0.8-1
		c-0.3-0.3-0.3-1.2-0.3-1.9c-0.5,0.8-0.3,2.2,0,2.9c0,0.2,0.3,0.5,0.3,0.5c0.8,0.8,2.4,1.5,4.2,0.7
		C378.2,572.3,379.2,571.1,379.2,570.6z"/>
	<path class="st45" d="M442.8,552.3c0,0-4.2,9.6-4.6,10.5c-0.2,0.3-0.3,0.5-0.3,0.8c-0.2,0.8-0.2,2.5-0.2,2.5l-3,0.7
		c0,0,0.2-1.9-0.2-2.7c-0.2-0.8-0.8-1.5-1.2-2.2c-0.3-0.7-1.2-2.2-1.2-2.2l3-0.7l0.8,1.7l3.2-7.6L442.8,552.3z"/>
	<path class="st45" d="M402,571.5c0.8-0.2,1.5-0.3,1.7-0.3c0.2,0,0,2.7-0.2,2.7c-0.7,0.2-2.7,0.7-3.7,0.8c-2.9,0.7-5.7,1.5-7.4,0.3
		c-0.7-0.3-1.3-1.3-1.7-2c-0.3-1.2-0.5-2.5-0.5-3.7s0.2-2,0.3-3c0.7-2.5,2.5-4.6,6.2-5.1c0.7-0.2,1.9,0,2.5,0.3l0.3,0.2
		c1,0.3,2,1.5,2.5,2.7C403,566.4,402.3,569.1,402,571.5z"/>
	<path d="M439.6,552.9l3.4-0.7c0,0-4.2,9.6-4.5,10.5c-0.2,0.3-0.3,0.5-0.3,0.8c-0.2,0.8-0.2,2.5-0.2,2.5l-3,0.7c0,0,0.2-1.9-0.2-2.7
		c-0.2-0.8-0.8-1.5-1.2-2.2c-0.3-0.7-1.2-2.2-1.2-2.2l3-0.7l0.8,1.7L439.6,552.9z"/>
	<path d="M433.7,556.1c0.7,0.3,1.5,2.2,1.5,2.2s-3.2,0.8-4.9,1.2c-0.3,0.2-1.5,0.3-1.5,0.3v8.3l-2.7,0.7c0,0-0.3-8.9-0.2-10.5
		c0-0.5,0.8-0.5,2-1c0.7-0.2,1.5-0.3,2-0.3C431.3,556.3,432.8,555.8,433.7,556.1z"/>
	<path d="M423.9,560.2c0.7,1.2,0.7,4.2,0.7,4.2s-3.5,0.7-5.4,1.2c-0.5,0.2-1.3,0.3-1.3,0.5c-0.2,0.3,0.3,1,0.7,1.2
		c0.3,0.3,1.2,0.2,1.2,0.2c1.7-0.2,4.9-1.2,4.9-1.2v2.7c0,0-4.6,1.2-6.9,1.2c-0.3,0-1-0.2-1.2-0.3c-0.2,0-0.2-0.2-0.3-0.3
		c-0.2,0-0.3-0.3-0.3-0.3c-0.8-1.2-0.8-4.2-0.5-5.7c0-0.2,0-0.3,0.2-0.5c0-0.3,0.2-0.5,0.2-0.7c0-0.2,0.2-0.2,0.2-0.3
		c0-0.2,0.2-0.3,0.2-0.3c0.2-0.3,0.3-0.5,0.5-0.8c0.8-1,2.4-1.9,4.6-2.2c0.8-0.2,2-0.2,2.7,0.5C423.4,559.5,423.7,560,423.9,560.2z
		 M421.7,562.9c0,0,0-0.5-0.5-1c-0.3-0.3-0.8-0.3-1.7-0.3c-2.4,0.3-1.9,2.2-1.9,2.2L421.7,562.9z"/>
	<path d="M410.7,561l2.7-0.7c0,0,0.2,7.4,0.2,11.1c-1.2,0.3-2,0.5-3,0.7c-2.2,0.5-4,1.2-5.1-0.2c-1.2-1.3-1-4-1-5.7
		c0-1.2,0-3.7,0-3.7l2.7-0.7c0,0,0.2,4,0.2,5.9c0,0.7,0,1.3,0.3,1.9c0.3,0.3,0.7,0.3,1.7,0.2c0.3,0,1.3-0.3,1.3-0.3V561z"/>
	<path d="M402.1,564.2c0.8,2.2,0.2,4.9-0.2,7.2c0.8-0.2,1.5-0.3,1.7-0.3s0,2.7-0.2,2.7c-0.7,0.2-2.7,0.7-3.7,0.8
		c-2.9,0.7-5.7,1.5-7.4,0.3c-0.7-0.3-1.3-1.3-1.7-2c-0.3-1.2-0.5-2.5-0.5-3.7s0.2-2,0.3-3c0.7-2.5,2.5-4.6,6.2-5.1
		c0.7-0.2,1.9,0,2.5,0.3l0.3,0.2C400.6,562,401.6,563.2,402.1,564.2z M399.3,569.1c0-1.2,0.3-2.2,0-3.2c-0.3-1-1.2-1.7-1.9-1.7
		c-1.7-0.2-3,1-3.5,1.7c-0.5,1-0.5,1.9-0.5,3.4c0,1,0.2,2,0.7,2.7c1,1.2,2.9,0.3,5.1,0C399.3,571,399.3,570.1,399.3,569.1z"/>
	<path d="M388.8,566.1c0,0.8,0,1.9,0,2.7c-1,0.3-1.9,0.3-3,0.7c0-1,0-1.9,0-2.7C387,566.4,387.6,566.3,388.8,566.1z"/>
	<path d="M386,570.1c1-0.3,1.9-0.3,2.9-0.7c0.2,2.2,0.2,5.7,0,8.1c0,1.5,0,2.7-0.8,3.5c-0.2,0.2-0.2,0-0.2,0.2
		c-0.2,0.3-1,0.5-1.3,0.8c-0.7,0.3-1.7,0.3-2.5,0.5c0-1,0.2-2,0.2-2.9c2.4-0.3,1.9-2.4,1.9-4.6C385.8,574,386,570.8,386,570.1z"/>
	<path class="st95" d="M380.4,577c-0.5,2.4-2.2,4.2-4.9,4.7c-1.2,0.3-2.5,0.3-3.4,0.2c-1.9-0.3-3.5-1.3-4.7-2.7
		c-1.5-1.9-2.5-4.9-0.7-7.4l-0.2,0.5v0.3c-0.3,5.6,5.6,8.8,10.5,7.2C378.4,579.4,379.7,578.2,380.4,577z"/>
	<path class="st95" d="M379.2,570.6c-0.2,0.5-1,1.5-1.5,1.9c-1.9,0.8-3.4,0.3-4.2-0.7c-0.2-0.2-0.3-0.5-0.3-0.5
		c-0.3-0.8-0.7-2,0-2.9c-0.2,0.7,0,1.3,0.3,1.9c0.2,0.3,0.3,0.7,0.8,1c0.5,0.5,0.8,0.5,1.3,0.8c0.3,0.2,0.5,0.2,0.7,0.2
		C376.7,572,377.7,572.2,379.2,570.6z"/>
	<path class="st95" d="M376.9,575.7c1.2-0.3,2.4-1.2,3-2c-0.3,1.9-1.9,3.4-4.7,3.5c-2.2,0.2-4.9-1.5-5.6-3.5c-0.5-1.5-0.2-2.7,0.3-4
		c-0.2,0.7-0.2,1.2-0.2,1.5C370.6,574.5,374.2,576.4,376.9,575.7z"/>
	<path class="st7" d="M1098.3,472.7l-78.9,26.7l9.3,27.5l78.9-26.7L1098.3,472.7z"/>
	<path d="M1027.8,502.9l-0.2-0.5l8.1-2.7l0.2,0.5l-0.3,0.2c-0.8,0.3-1.3,0.5-1.7,0.8c-0.3,0.3-0.3,0.5-0.3,1c0,0.3,0.3,1.3,0.8,2.7
		l2.9,8.6c0.3,1.3,0.8,2.2,1,2.7c0.3,0.3,0.5,0.7,0.8,0.8c0.3,0.2,1,0,1.7-0.3l0.5-0.2l0.2,0.5l-8.1,2.7l-0.2-0.5l0.5-0.2
		c0.7-0.3,1.2-0.5,1.5-0.8c0.3-0.3,0.3-0.7,0.3-1.2c0-0.5-0.3-1.3-0.8-2.7l-2.9-8.6c-0.3-1.3-0.9-2.2-1-2.7
		c-0.3-0.3-0.3-0.5-0.9-0.7c-0.3,0-1,0-1.8,0.3h-0.3V502.9z"/>
	<path class="st96" d="M1061.2,509.6c-0.2,0-0.3,0-0.5,0l-8.6-4c-0.2,0-0.3-0.2-0.3-0.2c-0.2-0.2-0.3-0.3-0.8-0.5
		c-0.3-0.3-0.7-0.5-1.2-0.8c-0.3-0.3-0.7-0.7-1-1.2c-0.3-0.3-0.5-0.8-0.7-1.3c-0.5-1.5-0.3-2.9,0.2-4c0.5-1.2,1.7-1.9,3.2-2.5
		c0.3-0.2,0.8-0.3,1.3-0.3c0.5,0,1,0,1.5,0.2c0.3,0.2,0.9,0.3,1.2,0.3c0.3,0.2,0.7,0.3,1,0.3c0.2-0.3,0.3-0.7,0.5-1
		c0.2-0.3,0.3-0.7,0.7-1.2c0.3-0.5,0.7-0.7,1.2-1c0.3-0.3,0.8-0.5,1.2-0.7c1.5-0.5,2.9-0.5,4.2,0c1.2,0.5,2,1.7,2.5,3.2
		c0.5,1.5,0.3,3.4-0.8,5.6l-4.4,8.4C1061.7,509.4,1061.5,509.6,1061.2,509.6z"/>
	<path class="st48" d="M1074.8,489.9c1.4,0,2.5-1.1,2.5-2.5c0-1.4-1.1-2.5-2.5-2.5c-1.4,0-2.5,1.1-2.5,2.5
		C1072.3,488.8,1073.4,489.9,1074.8,489.9z"/>
	<path d="M1098.9,486.7c-0.8-2.5-2.7-4.6-5.1-5.7c-2.4-1.2-5-1.3-7.6-0.5c-2.5,0.8-4.6,2.7-5.7,5.1c-2,4.2-1,8.9,2.4,12l-2.2,4.6
		c-0.2,0.3-0.2,0.5,0,0.8c0.2,0.3,0.3,0.5,0.5,0.7l2.7,1.2c0.3,0.2,0.5,0.2,0.8,0c0.3-0.2,0.5-0.3,0.7-0.5l2.2-4.6
		c1.8,0.3,3.5,0.3,5.2-0.3c2.5-0.8,4.5-2.7,5.7-5.1C1099.6,491.9,1099.8,489.2,1098.9,486.7z M1087.1,499.3l-2.9,5.1l-3-2.2l2.2-5.1
		l-3.2-7.1l8.1,2.4l5.1,5.1L1087.1,499.3z"/>
	<path d="M1080.2,489.9l3.2,7.1l-2.2,5.2l3,2l2.9-4.9l6.1-2l-4.9-5.1L1080.2,489.9z"/>
	<path class="st97" d="M744,549.6c-17.2,0-31,3.2-31,7.2s14,7.2,31,7.2c17.2,0,31-3.2,31-7.2C775.1,552.9,761.2,549.6,744,549.6z"/>
	<path class="st98" d="M714.5,515.3c-0.8,0.2-1.7,0.3-2.5,0.8c-0.5,0.2-0.8,0.5-1.2,0.8c-1.7,1.3-2.7,3.4-3,5.7
		c-0.8,5.4,1.7,12.8,6.9,19.2c1.5,1.9,3,3,4.9,3.7c-0.8,1-1.3,2.2-1.3,3.5c0,2.9,2.4,5.4,5.4,5.4c2.4,0,4.2-1.3,5.1-3.4
		c0.2-0.5,0.3-1.2,0.3-1.9c0-1.2-0.3-2.4-1-3.2c5.2-1.2,4.7-4.6,7.6-6.7l-0.8-13C728.3,518.5,720.2,514.3,714.5,515.3z"/>
	<path class="st98" d="M780.9,522.9c-0.3-2.5-1.3-4.6-3-5.9c-0.3-0.3-0.8-0.5-1.2-0.8c-0.8-0.3-1.7-0.7-2.5-0.8
		c-5.7-1-14,3.2-20.1,10.8l-0.8,13c2.9,2.4,2.4,5.6,7.6,6.7c-0.7,0.8-1,2-1,3.2c0,0.7,0.2,1.3,0.3,2c0.8,2,2.7,3.4,5.1,3.4
		c3,0,5.4-2.4,5.4-5.4c0-1.3-0.5-2.5-1.3-3.5c1.7-0.7,3.4-1.9,4.9-3.7C779.2,535.6,781.7,528.3,780.9,522.9z"/>
	<path class="st98" d="M764.5,511.6c-0.7-0.8-1.3-1.7-2-2.5c-4.4-4.9-11-8.1-18.2-8.1c-7.2,0-13.7,3-18.2,8.1
		c-0.7,0.8-1.3,1.7-2,2.5c-2.7,3.9-4.2,8.6-4.2,13.7c0,4.4,1.2,8.4,3.2,12c1.9,3.4,4.6,6.1,7.8,8.3c3,2,6.7,3.4,10.6,3.9
		c1,0.2,1.9,0.2,2.9,0.2c1,0,2,0,2.9-0.2c3.9-0.5,7.6-1.9,10.6-3.9c3.2-2,5.7-4.9,7.8-8.3c2-3.5,3.2-7.6,3.2-12
		C768.7,520.2,767.1,515.7,764.5,511.6z"/>
	<path class="st99" d="M745,547.4c-4.9,0-9.4-0.5-13.3-1.3c2.9,1.9,6.2,3,9.8,3.4c1,0.2,1.9,0.2,2.9,0.2c1,0,2,0,2.9-0.2
		c3.4-0.3,6.4-1.5,9.3-3C752.9,547,749,547.4,745,547.4z"/>
	<path class="st100" d="M744.6,495.3c-0.2,0-0.3,0-0.5,0v7.8h5.4l3.5,5.1v9.1v29.5c0,0.7-0.3,1-0.7,1.5c-1,1.2-1.7,2.7-1.7,4.4
		c0,3.5,2.9,6.4,6.4,6.4c3.5,0,6.4-2.9,6.4-6.4c0-0.5,0-1-0.2-1.5c-0.2-0.7,0.3-1.2,1-1.9c6.6-5.6,10.6-13.8,10.6-23.1
		C774.8,509.3,761.3,495.6,744.6,495.3z"/>
	<path class="st100" d="M737.4,512.1c-1.3,3.2-6.7,13.3-7.1,19c-0.2,3.4,6.7,16.9-2.5,14.8c-6.4-1.3-14.2-6.2-14.2-22.6
		c0-16.4,17-28.2,30.2-28.2C755.8,495.5,737.4,512.1,737.4,512.1z"/>
	<path class="st101" d="M748.5,482.8c0,2.4-1.9,4.2-4.2,4.2c-2.4,0-4.2-1.9-4.2-4.2c0-2.4,1.9-4,4.2-4
		C746.7,478.8,748.5,480.6,748.5,482.8z"/>
	<path class="st102" d="M760.7,500.2c0,8.9-7.2,16.2-16.3,16.2c-9.1,0-16.4-7.2-16.4-16.2s7.2-16.2,16.4-16.2
		C753.4,484,760.7,491.2,760.7,500.2z"/>
	<path class="st13" d="M734.7,503.2c0-0.7,0.7-1.3,1.3-1.3c0.7,0,1.3,0.7,1.3,1.3H734.7z"/>
	<path class="st13" d="M751.2,503.2c0-0.7,0.7-1.3,1.3-1.3c0.7,0,1.3,0.7,1.3,1.3H751.2z"/>
	<path class="st98" d="M750,510.3c-0.5,0-1.2-0.2-1.7-0.5c-0.5-0.3-0.8-0.8-1-1.3c-0.2-0.5-0.2-1.2,0-1.7c0.2-0.5,0.5-1,1-1.3
		c-0.5,1-0.7,2-0.3,2.9C748.3,509.1,749,509.8,750,510.3z"/>
	<path class="st98" d="M748.2,508.4c-0.5,0.7-1,0.8-1.7,1.2c-0.7,0.2-1.2,0.3-1.9,0.3c-1.2,0.2-2.5-0.2-3.4-0.8
		c1.2,0.5,2.2,0.3,3.4,0.2c0.5-0.2,1-0.3,1.5-0.5c0.5-0.2,0.8-0.5,1-0.8L748.2,508.4z"/>
	<path class="st7" d="M744.3,478.8c2.4,0,4.2,1.9,4.2,4c0,0.5-0.2,1.2-0.3,1.7c7.1,1.7,12.5,8.1,12.5,15.7c5.6,3.5,9.9,8.8,12.3,15
		c0.5,0,0.8,0,1.3,0.2c0.8,0.2,1.7,0.3,2.5,0.8c0.5,0.2,0.8,0.5,1.2,0.8c1.7,1.3,2.7,3.4,3,5.9c0.7,5.4-1.7,12.6-6.9,19.2
		c-1.5,1.9-3,3-4.9,3.7c0.8,1,1.3,2.2,1.3,3.5c0,2.9-2.4,5.4-5.4,5.4c-0.7,0-1.3-0.2-1.9-0.3c-0.7,2.7-3.2,4.7-6.2,4.7
		c-3.5,0-6.4-2.9-6.4-6.4c0-1.5,0.5-3,1.5-4.2c-1.5,0.5-3.2,0.8-4.9,1c-1,0.2-1.9,0.2-2.9,0.2c-1,0-2,0-2.9-0.2
		c-3.7-0.5-7.1-1.7-10.1-3.5c-0.5,0.2-1.2,0.3-1.9,0.3c-0.5,0-1,0-1.7-0.2c0.7,0.8,1,2,1,3.2c0,0.7-0.2,1.3-0.3,1.9
		c-0.8,2-2.7,3.4-5.1,3.4c-3,0-5.4-2.4-5.4-5.4c0-1.3,0.5-2.5,1.3-3.5c-1.7-0.7-3.4-1.9-4.9-3.7c-5.2-6.6-7.8-13.8-6.9-19.2
		c0.3-2.4,1.3-4.4,3-5.7c0.3-0.3,0.8-0.5,1.2-0.8c0.7-0.3,1.5-0.7,2.5-0.8c0.3,0,0.5,0,0.8-0.2c2.4-6.2,7.1-11.5,12.6-15
		c0-7.6,5.4-14,12.5-15.8c-0.2-0.5-0.3-1-0.3-1.7C740.1,480.6,741.9,478.8,744.3,478.8z M744.3,475.4c-3.9,0-7.1,3-7.4,6.7
		c-3,1.2-5.9,3.2-7.9,5.9c-2.4,3-3.9,6.6-4.2,10.5c-5.2,3.7-9.4,8.4-11.8,13.8c-0.8,0.2-1.7,0.5-2.4,0.8c-0.7,0.3-1.2,0.7-1.9,1.2
		c-2.4,1.9-3.7,4.6-4.2,7.9c-0.5,3.2,0,6.9,1.3,10.8c1.3,3.7,3.5,7.6,6.2,11.1c0.8,1.2,2,2.2,3,2.9c-0.2,0.7-0.3,1.3-0.3,2.2
		c0,4.7,3.9,8.6,8.8,8.6c3.5,0,6.9-2.2,8.1-5.6c0.3-0.7,0.5-1.3,0.5-2.2c2.7,1.3,5.7,2.2,8.8,2.5c1.2,0.2,2.2,0.2,3.4,0.2
		c1,0,1.9,0,2.9-0.2c0.2,5.2,4.4,9.4,9.8,9.4c3.4,0,6.4-1.7,8.1-4.4c4.7,0,8.6-3.9,8.6-8.6c0-0.7-0.2-1.5-0.3-2.2
		c1.2-0.8,2.2-1.9,3-2.9c2.7-3.4,4.9-7.2,6.2-11c1.3-3.9,1.9-7.6,1.3-10.8c-0.5-3.4-2-6.2-4.2-8.1c-0.5-0.5-1.2-0.8-1.7-1.2
		c-0.8-0.5-1.9-0.8-3-1c-2.5-5.6-6.4-10.3-11.3-13.8c-0.3-3.7-1.9-7.4-4.2-10.3c-2-2.5-4.9-4.6-7.9-5.9
		C751.4,478.4,748.2,475.4,744.3,475.4z"/>
	<path class="st100" d="M729,529.3c5.1-0.3,7.6,4.4,7.1,8.3c-0.3,4-3.2,10.3-9.1,8.1c-2.4-0.8-2.5-6.9-2.2-10.3
		C725.1,532.2,725.9,529.5,729,529.3z"/>
	<path class="st100" d="M729,529.3c5.7-1,7.6,4.4,7.1,8.3c-0.3,4-3.2,10.3-9.1,8.1"/>
	
		<linearGradient id="SVGID_7_" gradientUnits="userSpaceOnUse" x1="791.3825" y1="-1983.6013" x2="791.3825" y2="-1991.8623" gradientTransform="matrix(1 0 0 -1 -47.5 -1463.4623)">
		<stop  offset="0" style="stop-color:#FFFFFF"/>
		<stop  offset="0.5833" style="stop-color:#F9F9F9"/>
		<stop  offset="1" style="stop-color:#F1F1F2"/>
	</linearGradient>
	<path class="st54" d="M747.3,520.1c0,0.2,0,0.2,0,0.3c0,0.3,0,0.5,0,0.8c0,1.7-0.7,3.2-1.7,4.4c-0.5,0.5-1,1-1.5,1.5
		c-0.7,0.5-1.5,0.8-2.4,1c-0.2,0-0.5,0.2-0.7,0.2c-0.2,0-0.5,0-0.7,0c0-0.2,0-0.5,0-0.7c0-0.2,0-0.3,0-0.7s0-0.5,0.2-0.8
		c0.2-0.7,0.3-1.2,0.7-1.9c0.3-0.5,0.7-1.2,1.2-1.5c0.5-0.5,1-1,1.5-1.3c0.7-0.5,1.5-0.8,2.4-1.2c0.2,0,0.5-0.2,0.7-0.2
		C747,520.2,747.2,520.2,747.3,520.1z"/>
	
		<linearGradient id="SVGID_8_" gradientUnits="userSpaceOnUse" x1="789.0019" y1="-1991.4124" x2="789.0019" y2="-2017.5414" gradientTransform="matrix(1 0 0 -1 -47.5 -1463.4623)">
		<stop  offset="0" style="stop-color:#FFFFFF"/>
		<stop  offset="0.5833" style="stop-color:#F9F9F9"/>
		<stop  offset="1" style="stop-color:#F1F1F2"/>
	</linearGradient>
	<path class="st55" d="M755.1,544.8c-0.7-0.3-1.3-0.7-1.9-1.2c-0.7-0.5-1.2-1.2-1.7-1.9c-0.5-0.7-0.8-1.5-1-2.2
		c-0.2-0.3-0.2-0.8-0.2-1.2c0-0.3,0-0.5,0-0.8c0-1,0.3-1.9,0.7-2.7c0.3-0.7,0.8-1.3,1.5-2c0.5-0.5,1-1,1.7-1.3
		c-0.7-0.8-1.5-1.7-2.5-2.2c-0.7-0.3-1.3-0.7-2.2-0.8c-0.3,0-0.5-0.2-0.8-0.2c-0.2,0-0.5,0-0.7,0c-0.2,0-0.5,0-0.7,0
		c-0.3,0-0.7,0-1,0c-0.8,0-1.5,0.2-2.2,0.5c-0.3,0.2-0.7,0.3-1,0.3c-0.3,0.2-0.5,0.2-0.8,0.3c-0.3,0.2-0.5,0.2-0.8,0.2
		c-0.2,0-0.5,0-0.7,0c-0.2,0-0.5,0-0.7-0.2c-0.3-0.2-0.7-0.2-1-0.3c-0.3-0.2-0.7-0.3-1-0.3c-0.5-0.2-0.8-0.3-1.3-0.3
		c-0.3,0-0.8-0.2-1.2-0.2c-0.3,0-0.7,0-0.8,0c-0.3,0-0.7,0-0.8,0.2c-1.3,0.2-2.4,0.7-3.5,1.3c4,0.5,5.4,5.1,5.1,8.6
		c-0.3,3.9-2.4,8.6-7.6,7.9c0.2,0.3,0.3,0.8,0.5,1.2c0.5,1,1,2,1.7,2.9c0.3,0.7,0.8,1.2,1.3,1.9c0.5,0.5,1,1,1.5,1.3
		c0.5,0.3,0.8,0.5,1.3,0.7c0.3,0,0.5,0.2,0.8,0.2h0.2c0.2,0,0.3,0,0.5,0h0.2c0.2,0,0.5,0,0.7-0.2c0.3,0,0.7-0.2,1-0.3
		c0.5-0.2,1.2-0.5,1.7-0.7c0.3-0.2,0.7-0.2,1-0.2c0.3,0,0.7,0,1,0c0.2,0,0.5,0,0.7,0c0.5,0,0.8,0.2,1.2,0.3c0.5,0.2,1,0.3,1.5,0.5
		c0.5,0.2,0.8,0.3,1.3,0.3c0.2,0,0.3,0,0.7,0.2h0.2c0.2,0,0.2,0,0.3,0h0.2c0.5,0,1-0.2,1.3-0.5c0.5-0.2,0.8-0.5,1.2-0.8
		c0.7-0.5,1.2-1,1.7-1.7c1.3-1.5,2.4-3.4,3.2-5.2c0.2-0.3,0.2-0.5,0.3-0.8C755.3,545,755.3,545,755.1,544.8
		C755.3,544.8,755.3,544.8,755.1,544.8C755.3,544.8,755.1,544.8,755.1,544.8z"/>
</g>
</svg>
