<?xml version="1.0" encoding="utf-8"?>
<!-- Generator: Adobe Illustrator 23.0.3, SVG Export Plug-In . SVG Version: 6.00 Build 0)  -->
<svg version="1.1" id="Layer_1" xmlns="http://www.w3.org/2000/svg" xmlns:xlink="http://www.w3.org/1999/xlink" x="0px" y="0px"
	 viewBox="0 0 1444.1 654.8" style="enable-background:new 0 0 1444.1 654.8;" xml:space="preserve">
<style type="text/css">
	.st0{fill:#A3A3A3;}
	.st1{fill:#9E9E9E;}
	.st2{fill:#C1C1C1;}
	.st3{fill:#7E7E7E;}
	.st4{fill:#676767;}
	.st5{fill:#CCCCCC;}
	.st6{fill:#AEAEAE;}
	.st7{fill:#FFFFFF;}
	.st8{fill:#9C9C9C;}
	.st9{fill:#C0C0C0;}
	.st10{fill:#272727;}
	.st11{fill:#B4B4B4;}
	.st12{fill:#202020;}
	.st13{fill:#222222;}
	.st14{fill:#2C2C2C;}
	.st15{fill:#4A4A4A;}
	.st16{fill-rule:evenodd;clip-rule:evenodd;fill:#696969;}
	.st17{fill:#808080;}
	.st18{opacity:0.75;fill:#FFFFFF;enable-background:new    ;}
	.st19{opacity:0.1;enable-background:new    ;}
	.st20{fill:url(#SVGID_1_);}
	.st21{fill:url(#SVGID_2_);}
	.st22{fill:url(#SVGID_3_);}
	.st23{fill:url(#SVGID_4_);}
	.st24{fill:#727272;}
	.st25{fill:#666666;}
	.st26{fill:#818181;}
	.st27{opacity:0.3;enable-background:new    ;}
	.st28{opacity:0.2;enable-background:new    ;}
	.st29{fill:#A0A0A0;}
	.st30{fill:#5C5C5C;}
	.st31{fill:#E6E6E6;}
	.st32{fill:#BDBDBD;}
	.st33{fill:#A8A8A8;}
	.st34{fill:#3B3B3B;}
	.st35{fill:#8E8E8E;}
	.st36{fill:#AAAAAA;}
	.st37{fill:#FCFCFC;}
	.st38{fill:url(#SVGID_5_);}
	.st39{fill:url(#SVGID_6_);}
	.st40{fill:#747474;}
	.st41{fill:#3E3E3E;}
	.st42{fill:#555555;}
	.st43{fill:#F2F2F2;}
	.st44{fill:#B3B3B3;}
	.st45{fill:none;stroke:#FFFFFF;stroke-width:4.1039;stroke-linejoin:round;stroke-miterlimit:10;}
	.st46{fill:#535353;}
	.st47{fill:#717171;}
	.st48{fill:#FFFFFF;stroke:#000000;stroke-width:0.4104;stroke-miterlimit:10;}
	.st49{fill:#E7E7E7;}
	.st50{fill:#A1A1A1;}
	.st51{fill:#606060;}
	.st52{fill:#C5C5C5;}
	.st53{fill:#D0D0D0;}
	.st54{fill:url(#SVGID_7_);}
	.st55{fill:url(#SVGID_8_);}
</style>
<g>
	<path class="st0" d="M-83.3,720L115,510.6h1215.4L1527.1,720H-83.3z"/>
	<path class="st1" d="M821.2,430.2c-2.5-3.5-5.1-7.1-8.1-10.1c-17.7-19.7-43.4-32.2-72.1-32.2c-28.9,0-54.4,12.3-72.3,32.2
		c-2.9,3.2-5.6,6.6-7.9,10.1c-10.8,15.5-16.9,34.4-16.9,54.6c0,17.4,4.7,33.7,12.7,47.9c7.6,13.1,18.1,24.4,30.7,32.9
		c12.3,8.3,26.8,13.7,42.4,15.5c3.9,0.3,7.8,0.7,11.5,0.7c4,0,7.8-0.3,11.6-0.7c15.5-1.9,30-7.2,42.4-15.7
		c12.5-8.4,23.1-19.7,30.5-32.7c8.1-14.2,12.7-30.5,12.7-47.9C838,464.8,832,445.9,821.2,430.2z"/>
	<path class="st2" d="M709.5,576c-1.7-1.9-2.9-3.4-2.9-5.9V452.5v-36.9l13.8-19.9h40.5l14,20.2v36.8v117.8c0,2.5-1.2,4-2.9,5.9
		c-3.4,3.5-5.6,8.1-6.2,13.1h50.7c-0.2-0.7-0.3-1.3-0.3-2c-0.5-2.9,1.2-4.9,3.9-7.4c26-22.4,42.5-55.6,42.5-92.5
		c0-66.9-53.7-121.4-120.6-122.6l0.2-0.3c-67.7,0-122.8,54.8-122.8,122.6c0,36.9,16.5,70.1,42.5,92.5c2.5,2.5,4.4,4.4,3.9,7.4
		c-0.2,0.8-0.3,1.5-0.3,2.4h50.7C715.3,584.5,712.9,579.7,709.5,576z"/>
	<path class="st3" d="M740.9,551.3c-5.1,0-9.1,2.4-9.1,5.1c0,0.2,0,0.3,0,0.5c0.5,2.5,4.4,4.6,9.1,4.6s8.6-1.9,9.1-4.6
		c0-0.2,0-0.3,0-0.5C750,553.4,745.8,551.3,740.9,551.3z"/>
	<path class="st4" d="M743.6,573c-19.1,0-37.3-1.9-53.4-5.2c11.6,7.1,25,12,39.2,13.7c3.9,0.3,7.8,0.7,11.5,0.7
		c4,0,7.8-0.3,11.6-0.7c13.2-1.7,25.7-5.7,36.8-12.3C775.2,571.7,759.8,573,743.6,573z"/>
	<path class="st5" d="M806,384.4c0,35.9-29.2,64.9-65,64.9s-65.1-29.2-65.1-64.9c0-35.9,29.2-64.9,65-64.9S806,348.6,806,384.4z"/>
	<path class="st1" d="M803.1,403.6c-4.4,18.2-4.6,83.8-13,89.3c3.2-7.9,0.8-62.5-0.3-68.9C788.5,414,803.1,403.6,803.1,403.6z"/>
	<path class="st1" d="M686.2,433.9c0,14.2-0.3,57.7-5.6,60.7c3-6.9-4.6-70.5-8.1-86.1C670.1,398.7,686.2,433.9,686.2,433.9z"/>
	<path class="st5" d="M805.3,384.4c0,35.9-29,64.9-64.9,64.9c-35.9,0-64.9-29-64.9-64.9s29-64.9,64.9-64.9S805.3,348.5,805.3,384.4z
		"/>
	<path class="st6" d="M813.1,380.1c-0.8-11.8-7.8-40.6-26.2-54.5c-16.9-12.5-29.7-17.2-45.2-15.8c-3.9,0.3-12.8,2.4-16.5,5.2
		c-34.3,0-53.4,42.5-54.9,49.9c-4.7,21.7,2.7,57.1,7.3,70.5c8.4,24.6,5.7,70.3,7.6,77.7c5.2-12.3,10.5-60,5.1-88
		c-2-10.6-3.5-15.3-4.2-29.2c-0.3-12.3,19.2-29.7,32.1-37.9c12,10.8,44.7,6.7,56.8,11.8c8.8,3.5,21.9,21.9,22.6,34.2
		c3.2,51.4-8.8,95.8-4.2,105.5C796.9,482.8,813.1,437.5,813.1,380.1z"/>
	<path class="st6" d="M725.7,314.7c2.5-2.2,6.6-5.7,11.1-6.9c-3.5,2.4-3.4,4.9-4.4,6.7C731.5,316.4,725.7,314.7,725.7,314.7z"/>
	<path class="st6" d="M726.2,314.9c-2.4-0.5-11.6-2-14,0.2c2.7-0.3,5.2,1.2,6.2,1.9C720,317.9,726.2,314.9,726.2,314.9z"/>
	<path d="M707.3,403.4c0-3,2.5-5.4,5.6-5.4c3,0,5.6,2.5,5.6,5.4H707.3z"/>
	<path d="M761.5,403.4c0-3,2.5-5.4,5.6-5.4c3,0,5.6,2.5,5.6,5.4H761.5z"/>
	<path class="st7" d="M754.1,420.4c0,3.9-7.3,5.2-14.2,5.2c-6.8,0-14.2-2.4-14.2-5.2H754.1z"/>
	<path class="st8" d="M1189.8,419.1c-2.5-3.9-5.6-7.6-8.6-11c-19.1-21.2-46.9-34.6-77.7-34.6s-58.6,13.3-77.7,34.6
		c-3.2,3.4-6.1,7.1-8.6,11c-11.5,16.7-18.2,36.9-18.2,58.8c0,18.9,4.9,36.4,13.7,51.6c8.1,14.2,19.4,26.3,33.1,35.2
		c13.3,8.9,28.9,14.8,45.6,16.7c4.1,0.3,8.3,0.7,12.3,0.7c4.2,0,8.4-0.3,12.5-0.8c16.7-1.9,32.2-7.8,45.7-16.7
		c13.5-9.1,24.8-21.1,32.9-35.2c8.6-15.2,13.7-32.9,13.7-51.6C1208.1,456.2,1201.3,435.9,1189.8,419.1z"/>
	<path class="st9" d="M1073.9,569.6c-1.5-1.9-2.7-3.4-2.7-5.7V450.3v-35.7l13.3-19.2h39.2l13.5,19.6v35.4v113.8
		c0,2.4-1.2,3.9-2.7,5.7c-3.4,3.5-5.6,8.1-6.2,13h48.9c-0.2-0.8-0.3-1.7-0.3-2.4c-0.5-2.9,1.2-4.7,3.7-7.1
		c25.1-21.7,41-53.8,41-89.3c0-64.6-51.7-117-116.2-118.2l0.2-0.3c-65.4,0-118.4,52.9-118.4,118.2c0,35.7,15.9,67.8,41,89.3
		c2.5,2.4,4.2,4.2,3.7,7.1c-0.3,0.8-0.3,1.9-0.5,2.5h49.1C1079.5,577.7,1077.3,573.2,1073.9,569.6z"/>
	<path class="st3" d="M1103.4,549.2c-5.4,0-10,2.5-10,5.6c0,0.3,0,0.3,0,0.5c0.5,2.7,4.7,4.9,9.8,4.9s9.3-2.2,9.8-4.9
		c0-0.2,0-0.3,0-0.5C1113.1,551.8,1108.8,549.2,1103.4,549.2z"/>
	<path class="st10" d="M1106.2,572.7c-20.6,0-40.2-2-57.4-5.6c12.5,7.8,27,12.8,42.2,14.7c4,0.5,8.3,0.7,12.3,0.7
		c4.2,0,8.4-0.3,12.5-0.7c14.3-1.7,27.7-6.2,39.5-13C1140.3,571.1,1123.6,572.7,1106.2,572.7z"/>
	<path class="st11" d="M1168.8,410.3c-0.8,2.9-3.4,5.4-6.8,5.4c-3.4,0-6.4-2.5-6.4-6.1c0-3.4,8.1-15,11.5-15c0,0-0.7,5.4,0.8,9.3
		C1168.8,406.1,1169.3,408.5,1168.8,410.3z"/>
	<path class="st11" d="M1037.8,409.6c0.8,2.9,3.4,5.4,6.8,5.4c3.4,0,6.4-2.5,6.4-6.1c0-3.4-8.1-15-11.5-15c0,0,0.7,5.4-0.8,9.3
		C1037.6,405.4,1037.3,407.8,1037.8,409.6z"/>
	<path class="st12" d="M1165,408.8c0,1.3-1.2,2.5-2.5,2.5c-1.3,0-2.5-1.2-2.5-2.5s1.2-2.5,2.5-2.5
		C1163.8,406.3,1165,407.5,1165,408.8z"/>
	<path class="st5" d="M1173.1,369.9c0,38.3-31.2,69.5-69.8,69.5c-38.7,0-69.8-31-69.8-69.5c0-38.3,31.2-69.3,69.8-69.3
		C1141.8,300.4,1173.1,331.6,1173.1,369.9z"/>
	<path class="st7" d="M1119,415.1c1.7,0,2.7-1.9,1.9-3.2c-3.2-4.9-10-4-17.7-4c-7.7,0-14.5-0.8-17.7,4c-1,1.3,0.2,3.2,1.9,3.2H1119z
		"/>
	<path class="st13" d="M1061.9,397.7c0-3.2,2.5-5.7,5.9-5.7c3.2,0,5.7,2.5,5.7,5.7H1061.9z"/>
	<path class="st13" d="M1132.9,397.7c0-3.2,2.5-5.7,5.9-5.7c3.2,0,5.9,2.5,5.9,5.7H1132.9z"/>
	<path class="st14" d="M1038.3,396.2c0,0,7.4-0.8,6.4-11.8c-1-11-2-15.3,7.1-16.2c0,0-7.1-9.3,10-22.6c0,0,14.5-10.1,27-4.4
		s19.2,5.9,38.7-0.2c0,0,21.6-7.6,18.6,16.7c0,0,5.9,7.4,15.2,7.4c0,0-3.7,15.8,6.6,31c0,0,9.5-15,5.7-24.3c0,0,6.9-17.9-4.2-27.8
		c0,0,0.8-10.8-10-17.5c0,0,2.2-4.2,2.7-7.1c0,0-4.5,2-6.6,1.5c0,0,1-16.9-20.2-14.7c0,0-6.4-2-5.6-8.9c0,0-5.1,1.2-6.6,3.9
		c0,0.2-0.2,0.2-0.2,0.3c0,0-10.8-6.2-5.6-13c0,0-7.4,1.2-11,7.8c0,0-6.9-6.7-14.5-6.6c0,0,6.8,12.1-5.9,11.6
		c-12.7-0.5-20.9,4.9-23.8,11.6c0,0-9.6-0.3-13.3,9.3c0,0-4.2,0.8-6.9-1.3c0,0-0.3,7.1,5.9,7.1c0,0-17.9,11.1-13.5,28.5
		c0,0-5.6,5.1-1.2,7.8C1033.3,364.5,1031.6,383.9,1038.3,396.2z"/>
	<path class="st1" d="M443.7,433.4c-2.5-3.7-5.4-7.2-8.4-10.8c-18.7-20.7-45.7-33.7-75.8-33.7c-30.2,0-57.1,13-75.8,33.7
		c-3,3.4-5.7,6.9-8.4,10.8c-11.3,16.4-17.7,36.1-17.7,57.5c0,18.2,4.9,35.4,13.3,50.2c7.8,13.8,18.9,25.6,32.2,34.6
		c13,8.6,28.2,14.5,44.4,16.4c4,0.3,7.9,0.7,12.2,0.7s8.3-0.3,12.3-0.7c16.4-1.9,31.6-7.8,44.4-16.4c13.2-8.8,24.1-20.6,32.1-34.4
		c8.6-14.8,13.3-32,13.3-50.2C461.4,469.5,454.8,449.8,443.7,433.4z"/>
	<path class="st3" d="M359.3,560.4c-5.2,0-9.6,2.5-9.6,5.4c0,0.2,0,0.3,0,0.5c0.5,2.7,4.6,4.9,9.5,4.9s9.1-2,9.5-4.9
		c0-0.2,0-0.3,0-0.5C369,562.9,364.7,560.4,359.3,560.4z"/>
	<path class="st4" d="M362.3,583.1c-20.1,0-39.2-1.9-55.9-5.4c12.3,7.6,26.3,12.5,41.2,14.3c4,0.3,7.9,0.7,12.2,0.7
		c4.2,0,8.3-0.3,12.3-0.7c13.8-1.7,27-6.1,38.5-12.8C395.4,581.8,379.2,583.1,362.3,583.1z"/>
	<path class="st2" d="M360.4,364.6l0.2-0.3c-71.1,0-128.8,57.5-128.8,128.6c0,38.9,17.4,73.7,44.6,97.3c2.7,2.5,4.7,4.7,4,7.8
		c-0.5,2,50.4-6.7,46.1-11.5c-1.7-2-3-3.7-3-6.2V456.7v-38.9l14.5-20.9h42.7l14.7,21.1v38.6v123.7c0,2.5-1.3,4.2-3,6.2
		c-4.4,4.9,46.6,13.7,46.1,11.5c-0.5-3,1.2-5.2,4-7.8c27.3-23.6,44.6-58.3,44.6-97.3C486.9,423,430.5,366,360.4,364.6z"/>
	<path class="st5" d="M426.5,381c0,37.8-30.7,68.4-68.4,68.4s-68.4-30.7-68.4-68.4c0-37.8,30.7-68.3,68.4-68.3
		S426.5,343.2,426.5,381z"/>
	<path class="st13" d="M322.8,398.5c0-3.2,2.7-5.9,5.9-5.9c3.2,0,5.9,2.7,5.9,5.9H322.8z"/>
	<path class="st13" d="M381.4,398.5c0-3.2,2.7-5.9,5.9-5.9s5.9,2.7,5.9,5.9H381.4z"/>
	<path class="st7" d="M344.4,429c-2,0.3-3.5-2.2-2.2-3.9c3.2-3.9,8.9-5.1,15.4-5.1c6.2,0,11.8,1.3,15,4.9c1.5,1.7,0.2,4.2-2,3.9
		c-3.2-0.3-7.9-0.8-13-0.8C352.5,428.2,347.6,428.5,344.4,429z"/>
	<path class="st15" d="M426.3,386.9c0,0-1.5,0.5-2.9,1.5c-1.4,1-2.5,3.9-2.5,3.9s-3.4,23.6-26.7,37.1c-5.1,0-6.4-9.8-16.9-16.4
		c-4.2-2.7-9.4-5.4-19.6-5.4c-10.3,0.2-15.4,2.7-19.6,5.4c-10.5,6.7-11.8,16.4-16.9,16.4c-23.3-13.5-26.7-37.1-26.7-37.1
		s-1.4-3-2.5-3.9c-1.3-1-2.7-1.5-2.7-1.5s-0.8,20.9,21.9,48.4c2.5,3,5.4,5.9,8.4,8.6c2,1.7,4.1,3.4,6.1,4.9c4.4,3.2,8.8,8.8,12.8,11
		c6.4,3.5,13,4.9,19.1,4.9s12.7-1.3,19.1-4.9c4-2.2,8.4-7.8,12.8-11c2-1.5,4.2-3.2,6.1-4.9c3-2.5,5.7-5.4,8.4-8.6
		C427,407.8,426.3,386.9,426.3,386.9z M377.6,433.4c-1.4,2.7-3.9,9.4-13,8.6c-5.4-0.5-2.9-5.9-2.9-5.9h-4.2h-4.2
		c0,0,2.7,5.4-2.9,5.9c-9.1,0.8-11.6-5.9-13-8.6c-1.5-3.2-1.7-12.3,4-15.7c3.5-2.2,6.2-3.2,15.9-3.2c9.6,0,12.5,1,15.9,3.2
		C379.3,421.1,379.2,430.2,377.6,433.4z"/>
	<path class="st16" d="M396.2,313.7c0.7-1.3-0.2-3-0.2-3c6.1,2.7,8.1,7.7,8.1,12c14.9,11.8,21.2,27.8,22.1,49.4
		c0.3,6.2,0.5,11.6,0,17l-5.6,4.2c1.2-5.4,0.5-11.8-0.3-18.9c-1.6-13-6.6-17.4-11.8-22.1c-0.9-0.8-1.7-1.5-2.6-2.3
		c-3.4-3.2-6.6-4.5-13.1-5.6c-8.8,2.5-27.8,5.6-39.6,5.6c-11.1,0-27.3-2.5-35.3-4.5c-3.5,1-5.9,2.3-8.3,4.6
		c-0.8,0.7-1.6,1.4-2.4,2.1c-5.3,4.6-10.3,8.9-11.9,22.3c-0.8,7.1-1.5,13.5-0.3,18.9l-5.4-4.2c-0.5-5.2-0.3-10.4-0.2-16.4
		c0-0.2,0-0.4,0-0.6c1-21.9,7.4-38.1,22.8-49.9c1.6-3.7,3.9-6.7,6.9-8.2c6.1-3,13.5-5.7,27.2-8.3c6.6-1.2,12.6-0.7,17.1-0.3
		c4.8,0.4,7.9,0.7,8.1-1.5c6.8,0.8,12.5,5.1,12.5,5.1s-0.2-2-1.7-3C386.3,306.3,393.7,310.5,396.2,313.7z"/>
	<path class="st17" d="M836.3,461.9h-191c-3.5,0-6.6,3-6.6,6.6v115v12.3c0,3.5,3,6.6,6.6,6.6h191c3.5,0,6.6-3,6.6-6.6v-12.3v-115
		C843.1,464.8,840.1,461.9,836.3,461.9z"/>
	<path class="st18" d="M740.9,549.6c9.7,0,17.6-7.9,17.6-17.5c0-9.7-7.9-17.5-17.6-17.5c-9.7,0-17.6,7.8-17.6,17.5
		C723.4,541.7,731.2,549.6,740.9,549.6z"/>
	<path class="st17" d="M455,461.9H263.8c-3.5,0-6.6,3-6.6,6.6v115v12.3c0,3.5,3,6.6,6.6,6.6h191c3.5,0,6.6-3,6.6-6.6v-12.3v-115
		C461.6,464.8,458.6,461.9,455,461.9z"/>
	<path class="st18" d="M359.3,549.6c9.7,0,17.6-7.9,17.6-17.5c0-9.7-7.9-17.5-17.6-17.5s-17.6,7.8-17.6,17.5
		C341.7,541.7,349.6,549.6,359.3,549.6z"/>
	<path class="st17" d="M1204.2,461.9h-191c-3.5,0-6.6,3-6.6,6.6v115v12.3c0,3.5,3,6.6,6.6,6.6h191c3.6,0,6.6-3,6.6-6.6v-12.3v-115
		C1210.8,464.8,1207.9,461.9,1204.2,461.9z"/>
	<path class="st18" d="M1108.6,549.6c9.7,0,17.5-7.9,17.5-17.5c0-9.7-7.9-17.5-17.5-17.5c-9.7,0-17.6,7.8-17.6,17.5
		C1091,541.7,1098.9,549.6,1108.6,549.6z"/>
	<path class="st7" d="M906.1,651.4h100.8l-54.9-89h-89.7L906.1,651.4z"/>
	<path class="st19" d="M945.6,669.3h105.2l-61.5-88.8h-90.5L945.6,669.3z"/>
	<path class="st7" d="M946.8,668.2h105L990.4,579h-90.7L946.8,668.2z"/>
	
		<linearGradient id="SVGID_1_" gradientUnits="userSpaceOnUse" x1="571.9207" y1="716.6" x2="624.9457" y2="716.6" gradientTransform="matrix(1 0 0 1 -47.5 -169)">
		<stop  offset="0" style="stop-color:#E6E6E6"/>
		<stop  offset="8.091480e-02" style="stop-color:#CFCFCF"/>
		<stop  offset="0.1882" style="stop-color:#B7B7B7"/>
		<stop  offset="0.3025" style="stop-color:#A6A6A6"/>
		<stop  offset="0.4275" style="stop-color:#9C9C9C"/>
		<stop  offset="0.5831" style="stop-color:#999999"/>
		<stop  offset="0.5968" style="stop-color:#A1A1A1"/>
		<stop  offset="0.648" style="stop-color:#BABABA"/>
		<stop  offset="0.7051" style="stop-color:#CECECE"/>
		<stop  offset="0.7709" style="stop-color:#DCDCDC"/>
		<stop  offset="0.8527" style="stop-color:#E4E4E4"/>
		<stop  offset="1" style="stop-color:#E6E6E6"/>
	</linearGradient>
	<path class="st20" d="M550.9,521.1c-14.7,0-26.5,11.8-26.5,26.5s11.8,26.5,26.5,26.5c14.7,0,26.5-11.8,26.5-26.5
		S565.6,521.1,550.9,521.1z M550.9,568.1c-12,0-20.6-8.6-20.6-20.6S539,527,550.9,527c11.9,0,20.6,8.6,20.6,20.6
		S563.1,568.1,550.9,568.1z"/>
	
		<linearGradient id="SVGID_2_" gradientUnits="userSpaceOnUse" x1="564.728" y1="686.3" x2="610.4724" y2="686.3" gradientTransform="matrix(1 0 0 1 -47.5 -169)">
		<stop  offset="7.525220e-02" style="stop-color:#E6E6E6"/>
		<stop  offset="0.1567" style="stop-color:#F2F2F2"/>
		<stop  offset="0.2872" style="stop-color:#FCFCFC"/>
		<stop  offset="0.4918" style="stop-color:#FCFCFC"/>
		<stop  offset="0.7633" style="stop-color:#F2F2F2"/>
		<stop  offset="1" style="stop-color:#E6E6E6"/>
	</linearGradient>
	<path class="st21" d="M517.2,512.5v12.3h45.7v-12.3c0,0-9.6-2.7-23-2.7C527.6,510,517.2,512.5,517.2,512.5z"/>
	
		<linearGradient id="SVGID_3_" gradientUnits="userSpaceOnUse" x1="564.728" y1="686.3" x2="610.4724" y2="686.3" gradientTransform="matrix(1 0 0 1 -47.5 -169)">
		<stop  offset="2.002730e-02" style="stop-color:#CACACA"/>
		<stop  offset="0.7003" style="stop-color:#565656;stop-opacity:0.43"/>
		<stop  offset="1" style="stop-color:#979797"/>
	</linearGradient>
	<path class="st22" d="M517.2,512.5v12.3h45.7v-12.3c0,0-9.6-2.7-23-2.7C527.6,510,517.2,512.5,517.2,512.5z"/>
	
		<linearGradient id="SVGID_4_" gradientUnits="userSpaceOnUse" x1="564.728" y1="718.1" x2="610.4724" y2="718.1" gradientTransform="matrix(1 0 0 1 -47.5 -169)">
		<stop  offset="0" style="stop-color:#E6E6E6"/>
		<stop  offset="0.1166" style="stop-color:#F2F2F2"/>
		<stop  offset="0.2872" style="stop-color:#FCFCFC"/>
		<stop  offset="0.5" style="stop-color:#FFFFFF"/>
		<stop  offset="0.7128" style="stop-color:#FCFCFC"/>
		<stop  offset="0.8834" style="stop-color:#F2F2F2"/>
		<stop  offset="1" style="stop-color:#E6E6E6"/>
	</linearGradient>
	<path class="st23" d="M517.2,512.5c0,0,8.6,2.5,23,2.5c13.5,0,23-2.5,23-2.5v69.3c0,0-7.1,3.9-23,3.9c-16.2,0-23-3.9-23-3.9V512.5z
		"/>
	<path class="st7" d="M530,507.1c-0.7,0-1.2,0-1.9,0c-1.9-12.1,2.5-24.1,0.8-36.1c0.2,0,0.2,0,0.3,0
		C531.7,483,527.6,494.9,530,507.1z"/>
	<path class="st7" d="M541,507.1c-0.7,0-1.2,0-1.9,0c-1.9-12.1,2.5-24.1,0.8-36.1c0.2,0,0.2,0,0.3,0
		C542.5,483,538.6,494.9,541,507.1z"/>
	<path class="st7" d="M551.8,507.1c-0.7,0-1.2,0-1.9,0c-1.9-12.1,2.5-24.1,0.8-36.1c0.2,0,0.2,0,0.3,0
		C553.5,483,549.4,494.9,551.8,507.1z"/>
	<path class="st24" d="M1244.7,582.8c0,0,17.2-3.9,45.6-3.9c30.9,0,46.1,3.9,46.1,3.9l-1.7,22.3c0,0-25.3,5.1-44.4,5.1
		c-23,0-43.9-5.1-43.9-5.1L1244.7,582.8z"/>
	<path class="st25" d="M1260.7,589.9c-7.8-45.2,15.5-83.6,3.4-174.1c23.3,33.4,18.7,167.1,8.4,178.4"/>
	<path class="st25" d="M1312.1,589.5c8.4-48.6-16.7-90.2-3.4-187.6c-25,35.9-20.3,179.9-9.1,191.8"/>
	<path class="st25" d="M1307.7,588.5c-2.5-20.6,49.1-88.5,28.5-140.1c24.6,34.9-20.6,129.8-16.2,145.5L1307.7,588.5z"/>
	<path class="st26" d="M1332.3,605h-83.9l19.4,68.1c0,0,11.3,3.2,22.3,3.2c11.5,0,23-3.2,23-3.2L1332.3,605z"/>
	<path class="st26" d="M1244.7,582.8c0,0,17.2,5.1,45.6,5.1c30.9,0,46.1-5.1,46.1-5.1l-1.7,22.3c0,0-25.3,5.1-44.4,5.1
		c-23,0-43.9-5.1-43.9-5.1L1244.7,582.8z"/>
	<path class="st27" d="M1248.6,605.5l1,3.5c0,0,20.4,3.5,40.7,3.5c21.4,0,41.2-3.5,41.2-3.5l1-3.5c0,0-22.8,3.9-42.2,3.9
		C1273,609.4,1248.6,605.5,1248.6,605.5z"/>
	<path class="st28" d="M63.7,632.3c-0.2,1,0.3,1.9,0.8,2.7c0.7,1.2,1.9,2,3.4,2.5l38.8,13.3c0,6.6,1.9,11.3,5.4,17.5
		c0.5,1,1.2,1.9,1.7,2.7c7.1,10.8,18.4,19,32.1,23.9c13.7,4.7,27.8,5.1,40,1c12.2-4,20.9-12.1,24.5-22.6c1.2-3.4,1.9-7.1,1.9-5.7
		c0,0,0,0,0-0.2c0,0,0,0,0-0.2c0,0,0,0,0-0.2c0,0,0,0,0-0.2c0,0,0,0,0-0.2c0,0,0,0,0-0.2c0,0,0,0,0-0.2c0,0,0,0,0-0.2c0,0,0,0,0-0.2
		c0,0,0,0,0-0.2c0,0,0,0,0-0.2c0,0,0,0,0-0.2c0,0,0,0,0-0.2c0,0,0,0,0-0.2c0,0,0,0,0-0.2c0,0,0,0,0-0.2c0,0,0,0,0-0.2c0,0,0,0,0-0.2
		c0,0,0,0,0-0.2c0,0,0,0,0-0.2c0,0,0,0,0-0.2c0,0,0,0,0-0.2c0,0,0,0,0-0.2c0,0,0,0,0-0.2c0,0,0,0,0-0.2c0,0,0,0,0-0.2c0,0,0,0,0-0.2
		c0,0,0,0,0-0.2c0,0,0,0,0-0.2c0,0,0,0,0-0.2c0,0,0,0,0-0.2c0,0,0,0,0-0.2c0,0,0,0,0-0.2c0,0,0,0,0-0.2c0,0,0,0,0-0.2c0,0,0,0,0-0.2
		c0,0,0,0,0-0.2c0,0,0,0,0-0.2c0,0,0,0,0-0.2c0,0,0,0,0-0.2c0,0,0,0,0-0.2c0,0,0,0,0-0.2c0,0,0,0,0-0.2c0,0,0,0,0-0.2c0,0,0,0,0-0.2
		c0,0,0,0,0-0.2c0,0,0,0,0-0.2c0,0,0,0,0-0.2c0,0,0,0,0-0.2c0,0,0,0,0-0.2c0,0,0,0,0-0.2c0,0,0,0,0-0.2c0,0,0,0,0-0.2c0,0,0,0,0-0.2
		c0,0,0,0,0-0.2c0,0,0,0,0-0.2c0,0,0,0,0-0.2c0,0,0,0,0-0.2c0,0,0,0,0-0.2c0,0,0,0,0-0.2c0,0,0,0,0-0.2c0,0,0,0,0-0.2c0,0,0,0,0-0.2
		c0,0,0,0,0-0.2c0,0,0,0,0-0.2c0,0,0,0,0-0.2c0,0,0,0,0-0.2c0,0,0,0,0-0.2c0,0,0,0,0-0.2c0,0,0,0,0-0.2c0,0,0,0,0-0.2c0,0,0,0,0-0.2
		c0,0,0,0,0-0.2c0,0,0,0,0-0.2c0,0,0,0,0-0.2c0,0,0,0,0-0.2c0,0,0,0,0-0.2c0,0,0,0,0-0.2c0,0,0,0,0-0.2c0,0,0,0,0-0.2c0,0,0,0,0-0.2
		c0,0,0,0,0-0.2c0,0,0,0,0-0.2c0,0,0,0,0-0.2c0,0,0,0,0-0.2c0,0,0,0,0-0.2c0,0,0,0,0-0.2c0,0,0,0,0-0.2c0,0,0,0,0-0.2c0,0,0,0,0-0.2
		c0,0,0,0,0-0.2c0,0,0,0,0-0.2c0,0,0,0,0-0.2c0,0,0,0,0-0.2c0,0,0,0,0-0.2c0,0,0,0,0-0.2c0,0,0,0,0-0.2c0,0,0,0,0-0.2
		c-0.2-0.3-0.2-0.3-0.2-0.3c0.2-7.6-2.4-15.3-7.1-22.6c-7.1-10.8-18.4-19.2-32.1-23.9c-15.2-5.2-26.3-3.7-38.3,1.3
		c-6.7,2.7-12.3,6.9-16.5,12.3l-41-14.8c-1.5-0.5-3-0.5-4.4-0.2s-2.4,1.3-2.5,2.5l-3.9,11.3c-0.2,0.3-0.2,0.7-0.2,1L63.7,632.3z"/>
	<path class="st29" d="M65.9,620.2c0-0.3,0-0.7,0.2-1l3.9-11.3c0.3-1.2,1.2-2,2.5-2.5c1.4-0.5,2.9-0.3,4.4,0.2l39.3,14
		c4.1-5.4,9.8-9.4,16.5-12.3c12.2-4.9,27.7-5.2,42.7,0c13.7,4.7,25,13.1,32.1,23.9c4.9,7.2,7.3,15.2,7.1,22.6c0,0,0,0.2,0.2,0.3
		l-0.7,13.1c0,0.7-0.3,2.4-0.8,3.5c-3.5,10.5-12.7,17.4-24.8,21.4c-12.3,4-26.3,3.7-40-1c-13.7-4.9-25-13.1-32.1-23.9
		c-0.5-1-1.2-1.9-1.7-2.7c-3.5-6.2-5.4-11-5.4-17.5L70,633c-1.5-0.5-2.7-1.5-3.4-2.5c-0.5-1-1-1.9-0.8-2.7L65.9,620.2z"/>
	<path class="st2" d="M132.6,607.4c-6.8,2.7-12.3,6.9-16.5,12.3l-39.3-14c-1.5-0.5-3-0.5-4.4-0.2c-1.4,0.3-2.4,1.3-2.5,2.5
		l-3.9,11.3c-0.3,1.2-0.2,2.5,0.5,3.5c0.7,1.2,1.9,2,3.4,2.5l39.3,14c0,6.6,1.9,13.1,5.6,19.7L132.6,607.4z"/>
	<path class="st30" d="M116.4,661.8c7.1,10.8,18.4,19,32.1,23.9c13.7,4.7,27.8,5.1,40,1c12.3-4,20.9-12.1,24.5-22.6
		c3.5-10.5,1.7-22.1-5.4-32.9c-7.1-10.8-18.4-19.2-32.1-23.9c-15.2-5.2-30.9-5.1-43-0.2l-17.9,51.6
		C115.1,659.6,115.9,661,116.4,661.8z"/>
	<path class="st7" d="M184.1,666.6c7.3,0,13.2-5.9,13.2-13.1c0-7.3-5.9-13.1-13.2-13.1c-7.3,0-13.2,5.9-13.2,13.1
		C170.9,660.7,176.8,666.6,184.1,666.6z"/>
	<path class="st31" d="M173.8,651.4c0-2.7,1-5.2,2.5-7.2c-2.5,2.2-4.4,5.6-4.4,9.3c0,6.7,5.6,12.1,12.2,12.1c4,0,7.6-1.9,9.8-4.9
		c-2,1.9-4.9,2.9-7.8,2.9C179.2,663.5,173.8,658,173.8,651.4z"/>
	<path class="st32" d="M419.6,525c-1.2,0-2.5-0.3-3.9-0.8c-2.4-1-3.9-2-4.7-3.4c-1.5-0.8-2.4-1.9-2.9-2.7c-0.3,0.2-0.5,0.5-1,0.7
		c-0.8,0.5-1.9,0.7-3,0.7c-1.2,0-2.4-0.3-3.7-0.8c-3.2-1-4.6-2.7-5.2-3.9c-2-1.3-2.7-3-2.9-4.2v-0.2v-0.7c0-0.5,0-1,0-1.3l-0.8,1.7
		c-0.3,0.8-1,1.7-1.9,2c-0.5,0.3-1.2,0.5-2,0.5c-0.7,0-1.4-0.2-2.2-0.5c-1-0.5-2.4-1.2-3-2.5c-0.8-1.3-0.3-2.7,0-3.4l0.2-0.3
		c0.3-0.8,5.2-14.2,5.9-16c0-0.3,0.2-0.7,0.3-1c0.5-1,1.4-3.4,3.9-4.9c1.3-0.8,3.2-1.3,5.2-1.3c0.8,0,1.9,0,2.9,0.2
		c0.8-0.3,2.7-1,4.2-1c0.5,0,1.2,0,1.5,0.2c0.8,0.3,1.5,0.7,2,1.2c0.3,0,0.8,0,1.2,0.2c2,0.5,3.5,1.7,4.4,3.7l7.1,2.5
		c2.7,1.2,4.9,2.5,6.6,4.2c0.8,1,1.5,1.9,2,3l2.2,0.8c0.8-0.3,1.7-0.5,2.5-0.5c0.5,0,1,0,1.5,0.2h0.2h0.2c1.2,0.7,1.7,1.5,1.7,2.2
		c0,0.2,0,0.3,0,0.5c0.3,0.5,0.7,1,0.8,1.7c0,0.7-0.2,1.2-0.5,1.7c-0.3,0.7-1,1.2-1.9,1.3l-0.2,0.2c-0.5,0.5-1.2,0.8-2,0.8
		c-0.8,0-1.5-0.3-1.9-0.5c-0.5-0.2-1-0.5-1.4-0.8c-0.3,2.2-1.4,4.6-2.7,6.4l-3.9,10.8c-0.2,0.8-1,2.2-2.4,2.9
		C421.4,524.8,420.4,525,419.6,525z"/>
	<path class="st7" d="M405.1,483.7c0.3,0,0.7,0,1,0.2c1.2,0.3,1.7,1,1.9,1.3c0.3,0,0.7-0.2,0.8-0.2c0.2,0,0.5,0,0.7,0.2
		c1.2,0.3,2.7,1,3.4,3.4l7.9,2.7c2.4,1,4.2,2.2,5.7,3.7c0.8,1,1.5,2,2,3.2l3.7,1.3c0.5-0.2,1.5-0.7,2.5-0.7c0.3,0,0.5,0,0.8,0.2
		c0.5,0.3,0.7,0.5,0.7,0.8c0.2,0.3,0,0.5-0.2,0.8c0.5,0.3,1.4,1,0.8,1.3c-0.2,0.5-0.8,0.7-1.2,0.7c-0.2,0-0.3,0-0.3,0
		c0.2,0.2,0,0.3-0.2,0.7c-0.2,0.2-0.3,0.2-0.7,0.2c-0.3,0-0.7-0.2-0.8-0.2c-1.4-0.5-1.9-1.9-1.9-2.4l-2.4-0.8
		c0.7,3.5-0.3,7.1-2.7,9.6c0,0.2,0,0.2,0,0.3l-3.9,10.6c0,0.2-0.3,1.2-1.4,1.7c-0.5,0.2-1.2,0.3-2,0.3c-0.8,0-2-0.2-3.2-0.7
		c-2-0.8-3.5-1.9-4-3c-2-1-2.7-2.2-2.9-3.2c-0.2-1,0.2-1.7,0.2-1.9l1.2-3.5c-0.5-0.3-1.2-0.5-1.4-0.7l-1.9,4.9
		c0,0.2-0.3,1.2-1.5,1.9c-0.5,0.3-1.2,0.5-2,0.5c-0.8,0-1.9-0.2-3-0.7c-2.2-0.7-3.5-1.9-4.2-3c0-0.2-0.2-0.3-0.2-0.3
		c-1.9-1-2.4-2.2-2.5-3.2c0-0.3,0-0.3,0-0.7c-0.2-1,0.3-1.7,0.3-1.9l2.7-7.2c-0.5-0.2-1-0.3-1.5-0.3c-0.2,0-0.3,0-0.5,0
		c-0.8,0.2-1.5,0.8-2,1.9l-3.4,7.1c0,0.2-0.3,0.7-0.8,1c-0.3,0.2-0.7,0.3-1.2,0.3s-0.8-0.2-1.5-0.3c-1-0.3-1.7-1-1.9-1.5
		c-0.3-0.7-0.2-1.3,0.2-1.9v0.2c0.3-1,6.1-16.4,6.1-16.5c0-0.2,0-0.3,0.2-0.3c0.3-1,1.2-2.9,3.2-4.2c1.2-0.7,2.5-1,4.2-1
		c1,0,2,0.2,3,0.3C401.5,484.5,403.5,483.7,405.1,483.7z M405.1,479.6c-1.7,0-3.4,0.5-4.6,1c-0.8-0.2-1.7-0.2-2.5-0.2
		c-2.4,0-4.6,0.5-6.2,1.5c-2.9,1.7-4,4.4-4.6,5.6c-0.2,0.3-0.3,0.8-0.5,1.3c-0.8,2.4-5.4,14.8-5.9,15.8l-0.3,0.7v0.2
		c-0.7,2-0.2,3.5,0.3,4.7c0.7,1.3,2,2.5,3.9,3.2h0.2c1,0.3,2,0.5,2.9,0.5c1.2,0,2.2-0.3,3-0.8c0.2,0,0.3-0.2,0.5-0.3
		c0.5,1,1.4,1.9,2.4,2.7c0.8,1.5,2.7,3.4,6.1,4.6c1.5,0.5,2.9,0.8,4.2,0.8c1.2,0,2.4-0.2,3.4-0.7c0.5,0.5,1.2,1.2,2,1.5
		c1.2,1.5,2.9,2.7,5.4,3.7c1.7,0.7,3.2,0.8,4.6,0.8c1.3,0,2.5-0.2,3.5-0.7c1.9-1,3-2.7,3.4-4l3.7-10.3c1-1.3,1.7-2.9,2.2-4.4
		c0.5,0.2,1.2,0.3,1.9,0.3c1.4,0,2.5-0.5,3.4-1.3c1-0.3,1.7-1,2.4-2c0.7-0.8,1-1.9,0.8-3c-0.2-1-0.5-1.7-1-2.4c0,0,0,0,0-0.2
		c-0.2-1-0.8-2.5-2.7-3.4l-0.2-0.2l-0.3-0.2c-0.7-0.2-1.4-0.3-2-0.3c-0.8,0-1.7,0.2-2.5,0.3l-1-0.3c-0.5-1-1.2-1.9-1.9-2.5l-0.2-0.2
		l-0.2-0.2c-1.9-1.9-4.2-3.4-7.1-4.6h-0.2h-0.3l-6.2-2.2c-1.2-2-2.9-3.4-5.2-4c-0.3-0.2-0.7-0.2-0.8-0.2c-0.5-0.5-1.4-0.8-2-1
		C406.6,479.8,405.9,479.6,405.1,479.6z"/>
	<path class="st33" d="M435.3,502.5l-0.3,1l-0.7,0.2l-0.8-0.5l-0.7-0.5l-0.5-0.8l0.2-0.2v-0.2l0.7,0.2l1.4,0.7L435.3,502.5z"/>
	<path class="st33" d="M434.9,500.7l-2.4-0.5l-0.5,0.3l0.2,0.5l1.7,0.8l1.9,0.7h0.5l0.3-0.3l0.2-0.5l-0.5-0.3l-0.5-0.3L434.9,500.7z
		"/>
	<path class="st33" d="M435.6,499.5h-1.9l-0.2,0.5l1,0.3l0.8,0.3h0.3l0.2-0.5L435.6,499.5z"/>
	<path class="st33" d="M394.9,511c0,0-1-0.3-0.3-2c0.8-1.5,1.7-2.2,2-2s0.3,1.5,0.3,1.5C396,508.3,394.9,510.3,394.9,511z"/>
	<path class="st33" d="M395.7,511.8c0,0-0.8-0.3-0.3-1.5c0.7-1.2,1.4-1.9,1.5-1.7c0.2,0,0.3,0.5,0.2,2.4
		C396.4,512.1,395.7,511.8,395.7,511.8z"/>
	<path class="st34" d="M394.9,511.3c-0.2-0.2-1.2-0.7-0.3-2.5c0.8-1.5,1.9-2.5,2.4-2.4c0.3,0.2,0.3,1.3,0.3,1.9v0.2h-0.2
		c-0.3,0-0.5,0.2-0.8,0.3c-0.7,0.7-1.2,1.9-1.2,2.2L394.9,511.3z M394.7,508.9c-0.3,1.2-0.2,1.7,0,1.9c0.2-0.7,0.7-1.7,1.2-2.2
		c0.3-0.3,0.7-0.5,1-0.5c0-0.7,0-1.3-0.2-1.3C396.4,506.6,395.5,507.3,394.7,508.9z"/>
	<path class="st34" d="M395.7,512c0,0-0.3-0.2-0.5-0.5c-0.2-0.3-0.2-0.8,0-1.2c0.7-1.3,1.5-1.9,1.9-1.9c0.2,0,0.5,0.3,0.2,2.7
		C396.5,512.5,395.7,512,395.7,512z M395.4,510.3c-0.2,0.3-0.2,0.8-0.2,1.2c0.2,0.3,0.3,0.3,0.3,0.3v0.2v-0.2c0,0,0.7,0.3,1.2-0.8
		c0.3-1.9,0.2-2.4,0-2.4C396.7,508.6,396,509.1,395.4,510.3z"/>
	<path class="st33" d="M395.7,512.1c0,0,0.8-0.2,1.2-0.7c-0.3,0.8-0.3,1.3-0.3,1.3S396,512.5,395.7,512.1z"/>
	<path class="st33" d="M397.8,514.3c0,0-1.4-0.7-0.5-2.4c1.2-1.5,2-1.9,2.4-1.5C398.5,511.8,397.3,513.3,397.8,514.3z"/>
	<path class="st33" d="M399.5,515.7c0,0-1.2,0-1.5-1.2c0-0.3,0-0.7,0.2-1.2c0.5-2,2.7-3.9,3.2-3c0.3,0.8,0.3,1.2,0.3,1.7
		C400.8,512.1,398.8,513.5,399.5,515.7z"/>
	<path class="st33" d="M400,516c0,0-1.2-0.5-0.3-2c1-1.5,1.9-1.9,1.9-1.7s0.5,0.5,0.2,2.5C401.3,516.4,400,516,400,516z"/>
	<path class="st34" d="M398,514.8l-0.3-0.2c0,0-0.5-0.3-0.8-1c-0.2-0.3-0.2-1,0.2-1.7c1-1.5,2-1.9,2.7-1.9h0.2l0.2,0.2l-0.2,0.2
		c-1.5,1.5-2.2,3-1.9,4L398,514.8L398,514.8z M397.2,512.1c-0.3,0.5-0.3,1-0.2,1.3c0.2,0.3,0.3,0.5,0.3,0.7
		c-0.2-1.3,1.2-2.9,1.9-3.7C399,510.3,398.1,510.6,397.2,512.1z"/>
	<path class="st34" d="M398.6,515.9c-0.5-0.2-1.4-0.7-1.2-2.5c0.3-1.5,1.7-3,2.7-3.5c0.3-0.2,0.5-0.2,0.7-0.2c0.2,0,0.3,0.2,0.3,0.3
		c0.3,0.8,0.3,1.2,0.3,1.5c0,0.2,0,0.2,0,0.3v0.2h-0.2c-0.7,0.3-2.7,1.9-2,3.7v0.2h-0.1C399.5,516,399.1,516,398.6,515.9z
		 M398,513.5c-0.3,1.3,0.3,1.9,0.8,2.2c0.2,0,0.3,0.2,0.3,0.2c-0.3-1.9,1.4-3.5,2.2-3.9v-0.2c0-0.3,0-0.7-0.3-1.3
		c0-0.2-0.2-0.2-0.2-0.2c-0.2,0-0.3,0-0.5,0.2C399.5,510.6,398.5,512,398,513.5z"/>
	<path class="st34" d="M400,516.4c0,0-0.3-0.3-0.7-0.8c-0.2-0.3-0.2-1,0.3-1.5c1-1.7,1.9-1.9,2.2-1.9c0.3,0.2,0.7,0.8,0.3,2.7
		c-0.2,0.7-0.3,1.2-0.8,1.3C400.5,516.4,400,516.4,400,516.4z M399.8,514c-0.3,0.5-0.3,1-0.3,1.3c0.2,0.3,0.3,0.5,0.5,0.7
		c0,0,0.3,0.2,0.8-0.2c0.3-0.2,0.5-0.5,0.7-1.2c0.3-1.9,0-2.5-0.2-2.5C401.5,512.3,400.8,512.5,399.8,514z"/>
	<path class="st35" d="M410.1,516.7c0,0-1-0.3-0.3-2c0.8-1.5,1.7-2.2,2-2s0.3,1.5,0.3,1.5C411.1,513.8,409.9,516,410.1,516.7z"/>
	<path class="st34" d="M410.1,517c-0.2-0.2-1.2-0.7-0.3-2.5c0.8-1.5,1.9-2.5,2.4-2.4c0.3,0.2,0.3,1.3,0.3,1.9v0.2h-0.2
		c-0.3,0-0.5,0.2-0.8,0.3c-0.7,0.7-1.2,1.9-1.2,2.2L410.1,517z M409.8,514.7c-0.3,1.2-0.2,1.7,0,1.9c0.2-0.7,0.7-1.7,1.2-2.2
		c0.3-0.3,0.7-0.5,1-0.5c0-0.7,0-1.3-0.2-1.3C411.6,512.3,410.6,513,409.8,514.7z"/>
	<path class="st35" d="M410.8,517.7c0,0-1-0.3-0.3-1.7c0.7-1.3,1.5-1.9,1.7-1.9c0.2,0.2,0.3,0.7,0.2,2.7
		C411.6,518,410.8,517.7,410.8,517.7z"/>
	<path class="st34" d="M410.8,517.9c0,0-0.3-0.2-0.5-0.5s-0.2-0.8,0.2-1.3c0.7-1.3,1.5-2,1.9-1.9c0.2,0,0.7,0.3,0.2,2.7
		C411.8,518,410.8,517.9,410.8,517.9z M410.5,516c-0.2,0.3-0.2,0.8-0.2,1.2c0.2,0.3,0.3,0.3,0.3,0.3v0.2v-0.2c0,0,0.8,0.3,1.2-0.8
		c0.3-2,0-2.5,0-2.5S411.1,514.8,410.5,516z"/>
	<path class="st35" d="M410.6,517.9c0,0,1.2,0,1.5-0.8c-0.3,1.2-0.2,1.7-0.2,1.7S411.1,518.2,410.6,517.9z"/>
	<path class="st33" d="M413.2,519.7c0,0-1.4-0.7-0.5-2.4c1-1.5,1.9-1.9,2.4-1.7C413.7,517.2,412.6,518.7,413.2,519.7z"/>
	<path class="st34" d="M413.5,520.2l-0.3-0.2c0,0-0.7-0.3-0.8-1c-0.2-0.3-0.2-1,0.2-1.7c1-1.7,1.9-2,2.5-1.9c0,0,0,0,0.2,0l0.2,0.2
		l-0.2,0.3C413.8,517.7,413.2,519.2,413.5,520.2z M412.6,517.9c-0.3,0.5-0.3,1-0.2,1.3c0.2,0.3,0.3,0.5,0.5,0.7
		c-0.3-1.2,0.8-2.9,1.7-3.9C414.2,515.9,413.5,516.4,412.6,517.9z"/>
	<path class="st33" d="M414.8,521.1c0,0-1.9,0-1.4-2.2c0.5-2,2.7-3.9,3.2-3c0.3,0.8,0.3,1.2,0.3,1.7
		C416.2,517.7,414.2,519.1,414.8,521.1z"/>
	<path class="st34" d="M414.2,521.1c-0.3-0.2-1.2-0.7-1-2.4c0.3-1.5,1.7-2.7,2.5-3.2c0.3-0.2,0.5-0.2,0.7-0.2s0.3,0.2,0.3,0.3
		c0.3,0.7,0.3,1.2,0.3,1.3c0,0.2,0,0.2,0,0.3v0.2h-0.2c-0.7,0.3-2.5,1.7-1.9,3.5v0.2h-0.2C414.8,521.1,414.5,521.1,414.2,521.1z
		 M413.5,518.7c-0.3,1.3,0.3,1.9,0.8,2c0.2,0,0.3,0,0.3,0.2c-0.3-1.9,1.4-3.2,2-3.5v-0.2c0-0.3,0-0.7-0.3-1.3c0-0.2,0-0.2-0.2-0.2
		s-0.3,0-0.5,0.2C415,516.2,413.8,517.4,413.5,518.7z"/>
	<path class="st33" d="M415.5,521.4c0,0-1.2-0.5-0.3-2c0.8-1.5,1.7-1.9,1.9-1.9s0.5,0.5,0.3,2.5
		C416.9,521.9,415.5,521.4,415.5,521.4z"/>
	<path class="st34" d="M415.5,521.8c0,0-0.3-0.3-0.7-0.7c-0.2-0.3-0.2-1,0.2-1.5c1-1.7,1.9-2,2-1.9c0.3,0.2,0.7,0.8,0.3,2.7
		c-0.2,0.7-0.3,1.2-0.8,1.3C416,521.9,415.5,521.8,415.5,521.8z M415.2,519.6c-0.3,0.5-0.3,1-0.2,1.3c0.2,0.3,0.3,0.5,0.5,0.5
		c0,0,0.3,0.2,0.8-0.2c0.3-0.2,0.5-0.5,0.7-1.2c0.3-1.9,0-2.5-0.2-2.5C416.9,517.5,416,517.9,415.2,519.6z"/>
	<path class="st34" d="M397.2,500.5c-0.2,0-0.2-0.2-0.2-0.3c0-0.2,0.2-0.3,0.3-0.3c0,0,0.7,0,1.5-0.3c1.2-0.5,2-1.9,2.7-3.4
		c0-0.2,0.2-0.2,0.3-0.2c0.2,0,0.2,0.2,0.2,0.3c-0.8,2.2-2,3.2-2.9,3.5C398,500.5,397.3,500.5,397.2,500.5z"/>
	<path class="st34" d="M401.5,496.5c-0.7-0.3-1.2-1.2-1.2-1.2c0-0.2,0-0.3,0.2-0.3c0.2,0,0.3,0,0.3,0.2c0,0,0.3,0.7,0.8,0.8
		c0.3,0.2,0.8,0,1.2-0.3c0.2-0.2,0.3-0.2,0.3,0c0.2,0.2,0.2,0.3,0,0.3C402.7,496.5,402.2,496.6,401.5,496.5
		C401.7,496.5,401.5,496.5,401.5,496.5z"/>
	<path class="st34" d="M399.5,489.2c0,0,0.2,0.2,0.3,0c0.2-0.2-0.2-0.3-0.2-0.3s-2.4-1.9-4.6-0.7c-0.3,0.3,0,0.7,0,0.7
		s0.2,0.3,0.5,0C396.4,488.5,398,488,399.5,489.2z"/>
	<path class="st34" d="M397.2,491.2c0,0,1.9-0.2,1.7,1.3c-0.2,1.7-3.4,1.7-3.2,0c-0.7-1.7,1.4-2.7,3.2-2
		C398.8,490.9,397.2,491.2,397.2,491.2z"/>
	<path class="st36" d="M398.5,493.1c-0.2,0.5-0.8,0.8-1.5,0.7c-0.7-0.2-1.2-0.5-1-1.3c0.3-0.8,1.2-1.2,1.9-0.8
		C398.3,491.7,398.8,492.4,398.5,493.1z"/>
	<path class="st37" d="M398.5,493.1c-0.2,0.5-0.8,0.8-1.5,0.5c-0.5-0.3-1-0.7-0.8-1.2s1-1,1.5-0.8
		C398.3,491.9,398.6,492.4,398.5,493.1z"/>
	<path class="st34" d="M398.3,493.3c0,0,0.3-1-0.3-1.2c-0.5-0.3-0.8,0.2-0.8,0.2l0.3,0.3l-0.5,0.2c0,0,0.2,1,1,0.8
		C398.1,493.4,398.3,493.3,398.3,493.3z"/>
	<path class="st37" d="M398,493.1c0.2,0,0.3-0.2,0.3-0.3c0-0.2-0.2-0.3-0.3-0.3c-0.2,0-0.3,0.2-0.3,0.3
		C397.6,492.9,397.8,493.1,398,493.1z"/>
	
		<linearGradient id="SVGID_5_" gradientUnits="userSpaceOnUse" x1="459.5085" y1="665.2" x2="476.2794" y2="665.2" gradientTransform="matrix(1 0 0 1 -47.5 -169)">
		<stop  offset="0" style="stop-color:#BEBEBE"/>
		<stop  offset="1" style="stop-color:#5E5E5E"/>
	</linearGradient>
	<path class="st38" d="M412,489.7v1.7l6.4,2c6.1,1.9,9.6,5.6,10.5,9.9c0.3-3.9-2.5-8.9-8.1-11l-8.4-3.2L412,489.7z"/>
	<path class="st7" d="M405.7,499.8l-1.2,1.9c0,0-0.5,1,0.3,1.2c0.8,0.3,1.2,0.3,1.2,0.3s0.7,0.3,1.2-0.5l0.7-1.2l1.2,0.3
		c0,0,1.9,1,3.9-0.3c-0.7,0.8-0.7,1.5,0.2,1.9c0.8,0.3,1,0.3,1,0.3s0.8,0.3,1.4-0.8l1.9-2.9l1.2,0.3c0,0,0.3,0.2,0,0.3l-1.5,2.5
		c0,0-0.7,1,0.3,1.3c1,0.3,1.2,0.3,1.2,0.3s0.3,0.3,0.7,0l-0.7,1.2c0,0-0.7,0.8,0.3,1.2l1.2,0.3c0,0,0.7,0.3,1.2-0.7l0.5-1l0.8,0.3
		c3.5,1.3,5.2-0.8,5.7-2.2c0,0,1.2-2.5-2.2-3.7l-2.5-1c0,0-0.8-0.3-1.4,0.3l-0.3,0.7c0,0,0.7-1.5-2-2.7l-0.8-0.3l0.5-1
		c0,0,0.7-0.8-0.3-1.2c-1-0.3-1-0.3-1-0.3s-0.7-0.3-1.2,0.3c-0.3,0.8-1.7,2.7-1.7,2.7s0.5-1.9-2.7-2.9c-1.4,0.5-1.2,1.9-1.2,1.9
		l0.5,0.3c0,0,0.8,0.3,0.3,1c-0.3,0.7-0.7,1.2-2.5,0.5l0.2-0.3C409.1,499.3,406.2,499.3,405.7,499.8z"/>
	<path class="st34" d="M405.2,502.5l1,0.3c0,0,0.3,0.2,0.5-0.3c0.3-0.3,0.7-1.2,0.7-1.2s0.2-0.3,0.5-0.2c1.2,0.3,3.7,1.7,5.6-0.8
		c0.3-0.7,1.9-2.7-1.9-3.9c-0.8,0.3-0.7,1-0.7,1s1.9,0.5,1.2,1.9c-0.8,1.2-1.4,1.5-2.4,1.2s-1.7-0.3-1.2-1c-1.4,0-1.9,0.2-1.9,0.2
		l-1.2,2C405.1,501.9,404.7,502.5,405.2,502.5z"/>
	<path class="st34" d="M416.5,496.8c0,0,0.2-0.5,0.5-0.3s1.2,0.3,1.2,0.3s0.3,0.2-0.2,0.7c-0.5,0.5-0.5,0.8-0.5,0.8
		s-0.3,0.3,0.2,0.5c0.3,0.2,1.2,0.3,1.2,0.3c1.4,0.5,2,1.2,1.2,2.7l-1.7,2.7c0,0-0.2,0.3-0.5,0.3c-0.3-0.2-1-0.3-1-0.3
		s-0.3-0.2-0.2-0.3c0.2-0.2,1.7-2.7,1.7-2.7s0.7-0.8-0.3-1.2c-1-0.3-1-0.3-1-0.3s-0.5-0.3-0.8,0.3l-1.9,3c0,0-0.2,0.3-0.7,0.3
		c-0.5-0.2-0.8-0.3-0.8-0.3s-0.3-0.2-0.2-0.5L416.5,496.8z"/>
	<path class="st34" d="M422.6,500.7c0,0-0.3-0.3-0.7,0.3l-3.5,5.9c0,0-0.3,0.3,0,0.5s1,0.3,1,0.3s0.3,0.2,0.5-0.3
		c0.2-0.3,0.7-1.2,0.7-1.2s0.2-0.3,0.7-0.3c0.5,0,1,0.3,1,0.3c2.2,0.8,4,0,4.9-1.9c0.7-1.9-0.8-2.9-1.7-3.2
		C424.3,501.4,422.6,500.7,422.6,500.7z"/>
	<path class="st7" d="M423.4,503l-1.2,1.9l0.5,0.2c1.5,0.7,2.7-1.3,1.5-1.7L423.4,503z"/>
	
		<linearGradient id="SVGID_6_" gradientUnits="userSpaceOnUse" x1="445.8312" y1="675.722" x2="445.8312" y2="653.8504" gradientTransform="matrix(1 0 0 1 -47.5 -169)">
		<stop  offset="0" style="stop-color:#BEBEBE"/>
		<stop  offset="1" style="stop-color:#898989"/>
	</linearGradient>
	<path class="st39" d="M385.4,506.7l6.2-15.8c1.2-2.5,3-5.9,10-4.2c-0.3,0.5,0.3,0.7,0.3,0.7c1.9-0.3,6.9-2.5,9.5,0
		c-0.8-1.9-3.2-2-3.2-2l-5.4,0.7l-0.3-0.3c-2.5-1-8.6-1.9-10.8,2.7C389.8,492.1,384.9,505.7,385.4,506.7z"/>
	<path class="st34" d="M437.3,502.4c0.3-0.8-0.5-1.3-1-1.7c0.2-0.3,0.3-0.5,0.2-0.8c0-0.3-0.2-0.5-0.7-0.8c-1.2-0.3-2.7,0.3-3.4,0.5
		l-3.7-1.3c-0.5-1.2-1.2-2.2-2-3.2c-1.5-1.5-3.5-2.7-5.7-3.7l-7.9-2.7c-0.7-2.4-2-3-3.4-3.4c-0.3-0.2-0.8-0.2-1.5,0
		c-0.2-0.3-0.7-1-1.9-1.3c-1.7-0.5-4.4,0.7-5.1,1c-2.9-0.5-5.4-0.3-7.3,0.7c-2,1.2-2.7,3.2-3.2,4.2c-0.2,0.2-0.2,0.3-0.2,0.3
		c0,0.2-5.7,15.5-6.1,16.5v0.2c-0.3,0.5-0.5,1.2-0.2,1.9c0.3,0.5,1,1.2,1.9,1.5c1.2,0.3,1.9,0.3,2.7,0c0.5-0.3,0.8-0.8,0.8-1
		l3.4-7.1c0.5-1.2,1.2-1.9,2-1.9c0.7-0.2,1.4,0,2,0.3l-2.7,7.2c0,0.2-0.3,1-0.3,2c0.2,1.2,0.5,2.5,2.5,3.5c0,0.2,0.2,0.3,0.2,0.3
		c0.5,1.2,1.9,2.4,4.2,3c2,0.8,3.9,0.8,5.1,0.2c1.2-0.7,1.5-1.9,1.5-1.9l1.9-4.9c0.3,0.2,0.8,0.3,1.4,0.7l-1.2,3.5
		c0,0.2-0.3,0.8-0.2,1.9c0.2,1,0.8,2.2,2.9,3.2c0.5,1.2,1.9,2.2,4,3c2.2,0.8,3.9,0.8,5.1,0.3s1.3-1.5,1.3-1.7l3.9-10.6
		c0-0.2,0-0.2,0-0.3c2.2-2.7,3.4-6.2,2.7-9.6l2.4,0.8c0.2,0.5,0.5,1.9,1.9,2.4c0.3,0.2,1.2,0.3,1.5,0c0.2-0.3,0.3-0.5,0.2-0.7
		C436.1,503,437,503,437.3,502.4z M435.6,500c0,0.2,0,0.3-0.2,0.3c-0.3-0.2-1.2-0.3-1.9-0.5c0.5-0.2,1.2-0.3,1.7,0
		C435.4,499.8,435.6,500,435.6,500z M405.7,484.7c0.7,0.3,1.2,0.5,1.2,0.7c-1,0.2-2,0.3-2.9,0.3c-0.7-0.3-1.3-0.3-1.9-0.5
		C403.4,484.7,404.9,484.2,405.7,484.7z M395.2,508.3l2.7-7.2c0.8,0.5,1.7,1.2,2.2,1.5c-0.8,2.2-3,8.3-3.2,8.8
		c-0.2,0.3-0.3,0.7-0.3,1.2C394.2,511,395.2,508.4,395.2,508.3z M410.3,514.8l1.2-3.5c0.7,0.3,1.5,0.3,2.5,0.7l-1.9,5
		c0,0.2-0.3,0.7-0.2,1.3C409.4,517,410.1,515,410.3,514.8z M425.8,510c-0.2,0.2-0.2,0.3,0,0.5l-3.9,10.5c0,0-0.2,0.8-1.2,1.2
		c-1,0.5-2.5,0.3-4.4-0.3c-1.9-0.7-3.2-1.7-3.7-2.7c-0.3-1-0.2-1.7-0.2-1.7l2.4-6.2c0.2-0.2,0-0.3-0.3-0.5s-0.3,0-0.5,0.3l-0.2,0.3
		c-2.7-0.5-4.1-1.3-4.6-1.7l0.2-0.5c0.2-0.2,0-0.3-0.3-0.5c-0.2-0.2-0.3,0-0.5,0.3l-2.4,6.2c0,0-0.2,1-1.2,1.5
		c-1,0.5-2.5,0.5-4.4-0.2c-1.9-0.7-3.2-1.7-3.7-2.7c-0.3-1-0.2-1.7,0-2c0.2-0.5,3.5-9.6,3.5-9.6l-0.7-0.3c0,0,0,0,0,0.2
		c-1.2-1.2-3.5-2.7-5.4-2.2c-1.2,0.3-1.9,1.2-2.7,2.4l-3.4,7.1c0,0,0,0,0,0.2c0,0-0.2,0.3-0.5,0.5c-0.3,0.3-1.2,0.2-1.9-0.2
		c-0.8-0.3-1.4-0.7-1.5-1.2c-0.2-0.3,0-1,0.2-1.3c0,0,0-0.2,0.2-0.2c0.3-1,5.7-15.8,5.9-16.5c0-0.2,0.2-0.3,0.2-0.3
		c0.7-1.9,2.4-5.9,9.6-4.4c0.5,0.2,1.2,0.3,1.9,0.5c-0.2,0.2-0.2,0.2-0.2,0.3c0,0.2,0.3,0.3,0.3,0.3c0.3,0,0.5-0.2,0.8-0.2
		c0.2,0,0.3,0,0.3-0.2c1.7-0.3,4-0.7,4.7-0.5c1.2,0.3,2.5,0.8,2.9,3.2c0.3,2.2-1,8.3-3.5,9.8c-1.2,0.3-1.9,0.3-2.7,0.3
		c-1.2-0.2-2.2-0.3-2.7,1.3c-0.2,0.2,0,0.3,0.3,0.5c0.2,0.2,0.3,0,0.5-0.3c0.3-1.2,0.8-1.2,1.9-1c0.8,0.2,1.9,0.3,3.2-0.3
		c1.9-1,2.9-3.5,3.4-5.1c0.5-1.9,0.8-3.9,0.7-5.1l7.4,2.7c4.2,1.7,7.3,4.4,8.1,8.1C429.4,503.5,428.3,507.3,425.8,510z M434.1,503.2
		c-0.7-0.3-1.2-0.8-1.4-1.3c0.2,0.2,0.3,0.2,0.5,0.3c0.5,0.3,1.2,0.5,1.4,0.7c0.2,0.2,0.2,0.3,0.2,0.5
		C434.8,503.2,434.6,503.2,434.1,503.2z M435.3,502.2c-0.2,0-0.8-0.3-1.5-0.7c-0.8-0.3-1.2-0.7-1.4-0.8c1.2-0.2,2.7,0.3,3.4,0.7
		c0.3,0.3,1,0.5,0.8,0.8C436.4,502.4,435.9,502.4,435.3,502.2z"/>
	<path class="st40" d="M431.4,500.2c0,0-0.2,0.2-0.2,0.3v0.2l-2.2-0.8c0-0.2-0.2-0.3-0.2-0.3L431.4,500.2z"/>
	<path class="st7" d="M301.5,494.3L281,508.6l12,29l22.3,5.2l16.5-16.2l-4.7-31L301.5,494.3z"/>
	<path class="st41" d="M325,498.2l-22.8-1.3l12,43.7l14.9-14.5L325,498.2z"/>
	<path class="st42" d="M283.9,509.8l10.5,26l19.7,4.7l-12-43.7L283.9,509.8z"/>
	<path class="st43" d="M314.2,518.5l-5.1,4.2l-6.1,1.7l-0.8,7.9l-5.2,1.5l5.4-35.4L314.2,518.5z M313.5,517.2l-8.1-8.8l-1.3,11.3
		l4.2-1.2L313.5,517.2z"/>
	<path class="st44" d="M302.5,498.5l2.9,10.1l7.6,8.8l-4.9,1.3l1.2,4.2l6.6-1.9l5.1,6.4l5.1-1.2L302.5,498.5z"/>
	<path class="st7" d="M439.3,553.1l3.4-0.7c0,0-4.2,9.6-4.6,10.5c-0.2,0.3-0.3,0.5-0.3,0.8c-0.2,0.8-0.2,2.5-0.2,2.5l-3,0.7
		c0,0,0.2-1.9-0.2-2.7c-0.2-0.8-0.8-1.5-1.2-2.2c-0.3-0.7-1.2-2.2-1.2-2.2l3-0.7l0.8,1.7L439.3,553.1z"/>
	<path class="st7" d="M433.4,556.3c0.7,0.3,1.5,2.2,1.5,2.2s-3.2,0.8-4.9,1.2c-0.3,0.2-1.5,0.3-1.5,0.3v8.3l-2.7,0.7
		c0,0-0.3-8.9-0.2-10.5c0-0.5,0.8-0.5,2-1c0.7-0.2,1.5-0.3,2-0.3C431,556.5,432.6,556,433.4,556.3z"/>
	<path class="st7" d="M423.6,560.4c0.7,1.2,0.7,4.2,0.7,4.2s-3.5,0.7-5.4,1.2c-0.5,0.2-1.4,0.3-1.4,0.5c-0.2,0.3,0.3,1,0.7,1.2
		c0.3,0.3,1.2,0.2,1.2,0.2c1.7-0.2,4.9-1.2,4.9-1.2v2.7c0,0-4.6,1.2-6.9,1.2c-0.3,0-1-0.2-1.2-0.3c-0.2,0-0.2-0.2-0.3-0.3
		c-0.2,0-0.3-0.3-0.3-0.3c-0.8-1.2-0.8-4.2-0.5-5.7c0-0.2,0-0.3,0.2-0.5c0-0.3,0.2-0.5,0.2-0.7s0.2-0.2,0.2-0.3
		c0-0.2,0.2-0.3,0.2-0.3c0.2-0.3,0.3-0.5,0.5-0.8c0.8-1,2.4-1.9,4.6-2.2c0.8-0.2,2-0.2,2.7,0.5C423.1,559.7,423.4,560.2,423.6,560.4
		z M421.4,563.1c0,0,0-0.5-0.5-1c-0.3-0.3-0.8-0.3-1.7-0.3c-2.4,0.3-1.9,2.2-1.9,2.2L421.4,563.1z"/>
	<path class="st7" d="M410.5,561.2l2.7-0.7c0,0,0.2,7.4,0.2,11.1c-1.2,0.3-2,0.5-3,0.7c-2.2,0.5-4.1,1.2-5.1-0.2c-1.2-1.3-1-4-1-5.7
		c0-1.2,0-3.7,0-3.7l2.7-0.7c0,0,0.2,4,0.2,5.9c0,0.7,0,1.3,0.3,1.9c0.3,0.3,0.7,0.3,1.7,0.2c0.3,0,1.4-0.3,1.4-0.3L410.5,561.2
		L410.5,561.2z"/>
	<path class="st7" d="M401.8,564.4c0.8,2.2,0.2,4.9-0.2,7.2c0.8-0.2,1.5-0.3,1.7-0.3c0.2,0,0,2.7-0.2,2.7c-0.7,0.2-2.7,0.7-3.7,0.8
		c-2.9,0.7-5.7,1.5-7.4,0.3c-0.7-0.3-1.4-1.3-1.7-2c-0.3-1.2-0.5-2.5-0.5-3.7s0.2-2,0.3-3c0.7-2.5,2.5-4.6,6.2-5.1
		c0.7-0.2,1.9,0,2.5,0.3l0.3,0.2C400.3,562.2,401.3,563.4,401.8,564.4z M399,569.3c0-1.2,0.3-2.2,0-3.2s-1.2-1.7-1.9-1.7
		c-1.7-0.2-3,1-3.5,1.7c-0.5,1-0.5,1.9-0.5,3.4c0,1,0.2,2,0.7,2.7c1,1.2,2.9,0.3,5.1,0C399,571.1,399,570.3,399,569.3z"/>
	<path class="st7" d="M388.6,566.3c0,0.8,0,1.9,0,2.7c-1,0.3-1.9,0.3-3,0.7c0-1,0-1.9,0-2.7C386.8,566.6,387.4,566.4,388.6,566.3z"
		/>
	<path class="st7" d="M385.7,570.3c1-0.3,1.9-0.3,2.9-0.7c0.2,2.2,0.2,5.7,0,8.1c0,1.5,0,2.7-0.8,3.5c-0.2,0.2-0.2,0-0.2,0.2
		c-0.2,0.3-1,0.5-1.4,0.8c-0.7,0.3-1.7,0.3-2.5,0.5c0-1,0.2-2,0.2-2.9c2.4-0.3,1.9-2.4,1.9-4.6C385.6,574.2,385.7,571,385.7,570.3z"
		/>
	<path class="st7" d="M380.2,577.2c-0.5,2.4-2.2,4.2-4.9,4.7c-1.2,0.3-2.5,0.3-3.4,0.2c-1.9-0.3-3.5-1.3-4.7-2.7
		c-1.5-1.9-2.5-4.9-0.7-7.4l-0.2,0.5v0.3c-0.3,5.6,5.6,8.8,10.5,7.2C378.2,579.6,379.5,578.4,380.2,577.2z"/>
	<path class="st7" d="M379,570.8c-0.2,0.5-1,1.5-1.5,1.9c-1.9,0.8-3.4,0.3-4.2-0.7c-0.2-0.2-0.3-0.5-0.3-0.5c-0.3-0.8-0.7-2,0-2.9
		c-0.2,0.7,0,1.3,0.3,1.9c0.2,0.3,0.3,0.7,0.8,1c0.5,0.5,0.8,0.5,1.4,0.8c0.3,0.2,0.5,0.2,0.7,0.2
		C376.5,572.2,377.5,572.3,379,570.8z"/>
	<path class="st7" d="M376.6,575.9c1.2-0.3,2.4-1.2,3-2c-0.3,1.9-1.9,3.4-4.7,3.5c-2.2,0.2-4.9-1.5-5.6-3.5c-0.5-1.5-0.2-2.7,0.3-4
		c-0.2,0.7-0.2,1.2-0.2,1.5C370.4,574.7,373.9,576.5,376.6,575.9z"/>
	<path class="st45" d="M388.6,569.6c0.2,2.2,0.2,5.7,0,8.1c0,1.5,0,2.7-0.8,3.5c-0.2,0.2-0.2,0-0.2,0.2c-0.2,0.3-1,0.5-1.4,0.8
		c-0.7,0.3-1.7,0.3-2.5,0.5c0-1,0.2-2,0.2-2.9c2.4-0.3,1.9-2.4,1.9-4.6c0-1.2,0-4.7,0-5.1C386.8,570.1,387.6,570,388.6,569.6z"/>
	<path class="st45" d="M421.4,563.1l-4.2,1c0,0-0.3-1.9,1.9-2.2c0.8-0.2,1.2-0.2,1.7,0.3C421.4,562.5,421.4,563.1,421.4,563.1z"/>
	<path class="st45" d="M366.5,572.5l0.2-0.5c-1.9,2.7-1,5.7,0.7,7.4c1.2,1.2,2.7,2.4,4.7,2.7c0.8,0.2,2,0.3,3.4-0.2
		c2.7-0.7,4.2-2.4,4.9-4.6v-0.2c-0.7,1.2-2,2-3.2,2.5C372.2,581.4,366.2,578.1,366.5,572.5z"/>
	<path class="st45" d="M434.9,558.5c0,0-3.2,0.8-4.9,1.2c-0.3,0.2-1.5,0.3-1.5,0.3v8.3l-2.7,0.7c0,0-0.3-8.9-0.2-10.5
		c0-0.5,0.8-0.5,2-1c0.7-0.2,1.5-0.3,2-0.3c1.4-0.3,2.9-0.8,3.5-0.5C434.1,556.5,434.9,558.5,434.9,558.5z"/>
	<path class="st45" d="M406.7,562c0,0,0.2,4,0.2,5.9c0,0.7,0,1.3,0.3,1.9c0.3,0.3,0.7,0.3,1.7,0.2c0.3,0,1.4-0.3,1.4-0.3l0.2-8.4
		l2.7-0.7c0,0,0.2,7.4,0.2,11.1c-1.2,0.3-2,0.5-3,0.7c-2.2,0.5-4.1,1.2-5.1-0.2c-1.2-1.3-1-4-1-5.7c0-1.2,0-3.7,0-3.7L406.7,562z"/>
	<path class="st45" d="M398.8,572.2c-2.2,0.3-4,1.2-5.1,0c-0.5-0.7-0.5-1.9-0.7-2.7c0-1.3,0-2.4,0.5-3.4c0.3-0.8,1.7-1.9,3.5-1.7
		c0.5,0,1.5,0.7,1.9,1.7c0.3,0.8,0.2,2,0,3.2C399,570.3,399,571.1,398.8,572.2z"/>
	<path class="st45" d="M388.6,566.3c0,0.8,0,1.9,0,2.7c-1,0.3-1.9,0.3-3,0.7c0-1,0-1.9,0-2.7C386.8,566.6,387.4,566.4,388.6,566.3z"
		/>
	<path class="st45" d="M424.1,564.7c0,0-3.5,0.7-5.4,1.2c-0.5,0.2-1.4,0.3-1.4,0.5c-0.2,0.3,0.3,1,0.7,1.2c0.3,0.3,1.2,0.2,1.2,0.2
		c1.7-0.2,4.9-1.2,4.9-1.2v2.7c0,0-4.6,1.2-6.9,1.2c-0.3,0-1-0.2-1.2-0.3c-0.2,0-0.2-0.2-0.3-0.3c-0.2,0-0.3-0.3-0.3-0.3
		c-0.8-1.2-0.8-4.2-0.5-5.7c0-0.2,0-0.3,0.2-0.5c0-0.3,0.2-0.5,0.2-0.7s0.2-0.2,0.2-0.3c0-0.2,0.2-0.3,0.2-0.3
		c0.2-0.3,0.3-0.5,0.5-0.8c0.8-1,2.4-1.9,4.6-2.2c0.8-0.2,2-0.2,2.7,0.5c0.2,0.2,0.3,0.5,0.5,0.8
		C424.1,561.7,424.1,564.7,424.1,564.7z"/>
	<path class="st45" d="M379.7,573.7c-0.5,1-1.9,1.9-3,2c-2.7,0.5-6.6-1.2-6.9-4.7c0-0.3,0-0.8,0.2-1.5c-0.7,1.3-1,2.5-0.3,4
		c0.7,2.2,3.4,3.9,5.6,3.5C377.8,577.2,379.5,575.7,379.7,573.7z"/>
	<path class="st45" d="M379,570.8c-1.4,1.5-2.5,1.3-3,1.3c-0.2,0-0.3,0-0.7-0.2c-0.5-0.2-0.8-0.3-1.4-0.8c-0.3-0.3-0.7-0.7-0.8-1
		c-0.3-0.3-0.3-1.2-0.3-1.9c-0.5,0.8-0.3,2.2,0,2.9c0,0.2,0.3,0.5,0.3,0.5c0.8,0.8,2.4,1.5,4.2,0.7C378,572.5,379,571.3,379,570.8z"
		/>
	<path class="st45" d="M442.5,552.4c0,0-4.2,9.6-4.6,10.5c-0.2,0.3-0.3,0.5-0.3,0.8c-0.2,0.8-0.2,2.5-0.2,2.5l-3,0.7
		c0,0,0.2-1.9-0.2-2.7c-0.2-0.8-0.8-1.5-1.2-2.2c-0.3-0.7-1.2-2.2-1.2-2.2l3-0.7l0.8,1.7l3.2-7.6L442.5,552.4z"/>
	<path class="st45" d="M401.7,571.7c0.8-0.2,1.5-0.3,1.7-0.3s0,2.7-0.2,2.7c-0.7,0.2-2.7,0.7-3.7,0.8c-2.9,0.7-5.7,1.5-7.4,0.3
		c-0.7-0.3-1.4-1.3-1.7-2c-0.3-1.2-0.5-2.5-0.5-3.7s0.2-2,0.3-3c0.7-2.5,2.5-4.6,6.2-5.1c0.7-0.2,1.9,0,2.5,0.3l0.3,0.2
		c1,0.3,2,1.5,2.5,2.7C402.7,566.6,402,569.3,401.7,571.7z"/>
	<path d="M439.3,553.1l3.4-0.7c0,0-4.2,9.6-4.6,10.5c-0.2,0.3-0.3,0.5-0.3,0.8c-0.2,0.8-0.2,2.5-0.2,2.5l-3,0.7c0,0,0.2-1.9-0.2-2.7
		c-0.2-0.8-0.8-1.5-1.2-2.2c-0.3-0.7-1.2-2.2-1.2-2.2l3-0.7l0.8,1.7L439.3,553.1z"/>
	<path d="M433.4,556.3c0.7,0.3,1.5,2.2,1.5,2.2s-3.2,0.8-4.9,1.2c-0.3,0.2-1.5,0.3-1.5,0.3v8.3l-2.7,0.7c0,0-0.3-8.9-0.2-10.5
		c0-0.5,0.8-0.5,2-1c0.7-0.2,1.5-0.3,2-0.3C431,556.5,432.6,556,433.4,556.3z"/>
	<path d="M423.6,560.4c0.7,1.2,0.7,4.2,0.7,4.2s-3.5,0.7-5.4,1.2c-0.5,0.2-1.4,0.3-1.4,0.5c-0.2,0.3,0.3,1,0.7,1.2
		c0.3,0.3,1.2,0.2,1.2,0.2c1.7-0.2,4.9-1.2,4.9-1.2v2.7c0,0-4.6,1.2-6.9,1.2c-0.3,0-1-0.2-1.2-0.3c-0.2,0-0.2-0.2-0.3-0.3
		c-0.2,0-0.3-0.3-0.3-0.3c-0.8-1.2-0.8-4.2-0.5-5.7c0-0.2,0-0.3,0.2-0.5c0-0.3,0.2-0.5,0.2-0.7s0.2-0.2,0.2-0.3
		c0-0.2,0.2-0.3,0.2-0.3c0.2-0.3,0.3-0.5,0.5-0.8c0.8-1,2.4-1.9,4.6-2.2c0.8-0.2,2-0.2,2.7,0.5C423.1,559.7,423.4,560.2,423.6,560.4
		z M421.4,563.1c0,0,0-0.5-0.5-1c-0.3-0.3-0.8-0.3-1.7-0.3c-2.4,0.3-1.9,2.2-1.9,2.2L421.4,563.1z"/>
	<path d="M410.5,561.2l2.7-0.7c0,0,0.2,7.4,0.2,11.1c-1.2,0.3-2,0.5-3,0.7c-2.2,0.5-4.1,1.2-5.1-0.2c-1.2-1.3-1-4-1-5.7
		c0-1.2,0-3.7,0-3.7l2.7-0.7c0,0,0.2,4,0.2,5.9c0,0.7,0,1.3,0.3,1.9c0.3,0.3,0.7,0.3,1.7,0.2c0.3,0,1.4-0.3,1.4-0.3L410.5,561.2
		L410.5,561.2z"/>
	<path d="M401.8,564.4c0.8,2.2,0.2,4.9-0.2,7.2c0.8-0.2,1.5-0.3,1.7-0.3c0.2,0,0,2.7-0.2,2.7c-0.7,0.2-2.7,0.7-3.7,0.8
		c-2.9,0.7-5.7,1.5-7.4,0.3c-0.7-0.3-1.4-1.3-1.7-2c-0.3-1.2-0.5-2.5-0.5-3.7s0.2-2,0.3-3c0.7-2.5,2.5-4.6,6.2-5.1
		c0.7-0.2,1.9,0,2.5,0.3l0.3,0.2C400.3,562.2,401.3,563.4,401.8,564.4z M399,569.3c0-1.2,0.3-2.2,0-3.2s-1.2-1.7-1.9-1.7
		c-1.7-0.2-3,1-3.5,1.7c-0.5,1-0.5,1.9-0.5,3.4c0,1,0.2,2,0.7,2.7c1,1.2,2.9,0.3,5.1,0C399,571.1,399,570.3,399,569.3z"/>
	<path d="M388.6,566.3c0,0.8,0,1.9,0,2.7c-1,0.3-1.9,0.3-3,0.7c0-1,0-1.9,0-2.7C386.8,566.6,387.4,566.4,388.6,566.3z"/>
	<path d="M385.7,570.3c1-0.3,1.9-0.3,2.9-0.7c0.2,2.2,0.2,5.7,0,8.1c0,1.5,0,2.7-0.8,3.5c-0.2,0.2-0.2,0-0.2,0.2
		c-0.2,0.3-1,0.5-1.4,0.8c-0.7,0.3-1.7,0.3-2.5,0.5c0-1,0.2-2,0.2-2.9c2.4-0.3,1.9-2.4,1.9-4.6C385.6,574.2,385.7,571,385.7,570.3z"
		/>
	<path class="st46" d="M380.2,577.2c-0.5,2.4-2.2,4.2-4.9,4.7c-1.2,0.3-2.5,0.3-3.4,0.2c-1.9-0.3-3.5-1.3-4.7-2.7
		c-1.5-1.9-2.5-4.9-0.7-7.4l-0.2,0.5v0.3c-0.3,5.6,5.6,8.8,10.5,7.2C378.2,579.6,379.5,578.4,380.2,577.2z"/>
	<path class="st46" d="M379,570.8c-0.2,0.5-1,1.5-1.5,1.9c-1.9,0.8-3.4,0.3-4.2-0.7c-0.2-0.2-0.3-0.5-0.3-0.5c-0.3-0.8-0.7-2,0-2.9
		c-0.2,0.7,0,1.3,0.3,1.9c0.2,0.3,0.3,0.7,0.8,1c0.5,0.5,0.8,0.5,1.4,0.8c0.3,0.2,0.5,0.2,0.7,0.2
		C376.5,572.2,377.5,572.3,379,570.8z"/>
	<path class="st46" d="M376.6,575.9c1.2-0.3,2.4-1.2,3-2c-0.3,1.9-1.9,3.4-4.7,3.5c-2.2,0.2-4.9-1.5-5.6-3.5c-0.5-1.5-0.2-2.7,0.3-4
		c-0.2,0.7-0.2,1.2-0.2,1.5C370.4,574.7,373.9,576.5,376.6,575.9z"/>
	<path class="st7" d="M1098.1,472.9l-78.9,26.7l9.3,27.5l78.9-26.7L1098.1,472.9z"/>
	<path d="M1027.7,503l-0.2-0.5l8.1-2.7l0.2,0.5l-0.3,0.2c-0.8,0.3-1.3,0.5-1.7,0.8c-0.3,0.3-0.3,0.5-0.3,1c0,0.3,0.3,1.3,0.8,2.7
		l2.9,8.6c0.3,1.3,0.9,2.2,1,2.7c0.3,0.3,0.5,0.7,0.8,0.8c0.3,0.2,1,0,1.7-0.3l0.5-0.2l0.2,0.5l-8.1,2.7l-0.2-0.5l0.5-0.2
		c0.7-0.3,1.2-0.5,1.5-0.8c0.3-0.3,0.3-0.7,0.3-1.2s-0.3-1.3-0.8-2.7l-2.9-8.6c-0.3-1.3-0.8-2.2-1-2.7c-0.3-0.3-0.3-0.5-0.8-0.7
		c-0.3,0-1,0-1.9,0.3h-0.3L1027.7,503L1027.7,503z"/>
	<path class="st47" d="M1061.1,509.8c-0.2,0-0.3,0-0.5,0l-8.6-4c-0.2,0-0.3-0.2-0.3-0.2c-0.2-0.2-0.3-0.3-0.8-0.5
		c-0.3-0.3-0.7-0.5-1.2-0.8c-0.3-0.3-0.7-0.7-1-1.2c-0.3-0.3-0.5-0.8-0.7-1.3c-0.5-1.5-0.3-2.9,0.2-4c0.5-1.2,1.7-1.9,3.2-2.5
		c0.3-0.2,0.8-0.3,1.3-0.3s1,0,1.5,0.2c0.3,0.2,0.8,0.3,1.2,0.3c0.3,0.2,0.7,0.3,1,0.3c0.2-0.3,0.3-0.7,0.5-1s0.3-0.7,0.7-1.2
		c0.4-0.5,0.7-0.7,1.2-1c0.3-0.3,0.8-0.5,1.2-0.7c1.5-0.5,2.9-0.5,4.2,0c1.2,0.5,2,1.7,2.5,3.2c0.5,1.5,0.3,3.4-0.8,5.6l-4.4,8.4
		C1061.6,509.6,1061.4,509.8,1061.1,509.8z"/>
	<path class="st48" d="M1074.8,490.1c1.4,0,2.5-1.1,2.5-2.5s-1.1-2.5-2.5-2.5s-2.5,1.1-2.5,2.5
		C1072.2,488.9,1073.4,490.1,1074.8,490.1z"/>
	<path d="M1098.8,486.9c-0.8-2.5-2.7-4.6-5.1-5.7c-2.4-1.2-5.1-1.3-7.6-0.5s-4.6,2.7-5.7,5.1c-2,4.2-1,8.9,2.4,12l-2.2,4.6
		c-0.2,0.3-0.2,0.5,0,0.8c0.2,0.3,0.3,0.5,0.5,0.7l2.7,1.2c0.3,0.2,0.5,0.2,0.8,0c0.3-0.2,0.5-0.3,0.7-0.5l2.2-4.6
		c1.9,0.3,3.5,0.3,5.2-0.3c2.5-0.8,4.6-2.7,5.7-5.1C1099.5,492.1,1099.6,489.4,1098.8,486.9z M1087,499.5l-2.9,5.1l-3-2.2l2.2-5.1
		l-3.2-7.1l8.1,2.4l5.1,5.1L1087,499.5z"/>
	<path d="M1080.2,490.1l3.2,7.1l-2.2,5.2l3,2l2.9-4.9l6.1-2l-4.9-5.1L1080.2,490.1z"/>
	<path class="st49" d="M743.8,549.7c-17.2,0-31.1,3.2-31.1,7.2s14,7.2,31.1,7.2c17.2,0,31.1-3.2,31.1-7.2
		C775,553.1,761,549.7,743.8,549.7z"/>
	<path class="st50" d="M714.3,515.5c-0.8,0.2-1.7,0.3-2.5,0.8c-0.5,0.2-0.8,0.5-1.2,0.8c-1.7,1.3-2.7,3.4-3,5.7
		c-0.8,5.4,1.7,12.8,6.9,19.2c1.5,1.9,3,3,4.9,3.7c-0.8,1-1.4,2.2-1.4,3.5c0,2.9,2.4,5.4,5.4,5.4c2.4,0,4.2-1.3,5.1-3.4
		c0.2-0.5,0.3-1.2,0.3-1.9c0-1.2-0.3-2.4-1-3.2c5.2-1.2,4.7-4.6,7.6-6.7l-0.8-13C728.1,518.7,720,514.5,714.3,515.5z"/>
	<path class="st50" d="M780.8,523.1c-0.3-2.5-1.3-4.6-3-5.9c-0.3-0.3-0.8-0.5-1.2-0.8c-0.8-0.3-1.7-0.7-2.5-0.8
		c-5.7-1-14,3.2-20.1,10.8l-0.8,13c2.9,2.4,2.4,5.6,7.6,6.7c-0.7,0.8-1,2-1,3.2c0,0.7,0.2,1.3,0.3,2c0.8,2,2.7,3.4,5.1,3.4
		c3,0,5.4-2.4,5.4-5.4c0-1.3-0.5-2.5-1.4-3.5c1.7-0.7,3.4-1.9,4.9-3.7C779.1,535.7,781.6,528.5,780.8,523.1z"/>
	<path class="st50" d="M764.4,511.8c-0.7-0.8-1.4-1.7-2-2.5c-4.4-4.9-11-8.1-18.2-8.1c-7.3,0-13.7,3-18.2,8.1
		c-0.7,0.8-1.3,1.7-2,2.5c-2.7,3.9-4.2,8.6-4.2,13.7c0,4.4,1.2,8.4,3.2,12c1.9,3.4,4.6,6.1,7.8,8.3c3,2,6.8,3.4,10.6,3.9
		c1,0.2,1.9,0.2,2.9,0.2s2,0,2.9-0.2c3.9-0.5,7.6-1.9,10.6-3.9c3.2-2,5.7-4.9,7.8-8.3c2-3.5,3.2-7.6,3.2-12
		C768.6,520.4,766.9,515.9,764.4,511.8z"/>
	<path class="st51" d="M744.8,547.5c-4.9,0-9.5-0.5-13.3-1.3c2.9,1.9,6.2,3,9.8,3.4c1,0.2,1.9,0.2,2.9,0.2c1,0,2,0,2.9-0.2
		c3.4-0.3,6.4-1.5,9.3-3C752.7,547.2,748.9,547.5,744.8,547.5z"/>
	<path class="st52" d="M744.5,495.5c-0.2,0-0.3,0-0.5,0v7.8h5.4l3.5,5.1v9.1V547c0,0.7-0.3,1-0.7,1.5c-1,1.2-1.7,2.7-1.7,4.4
		c0,3.5,2.9,6.4,6.4,6.4s6.4-2.9,6.4-6.4c0-0.5,0-1-0.2-1.5c-0.2-0.7,0.3-1.2,1-1.9c6.6-5.6,10.6-13.8,10.6-23.1
		C774.7,509.4,761.2,495.8,744.5,495.5z"/>
	<path class="st52" d="M737.2,512.3c-1.3,3.2-6.8,13.3-7.1,19c-0.2,3.4,6.8,16.9-2.5,14.8c-6.4-1.3-14.2-6.2-14.2-22.6
		c0-16.4,17-28.2,30.2-28.2C755.6,495.6,737.2,512.3,737.2,512.3z"/>
	<path class="st12" d="M748.4,483c0,2.4-1.9,4.2-4.2,4.2c-2.3,0-4.2-1.9-4.2-4.2c0-2.4,1.9-4,4.2-4C746.5,479,748.4,480.8,748.4,483
		z"/>
	<path class="st53" d="M760.5,500.3c0,8.9-7.3,16.2-16.4,16.2c-9.1,0-16.4-7.2-16.4-16.2c0-8.9,7.3-16.2,16.4-16.2
		C753.2,484.1,760.5,491.4,760.5,500.3z"/>
	<path class="st13" d="M734.5,503.4c0-0.7,0.7-1.3,1.4-1.3s1.3,0.7,1.3,1.3H734.5z"/>
	<path class="st13" d="M751.1,503.4c0-0.7,0.7-1.3,1.3-1.3s1.4,0.7,1.4,1.3H751.1z"/>
	<path class="st50" d="M749.9,510.5c-0.5,0-1.2-0.2-1.7-0.5s-0.8-0.8-1-1.3c-0.2-0.5-0.2-1.2,0-1.7c0.2-0.5,0.5-1,1-1.3
		c-0.5,1-0.7,2-0.3,2.9C748.2,509.3,748.9,510,749.9,510.5z"/>
	<path class="st50" d="M748,508.6c-0.5,0.7-1,0.8-1.7,1.2c-0.7,0.2-1.2,0.3-1.9,0.3c-1.2,0.2-2.5-0.2-3.4-0.8
		c1.2,0.5,2.2,0.3,3.4,0.2c0.5-0.2,1-0.3,1.5-0.5c0.5-0.2,0.8-0.5,1-0.8L748,508.6z"/>
	<path class="st7" d="M744.1,478.9c2.4,0,4.2,1.9,4.2,4c0,0.5-0.2,1.2-0.3,1.7c7.1,1.7,12.5,8.1,12.5,15.7c5.6,3.5,10,8.8,12.3,15
		c0.5,0,0.8,0,1.3,0.2c0.8,0.2,1.7,0.3,2.5,0.8c0.5,0.2,0.8,0.5,1.2,0.8c1.7,1.3,2.7,3.4,3,5.9c0.7,5.4-1.7,12.6-6.9,19.2
		c-1.5,1.9-3,3-4.9,3.7c0.8,1,1.4,2.2,1.4,3.5c0,2.9-2.4,5.4-5.4,5.4c-0.7,0-1.3-0.2-1.9-0.3c-0.7,2.7-3.2,4.7-6.2,4.7
		c-3.5,0-6.4-2.9-6.4-6.4c0-1.5,0.5-3,1.5-4.2c-1.5,0.5-3.2,0.8-4.9,1c-1,0.2-1.9,0.2-2.9,0.2c-1,0-2,0-2.9-0.2
		c-3.7-0.5-7.1-1.7-10.1-3.5c-0.5,0.2-1.2,0.3-1.9,0.3c-0.5,0-1,0-1.7-0.2c0.7,0.8,1,2,1,3.2c0,0.7-0.2,1.3-0.3,1.9
		c-0.8,2-2.7,3.4-5.1,3.4c-3,0-5.4-2.4-5.4-5.4c0-1.3,0.5-2.5,1.4-3.5c-1.7-0.7-3.4-1.9-4.9-3.7c-5.2-6.6-7.8-13.8-6.9-19.2
		c0.3-2.4,1.3-4.4,3-5.7c0.3-0.3,0.8-0.5,1.2-0.8c0.7-0.3,1.5-0.7,2.5-0.8c0.3,0,0.5,0,0.8-0.2c2.4-6.2,7.1-11.5,12.7-15
		c0-7.6,5.4-14,12.5-15.8c-0.2-0.5-0.3-1-0.3-1.7C739.9,480.8,741.8,478.9,744.1,478.9z M744.1,475.6c-3.9,0-7.1,3-7.4,6.7
		c-3,1.2-5.9,3.2-7.9,5.9c-2.4,3-3.9,6.6-4.2,10.5c-5.2,3.7-9.5,8.4-11.8,13.8c-0.8,0.2-1.7,0.5-2.4,0.8c-0.7,0.3-1.2,0.7-1.9,1.2
		c-2.4,1.9-3.7,4.6-4.2,7.9c-0.5,3.2,0,6.9,1.4,10.8c1.3,3.7,3.5,7.6,6.2,11.1c0.8,1.2,2,2.2,3,2.9c-0.2,0.7-0.3,1.3-0.3,2.2
		c0,4.7,3.9,8.6,8.8,8.6c3.5,0,6.9-2.2,8.1-5.6c0.3-0.7,0.5-1.3,0.5-2.2c2.7,1.3,5.7,2.2,8.8,2.5c1.2,0.2,2.2,0.2,3.4,0.2
		c1,0,1.9,0,2.9-0.2c0.2,5.2,4.4,9.4,9.8,9.4c3.4,0,6.4-1.7,8.1-4.4c4.7,0,8.6-3.9,8.6-8.6c0-0.7-0.2-1.5-0.3-2.2
		c1.2-0.8,2.2-1.9,3-2.9c2.7-3.4,4.9-7.2,6.2-11c1.3-3.9,1.9-7.6,1.3-10.8c-0.5-3.4-2-6.2-4.2-8.1c-0.5-0.5-1.2-0.8-1.7-1.2
		c-0.8-0.5-1.9-0.8-3-1c-2.5-5.6-6.4-10.3-11.3-13.8c-0.3-3.7-1.9-7.4-4.2-10.3c-2-2.5-4.9-4.6-7.9-5.9
		C751.2,478.6,748,475.6,744.1,475.6z"/>
	<path class="st52" d="M728.8,529.5c5.1-0.3,7.6,4.4,7.1,8.3c-0.3,4-3.2,10.3-9.1,8.1c-2.4-0.8-2.5-6.9-2.2-10.3
		C724.9,532.4,725.7,529.7,728.8,529.5z"/>
	<path class="st52" d="M728.8,529.5c5.7-1,7.6,4.4,7.1,8.3c-0.3,4-3.2,10.3-9.1,8.1"/>
	
		<linearGradient id="SVGID_7_" gradientUnits="userSpaceOnUse" x1="791.1974" y1="689.308" x2="791.1974" y2="697.569" gradientTransform="matrix(1 0 0 1 -47.5 -169)">
		<stop  offset="0" style="stop-color:#FFFFFF"/>
		<stop  offset="0.586" style="stop-color:#F9F9F9"/>
		<stop  offset="1" style="stop-color:#F1F1F1"/>
	</linearGradient>
	<path class="st54" d="M747.2,520.2c0,0.2,0,0.2,0,0.3c0,0.3,0,0.5,0,0.8c0,1.7-0.7,3.2-1.7,4.4c-0.5,0.5-1,1-1.5,1.5
		c-0.7,0.5-1.5,0.8-2.4,1c-0.2,0-0.5,0.2-0.7,0.2c-0.2,0-0.5,0-0.7,0c0-0.2,0-0.5,0-0.7s0-0.3,0-0.7s0-0.5,0.2-0.8
		c0.2-0.7,0.3-1.2,0.7-1.9c0.3-0.5,0.7-1.2,1.2-1.5c0.5-0.5,1-1,1.5-1.3c0.7-0.5,1.5-0.8,2.4-1.2c0.2,0,0.5-0.2,0.7-0.2
		C746.8,520.4,747,520.4,747.2,520.2z"/>
	
		<linearGradient id="SVGID_8_" gradientUnits="userSpaceOnUse" x1="788.9326" y1="697.119" x2="788.9326" y2="723.248" gradientTransform="matrix(1 0 0 1 -47.5 -169)">
		<stop  offset="0" style="stop-color:#FFFFFF"/>
		<stop  offset="0.586" style="stop-color:#F9F9F9"/>
		<stop  offset="1" style="stop-color:#F1F1F1"/>
	</linearGradient>
	<path class="st55" d="M754.9,545c-0.7-0.3-1.4-0.7-1.9-1.2c-0.7-0.5-1.2-1.2-1.7-1.9c-0.5-0.7-0.8-1.5-1-2.2
		c-0.2-0.3-0.2-0.8-0.2-1.2c0-0.3,0-0.5,0-0.8c0-1,0.3-1.9,0.7-2.7c0.3-0.7,0.8-1.3,1.5-2c0.5-0.5,1-1,1.7-1.3
		c-0.7-0.8-1.5-1.7-2.5-2.2c-0.7-0.3-1.4-0.7-2.2-0.8c-0.3,0-0.5-0.2-0.8-0.2c-0.2,0-0.5,0-0.7,0c-0.2,0-0.5,0-0.7,0
		c-0.3,0-0.7,0-1,0c-0.8,0-1.5,0.2-2.2,0.5c-0.3,0.2-0.7,0.3-1,0.3c-0.3,0.2-0.5,0.2-0.8,0.3c-0.3,0.2-0.5,0.2-0.8,0.2
		c-0.2,0-0.5,0-0.7,0c-0.2,0-0.5,0-0.7-0.2c-0.3-0.2-0.7-0.2-1-0.3c-0.3-0.2-0.7-0.3-1-0.3c-0.5-0.2-0.8-0.3-1.3-0.3
		c-0.3,0-0.8-0.2-1.2-0.2c-0.3,0-0.7,0-0.8,0c-0.3,0-0.7,0-0.8,0.2c-1.3,0.2-2.4,0.7-3.5,1.3c4,0.5,5.4,5.1,5.1,8.6
		c-0.3,3.9-2.4,8.6-7.6,7.9c0.2,0.3,0.3,0.8,0.5,1.2c0.5,1,1,2,1.7,2.9c0.3,0.7,0.8,1.2,1.3,1.9c0.5,0.5,1,1,1.5,1.3
		c0.5,0.3,0.8,0.5,1.3,0.7c0.3,0,0.5,0.2,0.8,0.2h0.2c0.2,0,0.3,0,0.5,0h0.2c0.2,0,0.5,0,0.7-0.2c0.3,0,0.7-0.2,1-0.3
		c0.5-0.2,1.2-0.5,1.7-0.7c0.3-0.2,0.7-0.2,1-0.2s0.7,0,1,0c0.2,0,0.5,0,0.7,0c0.5,0,0.8,0.2,1.2,0.3c0.5,0.2,1,0.3,1.5,0.5
		s0.8,0.3,1.3,0.3c0.2,0,0.3,0,0.7,0.2h0.2c0.2,0,0.2,0,0.3,0h0.2c0.5,0,1-0.2,1.3-0.5c0.5-0.2,0.8-0.5,1.2-0.8
		c0.7-0.5,1.2-1,1.7-1.7c1.3-1.5,2.4-3.4,3.2-5.2c0.2-0.3,0.2-0.5,0.3-0.8C755.1,545.2,755.1,545.2,754.9,545
		C755.1,545,755.1,545,754.9,545C755.1,545,754.9,545,754.9,545z"/>
</g>
</svg>
