<?xml version="1.0" encoding="utf-8"?>
<!-- Generator: Adobe Illustrator 23.0.3, SVG Export Plug-In . SVG Version: 6.00 Build 0)  -->
<svg version="1.1" id="Layer_1" xmlns="http://www.w3.org/2000/svg" xmlns:xlink="http://www.w3.org/1999/xlink" x="0px" y="0px"
	 viewBox="0 0 100 100" style="enable-background:new 0 0 100 100;" xml:space="preserve">
<style type="text/css">
	.st0{fill:#314A59;}
</style>
<g id="snack">
</g>
<g id="home">
</g>
<g id="drankje">
	<g>
		<path class="st0" d="M50,27.6c-11,0-20.2-3.1-24.7-7.9v68.5c0,6.5,11,11.8,24.7,11.8s24.7-5.3,24.7-11.8V19.7
			C70.2,24.5,61,27.6,50,27.6z M71,73c-13.8,4.5-35.5,0.4-42.1-6.8c0,0,0-12.3,0-12.2c12.9-0.7,36.7-6.7,42.1-13.5V73z"/>
		<path class="st0" d="M72.9,9.6c-0.2-0.4-0.3-0.7-0.6-1.1C72,8,71.6,7.5,71.1,7c-0.3-0.3-0.7-0.6-1.1-1c-0.2-0.2-0.4-0.3-0.6-0.5
			c-4.2-3-11.3-4.9-19.4-4.9c-7.8,0-14.7,1.8-18.9,4.6c-2.8,1.8-4.4,4.1-4.4,6.6l0,0C26.6,18,37.1,23,50,23s23.4-5,23.4-11.2
			C73.4,11.1,73.2,10.3,72.9,9.6z M39.6,15.3c-2.6,0-4.7-1-4.7-2.3s2.1-2.3,4.7-2.3c2.6,0,4.7,1,4.7,2.3
			C44.3,14.2,42.2,15.3,39.6,15.3z"/>
	</g>
</g>
<g id="frieten">
</g>
<g id="hamburger">
</g>
</svg>
