<?xml version="1.0" encoding="utf-8"?>
<!-- Generator: Adobe Illustrator 23.0.3, SVG Export Plug-In . SVG Version: 6.00 Build 0)  -->
<svg version="1.1" id="Layer_1" xmlns="http://www.w3.org/2000/svg" xmlns:xlink="http://www.w3.org/1999/xlink" x="0px" y="0px"
	 viewBox="0 0 100 100" style="enable-background:new 0 0 100 100;" xml:space="preserve">
<style type="text/css">
	.st0{fill:#314A59;}
</style>
<g id="snack">
</g>
<g id="home">
</g>
<g id="drankje">
</g>
<g id="frieten">
</g>
<g id="hamburger">
	<g>
		<path class="st0" d="M100,55.5c-0.1-4.4-3.6-8.5-6.8-11.3c0.6-0.3,1.1-0.8,1.6-1.3c1.1-1.4,1.6-3.2,1.3-4.9
			c-1.5-8.4-7.1-16.2-15.7-21.7C71.9,10.7,61,7.7,49.7,7.7s-22.3,3-30.8,8.5C10.3,21.8,4.7,29.5,3.2,38c-0.3,1.8,0.2,3.5,1.3,4.9
			c0.4,0.5,0.9,0.9,1.5,1.3c-4.1,4.2-6.5,10-5.9,13.9c0.4,2.7,2.1,4.5,4.7,5c1.3,0.2,2.6,0.2,3.8,0c-1.2,1.4-1.9,3.2-1.9,5.1
			c0,1.3,0.3,2.6,0.9,3.7c-2.8,1.2-4.8,4-4.8,7.3v4.1c0,6.2,5,11.2,11.2,11.2h71c6.2,0,11.2-5,11.2-11.2v-4.1c0-3.3-2-6.1-4.8-7.3
			c0.6-1.1,0.9-2.4,0.9-3.7c0-1.4-0.3-2.6-1-3.8c1.3-0.1,2.7-0.6,4.2-1.6C99.3,60.4,100,57.5,100,55.5z M8,38.8
			c2.7-15,20.6-26.3,41.7-26.3s39,11.3,41.7,26.3c0.1,0.5-0.1,0.8-0.3,0.9c-0.1,0.2-0.4,0.4-0.9,0.4h-2.4H11.6H9.1
			c-0.5,0-0.8-0.3-0.9-0.4C8.1,39.6,7.9,39.3,8,38.8z M40.3,60.2c0.4-0.5,0.7-1,1-1.5c1.3-1.9,3.1-4.5,4.1-4.6
			c3.2-0.4,4,1.2,5.4,6.1H40.3z M36,65.1h16.6c1,2,2.3,3.9,4.6,4.9c0.9,0.4,1.8,0.6,2.7,0.6c0.7,0,1.3-0.1,1.9-0.4
			c2-0.8,3.2-2.8,4.2-5.2h18.5c1.7,0,3,1.4,3,3c0,1.7-1.4,3-3,3H14.6c-1.7,0-3-1.4-3-3c0-1.7,1.4-3,3-3h10.5
			c0.2,0.4,0.5,0.8,0.8,1.1c0.8,0.8,2.1,1.7,4.4,1.4C32.5,67.5,34.4,66.5,36,65.1z M67.9,60.2c1.2-3,2.7-5.9,5.1-6.7
			c2.3-0.8,4.4,1.2,7.6,4.6c0.6,0.7,1.3,1.4,2,2H67.9V60.2z M24.5,55.2c-0.2,1.7-0.4,3.4-0.4,5.1l-8.4-0.1c2.4-1.5,4.6-3.4,6.5-5
			c0.8-0.6,1.7-1.4,2.4-2C24.6,53.8,24.5,54.6,24.5,55.2z M91.4,83.2c0,3.5-2.9,6.4-6.4,6.4H14.1c-3.5,0-6.4-2.9-6.4-6.4v-4.1
			c0-1.7,1.4-3.1,3.1-3.1h3.8h69.9h3.8c1.7,0,3.1,1.4,3.1,3.1V83.2z M92.9,58.8c-2.6,1.7-4.4,0.6-8.8-4c-3.2-3.4-7.3-7.7-12.7-5.9
			c-5.2,1.7-7.3,7.3-9,11.7c-0.7,1.8-1.8,4.9-2.6,5.2c-0.1,0-0.3,0-0.7-0.2c-2-1-2.9-3.8-3.7-6.7c-1.2-4.2-2.8-9.7-9.2-9.7
			c-0.5,0-1,0-1.5,0.1c-3.2,0.4-5.3,3.4-7.6,6.7c-2.2,3.2-4.6,6.6-7.5,6.9c-0.1,0-0.1,0-0.2,0c-0.2,0-0.2,0-0.2,0
			c-0.8-0.8-0.3-5.4-0.1-7.1c0.4-3.5,0.7-6.1-0.9-7.6c-0.7-0.7-1.7-1-2.7-0.9c-2,0.3-3.9,1.9-6.6,4.2c-3.7,3.2-8.9,7.6-13.5,6.8
			c-0.3-0.1-0.6-0.1-0.7-0.8c-0.4-3.1,2.9-9.6,7.9-12.4h73.6c3.7,2.4,8.7,7.1,8.7,10.5C95.1,56.3,94.9,57.5,92.9,58.8z"/>
		<path class="st0" d="M27.3,28c0.4-0.2,0.9-0.4,1.3-0.5s0.9-0.2,1.2-0.2c0.3,0,0.6,0,0.9-0.1c0.8-0.4,1.1-1.3,0.7-2.1
			s-1.3-1.1-2.1-0.7L29,24.5c-0.7,0.3-1.1,0.7-1.6,1.1c-0.4,0.4-0.8,0.8-1.1,1.3c-0.3,0.4-0.6,0.9-0.9,1.4s-0.5,0.9-0.7,1.4
			c0.4-0.3,0.8-0.7,1.2-0.9C26.5,28.5,26.9,28.2,27.3,28z"/>
		<path class="st0" d="M67.9,27.3c0.3,0,0.8,0,1.2,0.2c0.4,0.1,0.9,0.3,1.3,0.5s0.9,0.5,1.3,0.8s0.8,0.6,1.2,0.9
			c-0.2-0.5-0.4-1-0.7-1.4c-0.3-0.5-0.6-0.9-0.9-1.4c-0.3-0.4-0.7-0.9-1.1-1.3s-0.9-0.8-1.6-1.1l-0.3-0.1c-0.3-0.1-0.5-0.2-0.8-0.1
			c-0.9,0.1-1.5,0.9-1.4,1.7C66.3,26.8,67.1,27.4,67.9,27.3z"/>
		<path class="st0" d="M48.3,27.1c0.2,0.3,0.3,0.6,0.4,1c0.2,0.7,0.4,1.4,0.5,2.1c0.4-0.6,0.7-1.4,1-2.1c0.1-0.4,0.2-0.8,0.3-1.2
			c0.1-0.4,0.1-0.9,0.1-1.3v-0.3c0-0.4-0.1-0.7-0.4-1c-0.6-0.7-1.6-0.7-2.3-0.1s-0.7,1.6-0.1,2.3C48,26.5,48.2,26.8,48.3,27.1z"/>
	</g>
</g>
</svg>
