<?xml version="1.0" encoding="utf-8"?>
<!-- Generator: Adobe Illustrator 23.0.3, SVG Export Plug-In . SVG Version: 6.00 Build 0)  -->
<svg version="1.1" id="Layer_1" xmlns="http://www.w3.org/2000/svg" xmlns:xlink="http://www.w3.org/1999/xlink" x="0px" y="0px"
	 viewBox="0 0 1580 590" style="enable-background:new 0 0 1580 590;" xml:space="preserve">
<style type="text/css">
	.st0{fill:#C99E49;}
	.st1{fill:#A07A38;}
	.st2{fill:#EAC664;}
	.st3{fill:#896F00;}
	.st4{fill:#EFD081;}
	.st5{fill:#FFFFFF;}
	.st6{fill:#222222;}
	.st7{fill:#8CC63F;}
	.st8{fill:#F15A24;}
	.st9{opacity:0.3;enable-background:new    ;}
	.st10{fill:#CECFC8;}
	.st11{fill:#808080;}
	.st12{fill:url(#SVGID_1_);}
	.st13{fill:#E6E6E6;}
</style>
<path class="st0" d="M779.9,262.5c-3.9-8.2-8.2-15.8-12.9-23.2c-28.5-44.7-69.7-72.8-115.4-72.8c-45.9,0-87.1,28.1-115.4,72.8
	c-4.5,7.2-8.8,14.8-12.7,23c-17,35.3-27.1,77.7-27.1,123.7c0,39.4,7.4,76.5,20.3,108.5c12.1,29.7,258,29.9,269.9,0.2
	c12.9-32,20.3-68.9,20.3-108.5C806.9,340.2,796.9,297.8,779.9,262.5z"/>
<path class="st1" d="M651.6,428.2c-8,0-14.6,3.7-14.6,8.2c0,0.2,0,0.6,0,0.8c0.8,4.1,7,7.4,14.6,7.4c7.6,0,13.7-3.3,14.6-7.4
	c0-0.2,0-0.6,0-0.8C666.3,431.9,659.8,428.2,651.6,428.2z"/>
<path class="st2" d="M653.4,129.6l0.2-0.4c-108.2,0-196.1,87.8-196.1,196.2c0,59.3,26.2,112.4,67.8,148.3c4.3,3.9,7.2,7.2,6.1,11.7
	c-0.8,3.3-1.2,6.6-1.2,10c0,22.8,18.4,41,41,41c22.5,0,41-18.5,41-41c0-10.7-4.1-20.3-10.9-27.7c-2.5-3.1-4.5-5.5-4.5-9.4V270.1
	v-59.3l22.1-32h64.8l22.3,32.2v58.9v188.7c0,3.9-2,6.4-4.5,9.4c-6.8,7.4-10.9,17-10.9,27.7c0,22.6,18.4,41,41,41
	c22.7,0,41-18.5,41-41c0-3.5-0.4-6.8-1.2-10c-0.8-4.7,2.1-7.8,6.1-11.7c41.6-35.9,67.8-89,67.8-148.3
	C845.7,218.6,760,131.7,653.4,129.6z"/>
<path class="st3" d="M678.2,49.5c0,14.6-11.9,26.5-26.4,26.5c-14.6,0-26.4-11.9-26.4-26.5c0-14.6,11.9-26.5,26.4-26.5
	C666.3,23,678.2,34.9,678.2,49.5z"/>
<path class="st4" d="M755.7,161c0,57.4-46.5,104-103.9,104s-103.9-46.5-103.9-104c0-57.4,46.5-104,103.9-104S755.7,103.6,755.7,161z
	"/>
<path class="st5" d="M623.1,195.3c3.5,12.7,15,21.9,28.5,21.9c13.7,0,25.2-9.2,28.5-21.9H623.1z"/>
<path class="st6" d="M590.3,179.9c0-4.7,3.9-8.6,8.6-8.6c4.7,0,8.6,3.9,8.6,8.6H590.3z"/>
<path class="st6" d="M695.9,179.9c0-4.7,3.9-8.6,8.6-8.6c4.7,0,8.6,3.9,8.6,8.6H695.9z"/>
<path class="st7" d="M1075.1,387.7c-16.4-45.9,0.8-90.3-28.5-182.6c30.3,30.7,50.2,171.1,41.3,184.7"/>
<path class="st7" d="M1112.1,375.7c3.6-52.8-28.8-93.9-25.6-199.1c-23.5,41.3-1.6,193.7,12.2,205.2"/>
<path class="st7" d="M1114.8,380.7c20.7-48.2,5.3-97,43.2-194.2c-34.7,30.9-65.6,180.4-57.2,195.7"/>
<path class="st7" d="M1053.6,391.3c-29.6-44-29.1-143.3-69.1-152.3c34.5-14.5,96.3,132.8,86.9,150.4"/>
<path class="st7" d="M1113.1,358.9c-2.7-21.9,60.4-106.9,13.1-145.4c51.8,31.5-4.9,134.5,0,151.1L1113.1,358.9z"/>
<path class="st7" d="M1086.4,365.5c3.7-24.9-72.6-106.4-42-168.5c-36.3,41.9,30.6,156.1,23.7,175L1086.4,365.5z"/>
<path class="st8" d="M1127.6,376.5h-88.9l20.5,72.2h47.8L1127.6,376.5z"/>
<path class="st8" d="M1131.7,353h-97.1v23.6h97.1V353z"/>
<path class="st9" d="M1038.6,376.5l0.8,3.3h87.1l1-3.3H1038.6z"/>
<path class="st10" d="M488,401.6v2.7c0,4.3,3.5,7.8,7.8,7.8h2.7C492.8,412,488,407.3,488,401.6z"/>
<path class="st10" d="M801,412h2.7c4.3,0,7.8-3.5,7.8-7.8v-2.7C811.4,407.3,806.7,412,801,412z"/>
<path class="st11" d="M801,189.1H498.5c-5.7,0-10.5,4.7-10.5,10.5v182.3v19.7c0,5.7,4.7,10.5,10.5,10.5H801
	c5.7,0,10.5-4.7,10.5-10.5v-19.7V199.6C811.4,193.8,806.7,189.1,801,189.1z"/>
<linearGradient id="SVGID_1_" gradientUnits="userSpaceOnUse" x1="697.038" y1="190.279" x2="697.038" y2="303.682" gradientTransform="matrix(1 0 0 -1 -47.5 639)">
	<stop  offset="0" style="stop-color:#808080"/>
	<stop  offset="0.448" style="stop-color:#828282"/>
	<stop  offset="0.6093" style="stop-color:#898989"/>
	<stop  offset="0.7243" style="stop-color:#949494"/>
	<stop  offset="0.8173" style="stop-color:#A5A5A5"/>
	<stop  offset="0.897" style="stop-color:#BBBBBB"/>
	<stop  offset="0.9662" style="stop-color:#D6D6D6"/>
	<stop  offset="1" style="stop-color:#E6E6E6"/>
</linearGradient>
<path class="st12" d="M697.5,446.7c0,0-5.7-1.2-7-1.4c-1.4-0.2-4.9-0.2-5.9-5.5L681.3,339l-31.8-3.7l-31.8,3.7l-3.3,100.7
	c-1,5.3-4.5,5.3-5.9,5.5c-1.4,0.2-7,1.4-7,1.4c-2.5,0.8-1.6,2.1,0,2.1h48h48C699.1,448.7,700,447.5,697.5,446.7z"/>
<path class="st13" d="M1328.5,449h-1076v29h1076V449z"/>
<path class="st13" d="M1302.5,478h-1028v112h1028V478z"/>
<path class="st9" d="M1302.5,478h-1028v11h1028V478z"/>
</svg>
