<?xml version="1.0" encoding="utf-8"?>
<!-- Generator: Adobe Illustrator 23.0.3, SVG Export Plug-In . SVG Version: 6.00 Build 0)  -->
<svg version="1.1" id="Layer_1" xmlns="http://www.w3.org/2000/svg" xmlns:xlink="http://www.w3.org/1999/xlink" x="0px" y="0px"
	 viewBox="0 0 64 64" style="enable-background:new 0 0 64 64;" xml:space="preserve" width="32" height="32">
<style type="text/css">
	.st0{fill:#F2C682;}
	.st1{fill:#7B634A;}
	.st2{display:none;fill:#6C757D;}
	.st3{fill:#9FCDD3;}
	.st4{fill:#FFFFFF;}
</style>
<circle class="st0" cx="32" cy="32" r="32"/>
<path class="st1" d="M11.8,32.6c0-1.8,2.7-3.3,6-3.3s6,1.5,6,3.3H11.8z"/>
<path class="st1" d="M40.2,32.6c0-1.8,2.7-3.3,6-3.3c3.3,0,6,1.5,6,3.3H40.2z"/>
<path class="st2" d="M29.2,12.9c0.3-1.1,1.4-1.3,2.8-1.3c1.3,0,2.5,0.3,2.8,1.3H29.2z"/>
<g>
	<path class="st3" d="M8.2,61c-3.3-0.5-5.5-4.2-4.9-8.2s8.4-15.3,8.4-15.3s4.3,13,3.6,17.1C14.6,58.7,11.5,61.5,8.2,61z"/>
</g>
<g>
	<path class="st3" d="M56.2,61c3.3-0.5,5.5-4.2,4.9-8.2s-8.4-15.3-8.4-15.3s-4.3,13-3.6,17.1C49.8,58.7,52.9,61.5,56.2,61z"/>
</g>
<path class="st4" d="M40.7,51.6H22.6c-1.3,0-2.3-1.1-2.3-2.3l0,0c0-1.3,1.1-2.3,2.3-2.3h18.1c1.3,0,2.3,1.1,2.3,2.3l0,0
	C43.1,50.6,42,51.6,40.7,51.6z"/>
</svg>
