<?xml version="1.0" encoding="utf-8"?>
<!-- Generator: Adobe Illustrator 23.0.3, SVG Export Plug-In . SVG Version: 6.00 Build 0)  -->
<svg version="1.1" id="Layer_1" xmlns="http://www.w3.org/2000/svg" xmlns:xlink="http://www.w3.org/1999/xlink" x="0px" y="0px"
	 viewBox="0 0 100 100" style="enable-background:new 0 0 100 100;" xml:space="preserve">
<style type="text/css">
	.st0{fill:#314A59;}
</style>
<path class="st0" d="M82.9,90H82c-9.4,0-17-7.7-17-17.1V27.1c0-2.6-2.1-4.7-4.7-4.7c-2.6,0-4.7,2.1-4.7,4.7v45.8
	c0,9.4-7.7,17.1-17.1,17.1s-17.1-7.7-17.1-17.1V27.1c0-2.5-2-4.6-4.5-4.7c-2.5,0.1-4.5,2.2-4.5,4.7V73c0,3.4-2.8,6.2-6.2,6.2
	S0,76.4,0,73V27.1C0,17.8,7.4,10.2,16.7,10l0,0h0.4c9.2,0.2,16.7,7.8,16.7,17.1v45.8c0,2.6,2.1,4.7,4.7,4.7c2.6,0,4.7-2.1,4.7-4.7
	V27.1c0-9.4,7.7-17.1,17.1-17.1s17.1,7.7,17.1,17.1v45.8c0,2.6,2.1,4.7,4.7,4.7H83c2.6,0,4.7-2.1,4.7-4.7V26.5
	c0-3.4,2.8-6.2,6.2-6.2c3.4,0,6.2,2.8,6.2,6.2v46.4C100,82.3,92.3,90,82.9,90z"/>
</svg>
