<?xml version="1.0" encoding="utf-8"?>
<!-- Generator: Adobe Illustrator 23.0.3, SVG Export Plug-In . SVG Version: 6.00 Build 0)  -->
<svg version="1.1" id="Layer_1" xmlns="http://www.w3.org/2000/svg" xmlns:xlink="http://www.w3.org/1999/xlink" x="0px" y="0px"
	 viewBox="0 0 100 100" style="enable-background:new 0 0 100 100;" xml:space="preserve">
<style type="text/css">
	.st0{fill:#314A59;}
</style>
<g id="snack">
	<g>
		<path class="st0" d="M78.3,5c0.7,0,1.5,0.1,2.2,0.2C88,6.4,93.1,13.5,91.8,21c-3,18-10.8,34.4-22.6,47.4
			C57.5,81.5,42,90.6,24.8,94.7c-1.1,0.3-2.1,0.4-3.2,0.4c-6.2,0-11.9-4.3-13.4-10.6C6.5,77,11.1,69.6,18.5,67.9
			c11.8-2.8,22.3-9,30.5-18c8.2-9.1,13.7-20.6,15.8-33.4C65.9,9.7,71.7,5,78.3,5 M78.3,0v5V0L78.3,0L78.3,0c-4.4,0-8.7,1.6-12,4.4
			c-3.4,2.9-5.7,6.9-6.4,11.3c-1.9,11.8-7,22.5-14.6,30.9c-7.5,8.3-17.1,14-28,16.5c-4.9,1.1-9,4.1-11.6,8.4s-3.4,9.3-2.3,14.1
			c1,4.1,3.3,7.8,6.7,10.4c3.3,2.6,7.4,4,11.5,4c1.4,0,2.9-0.2,4.3-0.5C44.2,95.2,60.5,85.6,73,71.7c12.5-13.7,20.7-31,23.8-49.9
			C98.5,11.6,91.6,2,81.4,0.3C80.4,0.1,79.4,0,78.3,0L78.3,0z"/>
		<path class="st0" d="M30.1,86.1c-1.7,0-3-0.4-4.3-0.8c-1.8-0.5-3.6-1-6.4-0.5c-1.3,0.2-2.6-0.6-2.8-1.9c-0.2-1.3,0.6-2.6,1.9-2.8
			c3.9-0.7,6.5,0,8.6,0.6c2.4,0.7,3.9,1.1,7.3-0.7c1.6-0.9,1.9-2.7,2.2-5.8c0.4-3.6,0.9-8.1,5.2-10.9c4-2.6,8.1-2,11.5-1.5
			c3.3,0.5,5.3,0.7,7-0.8c1.6-1.5,1.2-3.9,0.5-7.6c-0.8-3.7-1.6-7.9,1-11.3c2.9-3.8,6.7-4.3,9.8-4.8c3-0.4,4.7-0.8,6-2.6
			c1.1-1.5,0.6-2.6-1.1-5.6c-1.7-3.1-4.1-7.3-1.7-12.7c0.5-1.2,2-1.7,3.2-1.2s1.7,2,1.2,3.2c-1.4,3.2-0.1,5.6,1.5,8.4
			c1.7,3,3.8,6.7,0.8,10.8c-2.6,3.6-6.3,4.1-9.2,4.5c-2.8,0.4-5,0.7-6.7,2.9c-1.3,1.7-0.7,4.5-0.1,7.4c0.8,3.9,1.8,8.7-1.9,12.1
			c-3.5,3.2-7.5,2.5-11,2c-3-0.5-5.6-0.9-8.1,0.7c-2.3,1.5-2.7,3.8-3.1,7.4c-0.4,3.5-0.8,7.4-4.7,9.5C34,85.6,31.9,86.1,30.1,86.1z"
			/>
	</g>
</g>
<g id="home">
</g>
<g id="drankje">
</g>
<g id="frieten">
</g>
<g id="hamburger">
</g>
</svg>
