<?xml version="1.0" encoding="utf-8"?>
<!-- Generator: Adobe Illustrator 23.0.3, SVG Export Plug-In . SVG Version: 6.00 Build 0)  -->
<svg version="1.1" id="Layer_1" xmlns="http://www.w3.org/2000/svg" xmlns:xlink="http://www.w3.org/1999/xlink" x="0px" y="0px"
	 viewBox="0 0 500 107" style="enable-background:new 0 0 500 107;" xml:space="preserve">
<style type="text/css">
	.st0{fill:#FFFFFF;}
</style>
<g>
	<path class="st0" d="M14.4,72.2c0,0,10.7,12.2,23.7,12.2c5.2,0,10.4-1.9,10.4-7.7C48.6,65.3,1.7,64,1.7,31.6
		C1.7,12.9,18,0.4,38.6,0.4c13.7,0,33,6.7,33,22.4v11.3H48.4v-4.5c0-3.8-5.4-6.1-10.1-6.1c-5.2,0-10.6,2.2-10.6,6.9
		c0,12.6,46.9,10.9,46.9,44.9c0,17.2-13.5,32-36.8,32c-24.3,0-37.8-17.1-37.8-17.1L14.4,72.2z"/>
	<path class="st0" d="M90.9,55.3c0-2-1.2-3.2-3.2-3.2h-5.5v-21h23.2c7.4,0,10.6,3.2,10.6,10.6v33.1c0,6.9,2.8,9.8,8,9.8
		c10.7,0,15.8-9.4,15.8-20.5v-33h25v50.4c0,2,1.2,3.2,3.2,3.2h5.5v21h-22.1c-6.8,0-10.6-3.3-10.6-8.4v-1c0-0.7,0.2-1.7,0.2-1.7h-0.3
		c-4.1,8-13.2,12.9-23.2,12.9c-14.8,0-26.5-6.9-26.5-27.9V55.3z"/>
	<path class="st0" d="M187.6,55.3c0-2-1.2-3.2-3.2-3.2H179v-21h22.4c6.8,0,10.4,3.3,10.4,8.4v1c0,0.7-0.1,1.7-0.1,1.7h0.3
		c3.5-5.2,10.1-12.9,21.9-12.9c9.4,0,16.9,4.2,20.8,12.6h0.3c3.9-6.2,12.7-12.6,23.9-12.6c13.6,0,24.2,7.4,24.2,27.9v24.2
		c0,2,1.2,3.2,3.2,3.2h5.5v21h-23.2c-7.4,0-10.6-3.2-10.6-10.6V61.5c0-5.5-1-9.4-5.8-9.4c-7.5,0-11.9,6.1-13.5,14.3
		c-0.6,2.6-0.9,5.4-0.9,8.4v30.8h-25V61.5c0-5.5-1-9.4-5.8-9.4c-7.4,0-11.6,5.8-13.3,13.7c-0.6,2.8-1,5.8-1,9v30.8h-25V55.3z"/>
	<path class="st0" d="M359.8,29.4c23.6,0,42.3,15.8,42.3,39.2c0,23.3-18.7,38.8-42.1,38.8c-23.5,0-42.1-15.5-42.1-38.8
		C317.8,45.2,336.5,29.4,359.8,29.4z M360,86.6c9.1,0,16.9-6.8,16.9-18c0-11.3-7.8-18.4-16.9-18.4c-9.1,0-16.9,7.1-16.9,18.4
		C343,79.8,350.8,86.6,360,86.6z"/>
	<path class="st0" d="M413.6,0h21.3L422,36.9h-16.2L413.6,0z"/>
	<path class="st0" d="M447.6,77.7c0,0,10.4,10.7,21.9,10.7c3.6,0,5.6-1,5.6-3.6c0-6.2-37.4-8.3-37.4-32.4c0-16.1,14.9-23,30.7-23
		c12.2,0,28.9,3.5,28.9,16.9v8.8h-21.7v-3.6c0-2-3.2-3.5-6.8-3.5c-3.5,0-6.7,1.2-6.7,3.5c0,7.7,37.8,6.7,37.8,31.7
		c0,15.1-13.2,24.2-30.5,24.2c-21.4,0-33-13.6-33-13.6L447.6,77.7z"/>
</g>
</svg>
