<?xml version="1.0" encoding="utf-8"?>
<!-- Generator: Adobe Illustrator 23.0.3, SVG Export Plug-In . SVG Version: 6.00 Build 0)  -->
<svg version="1.1" xmlns="http://www.w3.org/2000/svg" xmlns:xlink="http://www.w3.org/1999/xlink" x="0px" y="0px"
	 viewBox="0 0 100 100" style="enable-background:new 0 0 100 100;" xml:space="preserve">
<style type="text/css">
	.st0{fill:#FFFFFF;}
</style>
<g id="Layer_1">
</g>
<g id="snack">
</g>
<g id="home">
</g>
<g id="drankje">
</g>
<g id="frieten">
	<g>
		<path class="st0" d="M82.7,40.3c-0.2,0.1-0.4,0.2-0.6,0.3c-0.4,0.2-0.8,0.5-1.2,0.7c-0.1,0-0.1,0.1-0.2,0.1
			c-0.4,0.2-0.8,0.5-1.3,0.7c0,0-0.1,0-0.1,0.1c-0.9,0.5-1.9,1-3,1.5c-1.7,0.8-3.6,1.7-5.6,2.5l0,0c-2,0.8-4.1,1.6-6.2,2.3
			c0,0-0.1,0-0.1,0c-1,0.3-2,0.6-3,0.9c-0.2,0-0.3,0.1-0.5,0.1c-0.9,0.2-1.8,0.5-2.7,0.7c-1,0.2-2,0.4-2.9,0.6
			c-1.8,0.3-3.5,0.5-5.3,0.7c-0.9,0.1-1.9,0.1-2.8,0.1c0,0,0,0,0,0c-0.8,0-1.6,0-2.5-0.1c-0.2,0-0.5,0-0.7-0.1
			c-0.6-0.1-1.2-0.1-1.8-0.2c-0.2,0-0.4-0.1-0.7-0.1c-0.7-0.1-1.5-0.3-2.2-0.5c-0.1,0-0.1,0-0.2,0c-0.9-0.2-1.7-0.4-2.6-0.7l0,0
			c-2.1-0.6-4.2-1.4-6.2-2.3c-2-0.9-3.9-1.8-5.7-2.8c-0.1-0.1-0.2-0.1-0.3-0.2c-0.4-0.2-0.7-0.4-1-0.6c-0.1-0.1-0.3-0.2-0.4-0.3
			c-0.3-0.2-0.6-0.4-0.9-0.5c-0.2-0.1-0.4-0.2-0.5-0.3c-0.3-0.2-0.5-0.3-0.8-0.5C19.8,42,19,41.5,18.2,41c-1.7-1.2-4,0.3-3.7,2.4
			L22.7,98c0.9,0.8,1.5,1.3,2.4,2h50.5c0.9-0.8,1.5-1.3,2.4-2l8.3-55.2C86.5,40.8,84.4,39.3,82.7,40.3z"/>
		<path class="st0" d="M16.9,35.3c1.5,0,3,0.4,4.2,1.3c1.9,1.3,4.4,2.8,7.2,4.3l-7.1-23.8l-0.8-1.6c-0.7-1.5-2.6-2.1-4.1-1.4
			L10.7,17c-1.5,0.7-2.1,2.6-1.4,4.1l7.1,14.3C16.5,35.4,16.7,35.3,16.9,35.3z"/>
		<path class="st0" d="M34.7,43.8c4,1.6,8.3,2.7,12.5,2.7c0.4,0,0.9,0,1.3,0l-12.8-43c-0.5-1.6-2.2-2.5-3.8-2l-6.1,1.8
			c-1.6,0.5-2.5,2.2-2,3.8L34.7,43.8z"/>
		<path class="st0" d="M58.3,44.9L58.3,44.9c0,0,0.1,0,0.1,0c0.1,0,0.3-0.1,0.4-0.1l0,0c4.5-1.2,8.7-2.8,12.4-4.5L74.9,4
			c0.2-1.7-1.1-3.2-2.7-3.3L65.8,0c-1.7-0.2-3.2,1.1-3.3,2.7l-3.9,39.4L53.8,4c-0.2-1.7-1.7-2.9-3.4-2.6l-6.3,0.8
			c-1.3,0.2-2.3,1.2-2.6,2.4l12.3,41.3C55.3,45.6,56.8,45.3,58.3,44.9z"/>
		<path class="st0" d="M88.6,13.1l-6-2.8c-1.1-0.5-2.3-0.3-3.1,0.3l-2.7,26.9c1.3-0.7,2.4-1.3,3.3-1.8c1.2-0.7,2.5-1,3.8-1
			c0,0,0,0,0,0c0.1,0,0.2,0,0.2,0l6.1-17.9C90.7,15.4,90,13.8,88.6,13.1z"/>
	</g>
</g>
<g id="hamburger">
</g>
</svg>
