<?xml version="1.0" encoding="utf-8"?>
<!-- Generator: Adobe Illustrator 23.0.3, SVG Export Plug-In . SVG Version: 6.00 Build 0)  -->
<svg version="1.1" xmlns="http://www.w3.org/2000/svg" xmlns:xlink="http://www.w3.org/1999/xlink" x="0px" y="0px"
	 viewBox="0 0 100 100" style="enable-background:new 0 0 100 100;" xml:space="preserve">
<style type="text/css">
	.st0{fill:#FFFFFF;}
</style>
<g id="Layer_1">
</g>
<g id="snack">
</g>
<g id="home">
</g>
<g id="drankje">
</g>
<g id="frieten">
	<path class="st0" d="M84.8,14.9l-4.4-2.1c-0.9-0.4-1.8-0.6-2.8-0.6c0,0,0,0,0,0c-0.7,0-1.4,0.1-2.1,0.3l0.5-4.8
		c0.3-3.6-2.3-6.9-6-7.2L65.2,0c-0.2,0-0.4,0-0.6,0c0,0,0,0,0,0c-3.4,0-6.3,2.6-6.6,6l-0.1,0.9c-0.5-0.1-1.1-0.2-1.7-0.2
		c-0.2,0-0.3,0-0.5,0L51.1,7c-0.3,0-0.7,0.1-1,0.2c-1.2-1.4-3-2.3-5-2.3c0,0,0,0,0,0c-0.3,0-0.6,0-0.8,0.1l-4.7,0.6
		C38.2,5.7,37,6.3,36,7.2c-1.2-1.4-3.1-2.3-5-2.3c-0.6,0-1.3,0.1-1.9,0.3l-4.5,1.4c-3.5,1-5.5,4.7-4.5,8.2l0,0.1
		c-0.3,0-0.6-0.1-0.9-0.1c0,0,0,0,0,0c-1,0-2,0.2-2.9,0.7l-4.2,2.1c-3.3,1.6-4.6,5.6-3.1,8.9l10,20.6c-0.3,0.5-0.5,1.2-0.4,1.8
		l7.3,49c0.2,1.3,1.3,2.3,2.6,2.3h43c1.3,0,2.4-1,2.6-2.3l7.3-49c0.1-0.9-0.2-1.8-0.9-2.4c-0.1-0.1-0.2-0.1-0.2-0.2L88.3,23
		C89.3,19.8,87.9,16.3,84.8,14.9z M62.1,6.4c0.1-1.3,1.2-2.3,2.5-2.3c0.1,0,0.2,0,0.2,0l4.7,0.4c1.4,0.1,2.4,1.4,2.3,2.8l-1,10.7
		l-6.2,18.2l-1.8-23.4c-0.1-1.2-0.5-2.2-1.1-3.1L62.1,6.4z M49.4,12.4c0.1-0.1,0.1-0.2,0.2-0.3c0.1-0.2,0.3-0.3,0.4-0.4
		c0.3-0.2,0.6-0.4,0.9-0.4c0.2,0,0.3-0.1,0.5-0.1l4.7-0.3c0.1,0,0.1,0,0.2,0c0.5,0,0.9,0.1,1.3,0.4c0.2,0.1,0.3,0.2,0.5,0.3
		c0,0,0,0,0,0c0.1,0.1,0.1,0.1,0.2,0.2c0,0,0,0,0,0.1c0,0.1,0.1,0.1,0.1,0.2c0,0,0,0,0,0c0.1,0.1,0.1,0.2,0.1,0.2c0,0,0,0,0,0
		c0,0.1,0.1,0.1,0.1,0.2c0,0,0,0.1,0,0.1c0,0.1,0,0.1,0.1,0.2c0,0,0,0.1,0,0.1c0,0.1,0,0.2,0,0.3c0,0,0,0,0,0l2.5,33l-1.4,4.1
		c-2.6,0.4-5.3,0.8-8,0.9l-1.1-14.7l0,0L49,13.8C49,13.3,49.1,12.8,49.4,12.4z M40.1,9.6L44.8,9c0.1,0,0.2,0,0.3,0
		c0.5,0,1,0.1,1.4,0.4c-1.1,1.3-1.6,3-1.5,4.7l2.1,28.1L38,11.6C38.2,10.6,39,9.8,40.1,9.6z M25.8,10.4L30.3,9
		C30.5,9,30.8,8.9,31,8.9c1.1,0,2.1,0.7,2.4,1.8l12,40.5c-3.7-0.2-7.3-0.8-10.7-1.5l-1.6-5.5v0L26,20l0,0l-1.9-6.5
		C23.7,12.2,24.4,10.8,25.8,10.4z M13.9,21.2l4.2-2.1c0.4-0.2,0.7-0.3,1.1-0.3c0.9,0,1.8,0.5,2.3,1.4l0.6,1.3l8,27
		c-3.1-0.9-5.6-1.8-6.9-2.2L12.7,24.6C12.1,23.3,12.7,21.8,13.9,21.2z M69.3,94.7H30.9l-1.7-11.6c4.3,1,11.7,2.4,18.9,2.4
		c8.8,0,18.1-1.6,23.1-2.6L69.3,94.7z M71.7,78.6c-4.2,0.9-14.4,2.8-23.7,2.8c-7.7,0-15.9-1.8-19.5-2.7l-0.8-5.1
		c3.9,1,12.2,2.7,20.3,2.7c9.7,0,20.1-1.9,24.5-2.8L71.7,78.6z M73.2,69.2c-2.7,0.6-14.5,3.1-25.1,3.1c-9,0-18.7-2.4-20.9-3
		l-2.5-16.9c5.2,1.7,14.2,4.2,23.1,4.2c10.8,0,22.2-2.8,28.1-4.5L73.2,69.2z M84.4,21.7L76,46.5c-2.2,0.7-5.9,1.7-10.3,2.6l-0.2-2.5
		l3.8-11.1v0l5.2-15.3l0.8-2.3c0.4-1.1,1.4-1.7,2.4-1.7c0.4,0,0.7,0.1,1.1,0.2l4.4,2.1C84.2,19.2,84.8,20.5,84.4,21.7z"/>
</g>
<g id="hamburger">
</g>
</svg>
