<?xml version="1.0" encoding="utf-8"?>
<!-- Generator: Adobe Illustrator 23.0.3, SVG Export Plug-In . SVG Version: 6.00 Build 0)  -->
<svg version="1.1" id="Layer_1" xmlns="http://www.w3.org/2000/svg" xmlns:xlink="http://www.w3.org/1999/xlink" x="0px" y="0px"
	 viewBox="0 0 100 100" style="enable-background:new 0 0 100 100;" xml:space="preserve">
<style type="text/css">
	.st0{fill:#FFFFFF;}
	.st1{fill:#6C757D;}
	.st2{display:none;fill:#6C757D;}
</style>
<g>
	<ellipse transform="matrix(0.7071 -0.7071 0.7071 0.7071 -20.7107 50.0001)" class="st0" cx="50" cy="50" rx="47.9" ry="47.9"/>
	<path class="st1" d="M50,4.1c25.3,0,45.9,20.6,45.9,45.9S75.3,95.9,50,95.9S4.1,75.3,4.1,50S24.7,4.1,50,4.1 M50,0
		C22.4,0,0,22.4,0,50s22.4,50,50,50s50-22.4,50-50S77.6,0,50,0L50,0z"/>
</g>
<path class="st1" d="M18.5,50.4c0-5.7,4.2-10.4,9.3-10.4c5.2,0,9.3,4.6,9.3,10.4H18.5z"/>
<path class="st1" d="M62.8,50.4c0-5.7,4.2-10.4,9.3-10.4c5.2,0,9.3,4.6,9.3,10.4H62.8z"/>
<path class="st2" d="M32.7,80.6c1.8-6.6,9-8.4,17.3-8.4c8.4,0,15.4,2.1,17.3,8.5L32.7,80.6z"/>
<g>
	<path class="st0" d="M16.9,96.8c-5.8,0-10.5-5.5-10.5-12.3c0-6,7.7-21.8,8.6-23.6l1.9-3.8l1.9,3.8c0.9,1.8,8.6,17.6,8.6,23.6
		C27.4,91.3,22.7,96.8,16.9,96.8z"/>
	<path class="st1" d="M16.9,61.8c0,0,8.4,17,8.4,22.7c0,5.7-3.8,10.2-8.4,10.2s-8.4-4.6-8.4-10.2C8.5,78.8,16.9,61.8,16.9,61.8
		 M16.9,52.4L13.2,60c-1.5,3-8.8,18.2-8.8,24.5c0,7.9,5.6,14.4,12.6,14.4s12.6-6.5,12.6-14.4c0-6.3-7.4-21.5-8.8-24.5L16.9,52.4
		L16.9,52.4z"/>
</g>
<path class="st1" d="M63.7,80.6H35.4c-2,0-3.7-1.6-3.7-3.7v0c0-2,1.6-3.7,3.7-3.7h28.3c2,0,3.7,1.6,3.7,3.7v0
	C67.3,79,65.7,80.6,63.7,80.6z"/>
</svg>
