<?xml version="1.0" encoding="utf-8"?>
<!-- Generator: Adobe Illustrator 23.0.3, SVG Export Plug-In . SVG Version: 6.00 Build 0)  -->
<svg version="1.1" id="Layer_1" xmlns="http://www.w3.org/2000/svg" xmlns:xlink="http://www.w3.org/1999/xlink" x="0px" y="0px"
	 viewBox="0 0 100 100" style="enable-background:new 0 0 100 100;" xml:space="preserve">
<path d="M77.1,6.2c-3.4,2.3-8.8,1.7-9.4,7.1c-0.7,6,6,7.8,10.5,9c3.3,0.8,6.9,1.6,9.6,3.7c2.5,1.9,5.7,6.7,2.9,9.7
	c-5.2,5.7-16.4-3.6-20.4-6.8c-5.9-4.8-20-20.7-28.8-14c-4.2,3.2-2,9-0.2,12.9c2.7,6,7.1,11,12.3,15C58.8,47,64.8,50,71,52.6
	c3.1,1.3,6.3,2.6,9.4,3.8c3.7,1.5,8.8,2.7,11.5,5.9c5.2,6-9.6,11.7-13.8,12.1c-7.6,0.8-13.9-2.8-19-8.2C50.4,56.9,45,43.9,32.6,38.3
	c-11.1-5-24.3-0.5-29.8,10.5c-5.2,10.6-3.5,25.8,6.6,32.8c4.3,3,9.4,4.8,14.3,6.6c2.3,0.8,4.6,1.5,6.8,2.5c0.7,0.3,1.5,0.6,2.1,1
	c1.1,0.7,0.6,0.6,0.6,0c-0.3,4.4,6.5,4.3,6.8,0c0.5-6.7-11.1-8.9-15.6-10.5c-4.3-1.6-9-3.3-12.5-6.3C7,70.8,6,62.7,7.3,56.7
	c1.5-7.2,6.9-13.1,14.6-13.7c7.8-0.6,14.1,5,18.8,10.5c8.1,9.5,13.9,22,26.5,26.4c10.4,3.7,22.9,0.3,29.9-8.2
	c9.5-11.5-6.1-18.3-14.8-21.8c-12.9-5.1-27.9-10.9-34.4-24.2c-0.3-0.5-2.2-4.2-1.8-5c0.6-1.3,2.7,0.3,3.5,0.6
	c3.1,1.5,5.9,3.8,8.6,5.9c5.2,4.3,10.1,9.1,15.9,12.6c4.9,2.9,10.9,5.2,16.6,3.5c5.4-1.6,8.4-6.7,7.8-12.1
	c-0.8-6.5-5.5-10.9-11.3-13.4c-3.2-1.3-7.2-1.5-10.1-3c-2.7-1.4-1.9-0.2-0.4-1.1c1.3-0.7,2.8-0.9,4-1.8C84.1,9.6,80.7,3.7,77.1,6.2
	L77.1,6.2z"/>
</svg>
