<?xml version="1.0" encoding="utf-8"?>
<!-- Generator: Adobe Illustrator 23.0.3, SVG Export Plug-In . SVG Version: 6.00 Build 0)  -->
<svg version="1.1" xmlns="http://www.w3.org/2000/svg" xmlns:xlink="http://www.w3.org/1999/xlink" x="0px" y="0px"
	 viewBox="0 0 100 100" style="enable-background:new 0 0 100 100;" xml:space="preserve">
<style type="text/css">
	.st0{fill:#FFFFFF;}
</style>
<g id="Layer_1">
</g>
<g id="snack">
	<g>
		<path class="st0" d="M84,0.2c-8.3-1.4-16.2,4.3-17.6,12.6c-2.3,14.1-8.4,27-17.5,37.1c-9.1,10-20.8,16.9-33.9,20
			C6.8,71.8,1.7,80,3.7,88.2c1.7,7,7.9,11.8,14.9,11.8c1.2,0,2.3-0.1,3.5-0.4C41.2,95.1,58.3,85,71.5,70.4
			c13.1-14.5,21.8-32.7,25.1-52.6C97.9,9.4,92.3,1.6,84,0.2z M83.3,36.8c-2.7,3.8-6.6,4.3-9.8,4.8c-2.9,0.4-5.3,0.8-7.1,3.1
			c-1.4,1.8-0.8,4.7-0.1,7.9c0.8,4.1,1.9,9.2-2.1,12.8c-3.7,3.4-7.9,2.7-11.6,2.1c-3.2-0.5-6-0.9-8.6,0.8c-2.4,1.6-2.8,4-3.3,7.9
			c-0.4,3.7-0.9,7.8-5,10.1c-2.8,1.5-5,2-6.9,2c-1.8,0-3.2-0.4-4.6-0.8c-2-0.6-3.8-1.1-6.8-0.5c-1.4,0.3-2.7-0.7-3-2
			c-0.3-1.4,0.7-2.7,2-3c4.1-0.8,6.9,0,9.1,0.6c2.6,0.7,4.1,1.2,7.7-0.8c1.7-0.9,2-2.9,2.4-6.2c0.4-3.8,1-8.5,5.5-11.5
			c4.2-2.8,8.6-2.1,12.1-1.5c3.5,0.6,5.6,0.8,7.4-0.8c1.7-1.6,1.3-4.1,0.5-8.1c-0.8-3.9-1.7-8.3,1.1-12c3.1-4,7.1-4.6,10.4-5.1
			c3.1-0.4,5-0.8,6.4-2.7c1.1-1.6,0.6-2.8-1.1-5.9c-1.8-3.3-4.4-7.7-1.8-13.5c0.6-1.3,2.1-1.8,3.4-1.3c1.3,0.6,1.8,2.1,1.3,3.4
			c-1.5,3.4-0.1,5.9,1.6,8.9C84.2,28.5,86.4,32.5,83.3,36.8z"/>
	</g>
</g>
<g id="home">
</g>
<g id="drankje">
</g>
<g id="frieten">
</g>
<g id="hamburger">
</g>
</svg>
